<svg width="467" height="296" viewBox="0 0 467 296" fill="none" xmlns="http://www.w3.org/2000/svg"><path d="M406.838 92.794c5.229 8.729 2.426 20.106-6.26 25.411l-117.189 71.583-41.822 156.085c-2.646 9.872-12.724 15.749-22.511 13.126-9.786-2.622-15.576-12.751-12.931-22.623l42.209-157.523a33.462 33.462 0 0114.857-19.901l118.453-72.355c8.686-5.306 19.966-2.531 25.194 6.197zm47.277 33.372c5.229 8.728 2.426 20.105-6.26 25.411L324.34 227.024c-8.686 5.306-19.966 2.531-25.194-6.197-5.229-8.729-2.426-20.106 6.26-25.411l123.516-75.448c8.686-5.305 19.965-2.531 25.193 6.198zM137.033 20.495c-8.892 4.945-12.153 16.199-7.283 25.137l65.696 120.586-41.822 156.085c-2.646 9.872 3.144 20.001 12.931 22.623 9.786 2.623 19.865-3.254 22.51-13.127l42.208-157.523a33.462 33.462 0 00-2.916-24.663L161.951 27.725c-4.87-8.938-16.026-12.175-24.918-7.23zm-57.629 5.262c-8.892 4.945-12.153 16.199-7.283 25.137l69.243 127.097c4.87 8.938 16.026 12.174 24.918 7.229 8.892-4.944 12.153-16.199 7.283-25.136L104.322 32.987c-4.87-8.938-16.026-12.175-24.918-7.23z" opacity=".3" fill-rule="evenodd" clip-rule="evenodd" fill="#13C077"/></svg>