<svg width="41" height="41" viewBox="0 0 41 41" fill="none" xmlns="http://www.w3.org/2000/svg">
<g clip-path="url(#clip0)">
<path d="M2.18708 13.3697C2.00386 13.6723 2.10068 14.0662 2.40337 14.2495C2.70607 14.4327 3.09997 14.3358 3.28311 14.0332C3.42773 13.7944 3.59926 13.5511 3.79305 13.3106C3.96329 13.0991 3.98179 12.8034 3.83933 12.5724C3.82596 12.5507 2.51252 10.3894 3.07691 8.51019C3.34517 7.61708 4.02183 6.91335 5.08815 6.41855C5.27681 6.33094 5.41127 6.15725 5.44866 5.95273C5.45307 5.92879 5.90591 3.54935 7.61934 2.60779C8.585 2.07719 9.80635 2.10474 11.2495 2.68947C11.4825 2.78404 11.7494 2.73319 11.9315 2.56006C13.5868 0.986209 15.9519 1.36746 17.076 2.71886C17.2716 2.95413 17.6063 3.01803 17.875 2.87181C19.3319 2.07831 20.7071 1.80477 21.8523 2.0808C22.7018 2.28564 23.145 2.72623 23.145 2.72623C23.4031 2.99921 23.8426 2.99305 24.0923 2.70821C24.8198 1.87812 25.7255 1.2813 26.8209 1.2813C28.6004 1.2813 30.0885 2.82288 30.1025 2.83762C30.3075 3.05519 30.6356 3.10171 30.8932 2.95037C30.9295 2.9289 34.5303 0.848234 36.3523 2.91249C38.4094 5.96675 36.9642 8.84147 36.9025 8.96071C36.7784 9.19622 36.813 9.48402 36.9894 9.68349C37.5498 10.3174 37.9623 11.0104 38.2155 11.7434C38.331 12.078 38.6958 12.2554 39.0301 12.1398C39.3646 12.0243 39.542 11.6596 39.4265 11.3252C39.1608 10.5557 38.7546 9.82667 38.2168 9.15306C38.6322 8.1054 39.4571 5.19512 37.3904 2.16047C37.3769 2.14054 37.3621 2.12148 37.3465 2.10314C35.6836 0.170854 32.9512 0.508143 30.6742 1.61939C28.4557 -0.307853 25.7376 -0.686543 23.5467 1.42456C22.6646 0.851197 20.6952 0.0582638 17.7017 1.51961C16.0772 0.00365056 13.3689 -0.277344 11.3573 1.35977C9.69456 0.768156 8.23098 0.809877 7.00234 1.48494C5.17712 2.48783 4.47323 4.58636 4.26278 5.39691C1.31455 6.93161 1.04781 9.93542 2.53182 12.8511C2.40681 13.0238 2.29142 13.1972 2.18708 13.3697Z" fill="#1EA0D9"/>
<path d="M39.128 14.5555C38.7832 14.4775 38.4402 14.6947 38.3625 15.0399C38.0564 16.4014 37.681 16.4894 37.8273 16.9456C39.242 21.3587 35.5922 23.7966 35.4376 23.8973C35.2279 24.0322 35.1157 24.2765 35.1497 24.5235C35.4016 26.3508 35.0888 27.8009 34.2201 28.8333C32.8415 30.4715 30.4707 30.5722 30.4485 30.573C30.1892 30.5807 29.9602 30.744 29.8684 30.9866C29.3182 32.4402 28.5152 33.3493 27.4815 33.6884C25.6543 34.2877 23.6052 32.9805 23.5858 32.968C23.1248 32.6665 22.5211 33.0516 22.6014 33.5973C22.6067 33.6339 23.0996 37.1803 21.028 39.7186H20.2652C18.3816 35.3781 16.7265 28.0143 21.3698 27.3317C22.5373 27.1603 23.8612 27.5437 25.3134 28.4706C25.6746 28.7011 25.8848 28.9262 26.2564 28.807C27.2637 28.4825 26.1605 26.0931 29.9978 25.2227C30.3484 25.1431 30.5644 24.7907 30.4776 24.4429C29.8725 22.0164 30.2596 20.2903 32.5869 19.2717C32.8852 19.1399 33.0363 18.8052 32.9394 18.4948C32.552 17.2542 32.477 15.963 32.8213 14.6882C33.1939 13.3084 33.6777 13.1892 33.5472 12.6908C33.4257 12.2267 33.0573 12.3175 32.4314 11.7834C31.7983 11.2429 31.3987 10.4671 31.2419 9.46473C31.0717 8.37791 31.2582 7.42658 31.2599 7.41842C31.3395 7.03052 31.0514 6.66608 30.6595 6.64951C30.1986 6.62989 30.2114 6.96245 29.3219 7.43547C27.4854 8.41227 24.993 8.02116 23.088 7.28428C22.6724 7.12349 22.3932 6.9337 22.0475 7.20036C20.8199 8.14641 19.5959 8.39473 18.5754 8.35661C18.566 8.35501 17.1471 8.3245 16.0346 7.63799C15.4526 7.27331 15.0843 8.07265 13.3021 7.98241C12.1676 7.92499 11.0205 7.41425 10.3537 6.83545C9.89072 6.43458 9.19564 6.85122 9.30567 7.4378C9.44324 8.17187 9.39239 8.91155 9.0065 9.5509C8.57544 10.2651 7.9188 10.5274 7.90726 10.5411C7.5393 10.6917 7.39637 11.138 7.60721 11.4743C8.57095 13.0114 8.77723 14.3183 8.69836 15.3097C8.69651 15.3188 8.59866 16.604 7.98438 17.3889C7.68969 17.755 7.87707 18.3047 8.33472 18.4139C11.7493 19.2284 12.1662 24.0426 10.9883 25.402C10.4153 26.0626 10.607 27.2759 10.7222 28.2123C10.8327 29.1101 10.984 30.3396 10.6081 30.6888C10.1861 31.0808 9.64712 30.766 9.49201 30.6604C8.90127 30.2577 9.16465 28.7904 9.33898 27.8194C9.50402 26.9004 9.61293 26.2932 9.2111 25.9132C9.01386 25.7266 8.73872 25.6581 8.45628 25.7252C4.70638 26.6165 3.75561 21.7514 4.97184 20.7615C5.31161 20.4849 5.27934 19.9554 4.9081 19.7221C4.89801 19.7158 3.88758 19.0735 3.21565 17.9746C3.03099 17.6727 2.63668 17.5778 2.33487 17.7623C2.03297 17.9469 1.93792 18.3412 2.1225 18.6431C2.59864 19.4217 3.20668 20.0103 3.64695 20.3758C2.29443 22.6555 3.98023 27.5976 8.16608 27.078C7.96476 28.3813 7.32574 30.7344 8.77027 31.719C9.68508 32.3427 10.7488 32.3067 11.4799 31.6275C12.5741 30.6112 11.9718 28.494 11.888 26.9984C13.5036 28.2804 15.4852 29.0012 17.5408 29.0599C15.9345 33.5224 19.1251 40.3256 19.272 40.6344C19.3782 40.8576 19.6033 40.9998 19.8505 40.9998H21.323C21.5051 40.9998 21.6786 40.9223 21.8002 40.7867C23.6484 38.7232 23.9435 36.0801 23.9403 34.5813C26.9076 35.8224 29.5539 34.9865 30.9148 31.8169C31.7934 31.7089 33.8211 31.289 35.192 29.6684C36.2452 28.4232 36.6727 26.7638 36.4651 24.7318C38.7965 22.9056 40.0449 20.0011 39.1232 16.8033C39.2541 16.5139 39.4615 15.9935 39.6127 15.3209C39.6902 14.9758 39.4733 14.6331 39.128 14.5555ZM25.7017 27.2036C25.3273 26.9797 24.9583 26.7892 24.5944 26.6281C24.8819 25.9848 24.8797 25.2758 24.6707 24.6109C25.6249 24.098 26.5764 23.4999 27.3297 22.6325C28.3699 21.4347 28.7707 19.8915 28.3754 18.6054C27.9651 17.2701 26.5111 15.6096 24.3941 14.8903C24.2545 14.843 24.2483 14.6513 24.3807 14.5851C25.5807 13.9845 29.0634 12.2409 28.5269 9.1035C28.9897 8.98939 29.4477 8.82291 29.8893 8.58996C29.9036 9.96178 30.2614 11.3265 31.186 12.3548C30.7009 13.0489 29.7556 13.5076 28.9922 13.7808C27.9103 14.1681 27.5859 15.5395 28.3776 16.3764C29.0464 17.0832 29.8206 18.2427 29.8053 19.8085C28.8812 21.0632 28.8107 22.6096 29.0987 24.1345C26.7261 24.8476 26.041 26.1952 25.7017 27.2036ZM17.5555 16.5639C16.4879 16.5223 15.5116 16.7924 14.7758 17.3409C14.3512 17.6574 14.0151 18.1727 13.8069 18.7537C12.9976 17.8782 11.9354 17.7258 11.0248 18.488C10.5663 18.0363 10.035 17.6791 9.43964 17.4301C9.57193 17.1534 9.70854 16.8058 9.81384 16.3957C12.8917 17.7246 15.213 16.5414 15.3321 12.5726C15.3935 10.5261 18.0607 9.75229 18.5325 9.63146C19.9563 9.68439 21.3111 9.28047 22.5214 8.44077C22.9672 8.62111 23.7888 8.91692 24.7927 9.11279C23.7664 10.7646 21.4052 11.5566 19.4855 11.8182C17.0647 12.1481 16.573 14.3415 17.5555 16.5639ZM31.8522 13.5467C31.2338 15.0845 31.1778 16.7662 31.5672 18.3435C31.3627 18.4525 31.1703 18.5682 30.9899 18.6905C30.7265 17.2721 29.9753 16.2011 29.3082 15.4961C29.1539 15.333 29.2088 15.0643 29.4239 14.9873C30.4632 14.6152 31.2829 14.1269 31.8522 13.5467ZM16.2988 9.17101C15.0108 9.90492 14.096 11.0487 14.0514 12.534C14.0051 14.0775 13.6246 15.0531 12.9206 15.434C12.0508 15.9045 10.7241 15.4344 9.99714 15.0718C10.0309 13.776 9.65257 12.5218 9.0282 11.3682C9.65601 10.9183 10.2001 10.2304 10.4641 9.41084C10.9058 10.3684 11.256 11.6167 10.9324 12.8359C10.8242 13.2436 11.1327 13.641 11.552 13.641C11.8355 13.641 12.0946 13.4515 12.1708 13.1646C12.5777 11.6309 12.1905 10.1266 11.6782 8.97698C12.9578 9.38906 14.3186 9.38169 15.6514 8.88729C15.8107 8.96769 16.0303 9.06907 16.2988 9.17101ZM12.3237 25.6976C13.0898 24.2537 13.0921 21.6745 11.9285 19.664C11.9479 19.5632 11.9727 19.4622 12.002 19.3617C12.4012 19.0827 12.9501 19.699 13.0829 19.9056C13.3431 20.3106 13.5874 20.7082 13.7161 21.1205C14.5271 23.7165 16.4626 24.9853 19.2828 24.8303C19.6361 24.8109 19.9067 24.5088 19.8873 24.1555C19.8678 23.8022 19.5658 23.5327 19.2125 23.5509C17.8109 23.6274 16.7356 23.3024 15.9795 22.5499C14.5366 21.1142 14.6769 19.0128 15.5417 18.3681C16.1042 17.9486 16.9058 17.7699 17.7984 17.8644C18.9591 17.9878 19.3971 18.2922 23.1332 20.1804C23.449 20.34 23.8342 20.2135 23.994 19.8979C24.1537 19.5821 24.0271 19.1967 23.7114 19.0371C20.1973 17.2603 19.911 17.0888 19.1747 16.8526C18.3832 15.7059 18.2179 14.4626 18.4777 13.8407C18.6541 13.4183 19.0404 13.1719 19.6586 13.0877C21.1604 12.8829 23.2787 12.3526 24.8409 10.9883C25.5053 10.4081 25.9288 9.79762 26.1428 9.29024C26.5064 9.31387 26.8805 9.31699 27.2589 9.29329C27.5295 10.8253 26.4406 12.1215 23.8073 13.4393C22.6699 14.0085 22.7554 15.6867 23.9819 16.1036C25.6975 16.6864 26.8598 18.0349 27.1507 18.9818C27.4692 20.018 26.9522 21.1131 26.3623 21.7924C25.7475 22.5003 24.9228 23.0194 24.083 23.4722C23.2933 22.3837 21.8736 21.3719 19.836 20.4503C19.5136 20.3047 19.1341 20.4477 18.9883 20.77C18.8425 21.0923 18.9856 21.4719 19.308 21.6177C20.8147 22.2993 23.268 23.6586 23.5185 25.2943C23.5828 25.7141 23.474 26.028 23.378 26.2018C21.117 25.6255 19.2135 26.4511 18.2028 27.7756C14.5024 27.8796 12.4624 25.7777 12.3237 25.6976Z" fill="#1EA0D9"/>
<path d="M2.60288 15.7425C2.44473 15.3629 1.983 15.2342 1.65556 15.455C1.23699 15.7309 1.28576 16.3791 1.76607 16.5784C2.2929 16.7982 2.8207 16.2654 2.60288 15.7425Z" fill="#1EA0D9"/>
</g>
<defs>
<clipPath id="clip0">
<rect width="41" height="41" fill="white"/>
</clipPath>
</defs>
</svg>
