<svg width="43" height="43" viewBox="0 0 43 43" fill="none" xmlns="http://www.w3.org/2000/svg">
<path d="M9.80538 22.1987L8.84131 21.2347C10.9801 19.0959 12.4569 16.4055 13.1128 13.4533L13.4305 12.0228L14.7614 12.3194L14.4437 13.7492C13.7312 16.955 12.1276 19.8765 9.80538 22.1987Z" fill="#1EA0D9"/>
<path d="M10.9609 19.5348L11.7791 18.4439L14.5063 20.4893L13.6882 21.5802L10.9609 19.5348Z" fill="#1EA0D9"/>
<path d="M10.1638 27.171H10.0063V25.8074H10.1638C12.5938 25.8074 14.9235 25.0608 16.9008 23.6488L18.473 22.5259L19.2653 23.6352L17.693 24.7581C15.484 26.3365 12.8802 27.171 10.1638 27.171Z" fill="#1EA0D9"/>
<path d="M12.1113 28.9583L13.4735 25.5474L14.7403 26.0533L13.3781 29.4641L12.1113 28.9583Z" fill="#1EA0D9"/>
<path d="M8.03378 39.7481L7.99151 39.6636C7.20539 38.09 5.90519 36.7911 4.33227 36.005L1.52051 34.5991L2.13072 33.3794L4.94248 34.7853C6.7779 35.703 8.29423 37.2186 9.21126 39.0541L9.25353 39.1386L8.03378 39.7481Z" fill="#1EA0D9"/>
<path d="M6.86426 36.1761L9.59148 34.1307L10.4096 35.2216L7.68242 37.267L6.86426 36.1761Z" fill="#1EA0D9"/>
<path d="M7.57488 42.8525H6.04696C2.96657 42.8525 0.460938 40.3462 0.460938 37.2665C0.460938 36.8519 0.5073 36.4347 0.600026 36.0297L1.58864 31.6791C3.11452 24.9647 6.16969 18.5544 10.4235 13.1408C11.2471 12.0915 12.4852 11.4895 13.8195 11.4895C15.8868 11.4895 17.6704 12.9629 18.061 14.9933L20.4439 27.3824C20.7569 29.0085 20.9151 30.6734 20.9151 32.3295C20.9151 35.1243 18.6413 37.3981 15.8465 37.3981C14.5607 37.3981 13.3859 38.0492 12.7048 39.1401L11.873 40.4703C10.941 41.9614 9.33394 42.8525 7.57488 42.8525ZM13.8195 12.8531C12.9066 12.8531 12.0591 13.2649 11.4953 13.9829C7.36557 19.2389 4.39972 25.4624 2.91816 31.9811L1.92954 36.331C1.86 36.6379 1.82455 36.9528 1.82455 37.2665C1.82455 39.5948 3.7186 41.4889 6.04696 41.4889H7.57488C8.86077 41.4889 10.0355 40.8378 10.7166 39.7469L11.5484 38.4167C12.4805 36.9256 14.0875 36.0345 15.8465 36.0345C17.8892 36.0345 19.5515 34.3722 19.5515 32.3295C19.5515 30.7593 19.4008 29.1816 19.1049 27.6387L16.722 15.2503C16.4547 13.8615 15.2343 12.8531 13.8195 12.8531Z" fill="#1EA0D9"/>
<path d="M33.3882 22.1987C31.0659 19.8765 29.4623 16.955 28.7499 13.7492L28.4321 12.3194L29.763 12.0228L30.0807 13.4526C30.7366 16.4048 32.2134 19.0952 34.3522 21.234L33.3882 22.1987Z" fill="#1EA0D9"/>
<path d="M28.6875 20.4968L31.4147 18.4514L32.2329 19.5423L29.5057 21.5877L28.6875 20.4968Z" fill="#1EA0D9"/>
<path d="M33.1881 27.171H33.0306C30.3143 27.171 27.7105 26.3365 25.5014 24.7581L23.9292 23.6352L24.7215 22.5259L26.2937 23.6488C28.2709 25.0608 30.6007 25.8074 33.0306 25.8074H33.1881V27.171Z" fill="#1EA0D9"/>
<path d="M28.4688 26.0854L29.7355 25.5796L31.0977 28.9904L29.8309 29.4963L28.4688 26.0854Z" fill="#1EA0D9"/>
<path d="M35.1631 39.7484L33.9434 39.1382L33.9856 39.0537C34.9033 37.219 36.419 35.7026 38.2544 34.7849L41.0662 33.379L41.6764 34.5988L38.8646 36.0047C37.2917 36.7908 35.9922 38.0903 35.2054 39.6632L35.1631 39.7484Z" fill="#1EA0D9"/>
<path d="M32.7783 35.2163L33.5965 34.1254L36.3237 36.1708L35.5055 37.2617L32.7783 35.2163Z" fill="#1EA0D9"/>
<path d="M37.1469 42.8525H35.619C33.8599 42.8525 32.2529 41.9614 31.3209 40.4703L30.4891 39.1401C29.808 38.0492 28.6332 37.3981 27.3473 37.3981C24.5526 37.3981 22.2788 35.1243 22.2788 32.3295C22.2788 30.6728 22.437 29.0085 22.7499 27.3817L25.1328 14.9926C25.5228 12.9629 27.3071 11.4895 29.3743 11.4895C30.7093 11.4895 31.9468 12.0915 32.7711 13.1401C37.0249 18.5537 40.0794 24.964 41.6059 31.6784L42.5945 36.0283C42.6866 36.4347 42.7329 36.8513 42.7329 37.2665C42.7329 40.3462 40.2273 42.8525 37.1469 42.8525ZM29.3743 12.8531C27.9596 12.8531 26.7392 13.8615 26.4719 15.251L24.089 27.6394C23.7931 29.1816 23.6424 30.76 23.6424 32.3295C23.6424 34.3722 25.3047 36.0345 27.3473 36.0345C29.1064 36.0345 30.7134 36.9256 31.6454 38.4167L32.4772 39.7469C33.1584 40.8378 34.3331 41.4889 35.619 41.4889H37.1469C39.4753 41.4889 41.3693 39.5948 41.3693 37.2665C41.3693 36.9528 41.3339 36.6379 41.2643 36.3304L40.2757 31.9811C38.7942 25.4624 35.8283 19.2389 31.6986 13.9829C31.1348 13.2649 30.2873 12.8531 29.3743 12.8531Z" fill="#1EA0D9"/>
<path d="M24.4831 20.7891L21.5977 17.3269L18.7123 20.7891L17.665 19.9164L21.0741 15.8256C21.3331 15.5147 21.8622 15.5147 22.1213 15.8256L25.5303 19.9164L24.4831 20.7891Z" fill="#1EA0D9"/>
<path d="M25.1553 17.3701L22.4281 13.9611C22.3313 13.8397 22.2788 13.6897 22.2788 13.535V0.580688H23.6424V13.2957L26.2203 16.5179L25.1553 17.3701Z" fill="#1EA0D9"/>
<path d="M18.0371 17.3701L16.9722 16.5185L19.5501 13.2957V0.580688H20.9137V13.535C20.9137 13.6897 20.8612 13.8397 20.7644 13.9611L18.0371 17.3701Z" fill="#1EA0D9"/>
<path d="M20.2334 10.8077H22.9606V12.1713H20.2334V10.8077Z" fill="#1EA0D9"/>
<path d="M20.2334 8.08044H22.9606V9.44405H20.2334V8.08044Z" fill="#1EA0D9"/>
<path d="M20.2334 5.35327H22.9606V6.71688H20.2334V5.35327Z" fill="#1EA0D9"/>
</svg>
