<svg width="38" height="41" viewBox="0 0 38 41" fill="none" xmlns="http://www.w3.org/2000/svg">
<path d="M9.65432 26.8704H8.39085C6.70422 26.8704 5.03284 26.3132 3.68314 25.3011C1.39429 23.5847 0.0273438 20.8508 0.0273438 17.9889C0.0273438 15.8778 0.561918 13.7826 1.57204 11.9301L3.99089 7.49504L3.34621 0.400984L4.6674 0.280273L5.33064 7.57595C5.34258 7.70661 5.31538 7.8386 5.25238 7.95334L2.73669 12.5649C1.83203 14.2243 1.35383 16.1 1.35383 17.9889C1.35383 20.4349 2.52247 22.7722 4.47903 24.2399C5.59992 25.0809 6.98875 25.5439 8.39018 25.5439H9.65366C11.3947 25.5439 13.0322 24.866 14.2632 23.6344C15.3483 22.55 15.9452 21.1081 15.9452 19.5747H17.2717C17.2717 21.4629 16.5368 23.2371 15.2017 24.5722C13.72 26.0546 11.7495 26.8704 9.65432 26.8704Z" fill="#1EA0D9"/>
<path d="M8.6494 20.2381C7.55239 20.2381 6.65967 19.3454 6.65967 18.2484C6.65967 17.1514 7.55239 16.2587 8.6494 16.2587C9.7464 16.2587 10.6391 17.1514 10.6391 18.2484C10.6391 19.3454 9.7464 20.2381 8.6494 20.2381ZM8.6494 17.5852C8.28329 17.5852 7.98616 17.8823 7.98616 18.2484C7.98616 18.6145 8.28329 18.9116 8.6494 18.9116C9.01551 18.9116 9.31264 18.6145 9.31264 18.2484C9.31264 17.8823 9.01551 17.5852 8.6494 17.5852Z" fill="#5FCCDC"/>
<path d="M3.93605 40.4317L2.74951 39.8381L2.84502 39.6478C4.90572 35.5251 5.99543 30.9095 5.99543 26.3007V26.2072H7.32191V26.3007C7.32191 31.1145 6.18379 35.9349 4.0309 40.242L3.93605 40.4317Z" fill="#1EA0D9"/>
<path d="M28.8058 26.8705H27.5423C25.4471 26.8705 23.4767 26.0547 21.995 24.5724C20.6592 23.2372 19.9243 21.4631 19.9243 19.5748H21.2508C21.2508 21.1082 21.8477 22.5501 22.9321 23.6345C24.1638 24.8662 25.8007 25.544 27.5417 25.544H28.8051C30.2066 25.544 31.5954 25.0811 32.7156 24.2401C34.6735 22.7723 35.8422 20.4357 35.8422 17.989C35.8422 16.0994 35.364 14.2238 34.4593 12.565L31.9436 7.95346C31.8806 7.83806 31.8534 7.70673 31.8654 7.57608L32.5286 0.280396L33.8498 0.401106L33.2044 7.49582L35.6233 11.9309C36.6341 13.7834 37.1686 15.8786 37.1686 17.989C37.1686 20.8502 35.8017 23.5848 33.5122 25.3006C32.1638 26.3134 30.4924 26.8705 28.8058 26.8705Z" fill="#1EA0D9"/>
<path d="M28.5459 20.2381C27.4489 20.2381 26.5562 19.3454 26.5562 18.2484C26.5562 17.1514 27.4489 16.2587 28.5459 16.2587C29.6429 16.2587 30.5356 17.1514 30.5356 18.2484C30.5356 19.3454 29.6429 20.2381 28.5459 20.2381ZM28.5459 17.5852C28.1798 17.5852 27.8826 17.8823 27.8826 18.2484C27.8826 18.6145 28.1798 18.9116 28.5459 18.9116C28.912 18.9116 29.2091 18.6145 29.2091 18.2484C29.2091 17.8823 28.912 17.5852 28.5459 17.5852Z" fill="#5FCCDC"/>
<path d="M33.2599 40.4317L33.1644 40.2414C31.0121 35.9349 29.874 31.1138 29.874 26.3007V26.2072H31.2005V26.3007C31.2005 30.9095 32.2902 35.5251 34.3516 39.6484L34.4471 39.8388L33.2599 40.4317Z" fill="#1EA0D9"/>
</svg>
