<svg width="54" height="45" viewBox="0 0 54 45" fill="none" xmlns="http://www.w3.org/2000/svg">
<path d="M30.5737 16.9409C30.383 17.6181 30.0017 19.3597 31.3363 19.4565C32.0989 19.4565 32.2897 17.9084 32.8616 17.8116C33.4336 17.7149 34.1009 18.5857 36.1027 18.2954C38.1046 18.0051 38.3906 15.8766 38.5812 14.6188C38.7719 13.361 37.9139 13.5545 36.8653 13.9415C35.8167 14.3285 33.2429 14.2318 32.5756 12.2967C31.9083 10.3617 30.8597 9.87789 30.0971 9.97464C29.3345 10.0714 28.6672 12.0065 29.4298 12.8772C30.1924 13.748 30.7644 16.2636 30.5737 16.9409Z" stroke="#5FCCDC" stroke-width="1.6"/>
<path d="M35.4354 20.811C35.9121 20.9077 37.1513 21.1012 37.342 21.7785C37.342 22.359 36.1027 25.4551 34.9588 25.9389C33.8149 26.4227 31.0504 24.9714 30.0971 23.5201C29.1438 22.0688 30.5737 21.7785 32.0037 21.7785C33.4336 21.7785 33.1476 21.7785 33.7196 21.198C34.2915 20.6175 34.9588 20.7142 35.4354 20.811Z" stroke="#5FCCDC" stroke-width="1.6"/>
<path d="M17.4187 35.0337C17.6094 33.0986 18.4673 32.4214 19.2299 32.4214C20.0879 32.4214 20.3738 34.1629 20.5645 34.7434C20.7551 35.324 21.5177 36.098 22.0897 36.3882C22.6617 36.6785 22.471 37.8395 22.471 38.7103C22.471 39.5811 20.9458 39.7746 18.8486 39.4843C16.7514 39.1941 17.2281 36.9688 17.4187 35.0337Z" stroke="#5FCCDC" stroke-width="1.6"/>
<path d="M15.2623 42.5539L16.0533 42.4347V42.4347L15.2623 42.5539ZM14.0521 34.5513L13.2612 34.672L14.0521 34.5513ZM12.5037 27.9837L13.2741 27.7681L13.2741 27.7681L12.5037 27.9837ZM10.8877 27.6869L10.2305 27.2307L10.2305 27.2307L10.8877 27.6869ZM9.72949 29.5083L10.4218 29.9092L9.72949 29.5083ZM8.06362 32.9536L7.32528 32.6456L7.32528 32.6456L8.06362 32.9536ZM6.70359 33.5087L7.02542 32.7763L7.02541 32.7763L6.70359 33.5087ZM1.54357 31.2414L1.86539 30.509H1.86539L1.54357 31.2414ZM0.948994 30.2299L0.152683 30.1532L0.152683 30.1532L0.948994 30.2299ZM1.07562 28.8968L1.87209 28.972L1.07562 28.8968ZM3.96607 13.2473L4.49537 13.8471L3.96607 13.2473ZM9.69763 11.9442L9.75057 12.7424L9.69763 11.9442ZM14.155 11.4977L14.2835 12.2873L14.3125 12.2825L14.341 12.2757L14.155 11.4977ZM21.9768 6.45467L21.267 6.08558V6.08558L21.9768 6.45467ZM22.8352 2.22727L22.0357 2.25703V2.25703L22.8352 2.22727ZM30.4833 2.22727L31.2827 2.25703V2.25703L30.4833 2.22727ZM31.3417 6.45467L32.0515 6.08558V6.08558L31.3417 6.45467ZM39.1635 11.4977L38.9774 12.2757L39.006 12.2825L39.035 12.2873L39.1635 11.4977ZM43.6208 11.9442L43.5679 12.7424H43.5679L43.6208 11.9442ZM49.3524 13.2473L49.8817 12.6474V12.6474L49.3524 13.2473ZM52.2428 28.8968L51.4464 28.972V28.972L52.2428 28.8968ZM52.3695 30.2299L51.5732 30.3067L52.3695 30.2299ZM51.7749 31.2414L51.4531 30.509L51.7749 31.2414ZM46.6149 33.5087L46.293 32.7763L46.6149 33.5087ZM45.2548 32.9536L45.9932 32.6456V32.6456L45.2548 32.9536ZM43.589 29.5083L44.2813 29.1075V29.1075L43.589 29.5083ZM42.4307 27.6869L41.7735 28.143L41.7735 28.143L42.4307 27.6869ZM40.8147 27.9837L41.5851 28.1993V28.1993L40.8147 27.9837ZM39.2664 34.5513L40.0573 34.672V34.672L39.2664 34.5513ZM38.0562 42.5539L37.2651 42.4347L38.0562 42.5539ZM16.2508 44.2023H26.6075V42.6023H16.2508V44.2023ZM14.4712 42.673C14.6042 43.5564 15.3629 44.2023 16.2508 44.2023V42.6023C16.1491 42.6023 16.0677 42.5299 16.0533 42.4347L14.4712 42.673ZM13.2612 34.672C13.6156 36.9952 14.2112 40.947 14.4712 42.673L16.0533 42.4347C15.7935 40.709 15.1976 36.7557 14.8429 34.4307L13.2612 34.672ZM11.7333 28.1993C12.2429 30.0204 12.9764 32.805 13.2612 34.672L14.8429 34.4307C14.5415 32.4547 13.7818 29.5825 13.2741 27.7681L11.7333 28.1993ZM11.545 28.143C11.5707 28.1059 11.591 28.0965 11.5982 28.0936C11.6081 28.0896 11.6213 28.0876 11.6377 28.0907C11.6542 28.0938 11.6716 28.1018 11.6869 28.1157C11.7003 28.1278 11.72 28.1515 11.7333 28.1993L13.2741 27.7681C12.8905 26.3971 11.0952 25.9849 10.2305 27.2307L11.545 28.143ZM10.4218 29.9092C10.8122 29.235 11.2031 28.6355 11.545 28.143L10.2305 27.2307C9.86833 27.7526 9.45305 28.3891 9.03715 29.1075L10.4218 29.9092ZM8.80196 33.2616C9.17235 32.3736 9.76478 31.0441 10.4218 29.9092L9.03715 29.1075C8.32841 30.3317 7.70484 31.7357 7.32528 32.6456L8.80196 33.2616ZM6.38177 34.2411C7.32996 34.6577 8.41406 34.1915 8.80196 33.2616L7.32528 32.6456C7.27123 32.7752 7.1282 32.8214 7.02542 32.7763L6.38177 34.2411ZM1.22175 31.9738L6.38177 34.2411L7.02541 32.7763L1.86539 30.509L1.22175 31.9738ZM0.152683 30.1532C0.0778024 30.9302 0.510704 31.6614 1.22175 31.9738L1.86539 30.509C1.78329 30.4729 1.73708 30.392 1.7453 30.3067L0.152683 30.1532ZM0.279162 28.8217C0.234919 29.2906 0.19287 29.7362 0.152683 30.1532L1.7453 30.3067C1.78567 29.8878 1.82788 29.4405 1.87209 28.972L0.279162 28.8217ZM3.43677 12.6474C3.11672 12.9298 2.8786 13.3378 2.69138 13.753C2.49711 14.1838 2.3237 14.7006 2.16657 15.2703C1.85208 16.4105 1.5827 17.8376 1.34883 19.3723C0.880628 22.4449 0.541564 26.0408 0.279162 28.8217L1.87209 28.972C2.13545 26.1809 2.47053 22.6324 2.93057 19.6134C3.16083 18.1023 3.41909 16.7468 3.70898 15.6957C3.85405 15.1698 4.00201 14.7388 4.14995 14.4107C4.30495 14.067 4.42988 13.9049 4.49537 13.8471L3.43677 12.6474ZM9.6447 11.1459C8.39711 11.2287 7.19605 11.3072 6.16468 11.4975C5.139 11.6867 4.16502 12.0048 3.43677 12.6474L4.49537 13.8471C4.8982 13.4917 5.52844 13.2419 6.45499 13.0709C7.37585 12.901 8.47503 12.827 9.75057 12.7424L9.6447 11.1459ZM14.0264 10.7081C12.5051 10.9557 11.0287 11.0542 9.6447 11.1459L9.75057 12.7424C11.1261 12.6512 12.6759 12.549 14.2835 12.2873L14.0264 10.7081ZM21.267 6.08558C20.644 7.28358 19.9538 8.14542 18.8957 8.85084C17.8144 9.57172 16.2997 10.1622 13.9689 10.7196L14.341 12.2757C16.7445 11.701 18.4717 11.0565 19.7832 10.1821C21.118 9.29231 21.9716 8.1987 22.6865 6.82375L21.267 6.08558ZM22.0357 2.25703C22.0765 3.35212 21.9265 4.81734 21.267 6.08558L22.6865 6.82375C23.5194 5.2221 23.6813 3.45064 23.6346 2.19751L22.0357 2.25703ZM23.9342 0.2C22.7693 0.2 21.9981 1.24604 22.0357 2.25703L23.6346 2.19751C23.6306 2.08944 23.6713 1.97969 23.7401 1.90073C23.8059 1.82529 23.8752 1.8 23.9342 1.8V0.2ZM26.6075 0.2H23.9342V1.8H26.6075V0.2ZM26.6075 1.8H26.711V0.2H26.6075V1.8ZM26.711 1.8H29.3843V0.2H26.711V1.8ZM29.3843 1.8C29.4432 1.8 29.5126 1.82529 29.5784 1.90073C29.6472 1.97969 29.6878 2.08944 29.6838 2.19751L31.2827 2.25703C31.3204 1.24604 30.5492 0.2 29.3843 0.2V1.8ZM29.6838 2.19751C29.6372 3.45064 29.7991 5.2221 30.6319 6.82375L32.0515 6.08558C31.392 4.81734 31.242 3.35212 31.2827 2.25703L29.6838 2.19751ZM30.6319 6.82375C31.3469 8.1987 32.2005 9.29231 33.5352 10.1821C34.8468 11.0565 36.5739 11.701 38.9774 12.2757L39.3495 10.7196C37.0188 10.1622 35.5041 9.57172 34.4227 8.85084C33.3646 8.14542 32.6744 7.28358 32.0515 6.08558L30.6319 6.82375ZM39.035 12.2873C40.6426 12.549 42.1924 12.6512 43.5679 12.7424L43.6738 11.1459C42.2898 11.0542 40.8134 10.9557 39.292 10.7081L39.035 12.2873ZM43.5679 12.7424C44.8434 12.827 45.9426 12.901 46.8635 13.0709C47.79 13.2419 48.4203 13.4917 48.8231 13.8471L49.8817 12.6474C49.1534 12.0048 48.1795 11.6867 47.1538 11.4975C46.1224 11.3072 44.9214 11.2287 43.6738 11.1459L43.5679 12.7424ZM48.8231 13.8471C48.8886 13.9049 49.0135 14.067 49.1685 14.4107C49.3165 14.7388 49.4644 15.1698 49.6095 15.6957C49.8994 16.7467 50.1576 18.1023 50.3879 19.6133C50.8479 22.6324 51.183 26.1809 51.4464 28.972L53.0393 28.8217C52.7769 26.0408 52.4378 22.4449 51.9696 19.3723C51.7358 17.8376 51.4664 16.4105 51.1519 15.2703C50.9948 14.7006 50.8213 14.1838 50.6271 13.753C50.4399 13.3378 50.2017 12.9298 49.8817 12.6474L48.8231 13.8471ZM51.4464 28.972C51.4906 29.4405 51.5328 29.8878 51.5732 30.3067L53.1658 30.1532C53.1256 29.7362 53.0835 29.2905 53.0393 28.8217L51.4464 28.972ZM51.5732 30.3067C51.5814 30.392 51.5352 30.4729 51.4531 30.509L52.0967 31.9738C52.8078 31.6614 53.2407 30.9302 53.1658 30.1532L51.5732 30.3067ZM51.4531 30.509L46.293 32.7763L46.9367 34.2411L52.0967 31.9738L51.4531 30.509ZM46.293 32.7763C46.1903 32.8214 46.0472 32.7752 45.9932 32.6456L44.5165 33.2616C44.9044 34.1915 45.9885 34.6577 46.9367 34.2411L46.293 32.7763ZM45.9932 32.6456C45.6136 31.7357 44.99 30.3317 44.2813 29.1075L42.8966 29.9092C43.5537 31.0441 44.1461 32.3736 44.5165 33.2616L45.9932 32.6456ZM44.2813 29.1075C43.8654 28.3891 43.4501 27.7526 43.0879 27.2307L41.7735 28.143C42.1153 28.6355 42.5063 29.235 42.8966 29.9092L44.2813 29.1075ZM43.0879 27.2307C42.2233 25.9849 40.428 26.3971 40.0443 27.7681L41.5851 28.1993C41.5985 28.1515 41.6181 28.1278 41.6316 28.1157C41.6469 28.1018 41.6642 28.0938 41.6808 28.0906C41.6971 28.0876 41.7103 28.0896 41.7203 28.0936C41.7275 28.0965 41.7477 28.1059 41.7735 28.143L43.0879 27.2307ZM40.0443 27.7681C39.5366 29.5825 38.777 32.4547 38.4756 34.4307L40.0573 34.672C40.3421 32.805 41.0755 30.0204 41.5851 28.1993L40.0443 27.7681ZM38.4756 34.4307C38.1209 36.7557 37.525 40.709 37.2651 42.4347L38.8473 42.673C39.1072 40.947 39.7029 36.9952 40.0573 34.672L38.4756 34.4307ZM37.2651 42.4347C37.2508 42.5299 37.1694 42.6023 37.0677 42.6023V44.2023C37.9556 44.2023 38.7142 43.5564 38.8473 42.673L37.2651 42.4347ZM37.0677 42.6023H26.711V44.2023H37.0677V42.6023ZM26.711 42.6023H26.6075V44.2023H26.711V42.6023Z" fill="#1EA0D9"/>
<circle cx="23.5014" cy="33.467" r="1.44085" fill="#5FCCDC"/>
<circle cx="31.747" cy="29.5206" r="1.02918" fill="#5FCCDC"/>
<circle cx="40.3915" cy="20.6697" r="1.02918" fill="#5FCCDC"/>
<circle cx="26.8065" cy="19.6405" r="1.02918" fill="#5FCCDC"/>
</svg>
