<svg width="467" height="296" viewBox="0 0 467 296" fill="none" xmlns="http://www.w3.org/2000/svg">
<g opacity="0.3">
<path fill-rule="evenodd" clip-rule="evenodd" d="M406.838 92.7943C412.067 101.523 409.264 112.9 400.578 118.205L283.389 189.788L241.567 345.873C238.921 355.745 228.843 361.622 219.056 358.999C209.27 356.377 203.48 346.248 206.125 336.376L248.334 178.853C250.559 170.547 255.883 163.416 263.191 158.952L381.644 86.5968C390.33 81.2911 401.61 84.0659 406.838 92.7943ZM454.115 126.166C459.344 134.894 456.541 146.271 447.855 151.577L324.34 227.024C315.654 232.33 304.374 229.555 299.146 220.827C293.917 212.098 296.72 200.721 305.406 195.416L428.922 119.968C437.608 114.663 448.887 117.437 454.115 126.166Z" fill="#13C077"/>
<path fill-rule="evenodd" clip-rule="evenodd" d="M137.033 20.4949C128.141 25.4397 124.88 36.6938 129.75 45.6316L195.446 166.218L153.624 322.303C150.978 332.175 156.768 342.304 166.555 344.926C176.341 347.549 186.42 341.672 189.065 331.799L231.273 174.276C233.499 165.971 232.454 157.133 228.357 149.613L161.951 27.7246C157.081 18.7868 145.925 15.55 137.033 20.4949ZM79.4044 25.7568C70.5123 30.7017 67.2513 41.9558 72.1207 50.8936L141.364 177.991C146.234 186.929 157.39 190.165 166.282 185.22C175.174 180.276 178.435 169.021 173.565 160.084L104.322 32.9866C99.4523 24.0488 88.2965 20.812 79.4044 25.7568Z" fill="#13C077"/>
</g>
</svg>
