<svg width="42" height="57" viewBox="0 0 42 57" fill="none" xmlns="http://www.w3.org/2000/svg">
<path d="M40.4027 22.6387H2V53.5506C2 54.2761 2.58308 54.8806 3.327 54.8806H39.0757C39.7995 54.8806 40.4027 54.2962 40.4027 53.5506V22.6387Z" stroke="#5ECADC" stroke-width="2.5" stroke-miterlimit="10"/>
<path d="M40.4027 22.6386H2V20.6839C2 17.4799 4.59369 14.8804 7.79057 14.8804H34.592C37.7889 14.8804 40.3826 17.4799 40.3826 20.6839V22.6386H40.4027Z" stroke="#5ECADC" stroke-width="2.5" stroke-miterlimit="10"/>
<path d="M7.72461 9.75797H34.6737C35.2275 9.75797 35.6758 9.30801 35.6737 8.75429L35.6573 4.29699C35.6573 3.02747 34.6319 1.99976 33.3652 1.99976H9.01671C7.75002 1.99976 6.72461 3.02747 6.72461 4.29699V8.75797C6.72461 9.31026 7.17232 9.75797 7.72461 9.75797Z" stroke="#1EA0D9" stroke-width="2.5" stroke-miterlimit="10"/>
<path d="M12.0534 10.6501C12.0534 10.6501 12.355 14.7811 9.29883 14.7811" stroke="#5ECADC" stroke-width="2.5" stroke-miterlimit="10"/>
<path d="M30.4291 10.6501C30.4291 10.6501 30.1275 14.7811 33.1836 14.7811" stroke="#5ECADC" stroke-width="2.5" stroke-miterlimit="10"/>
<path d="M4.14258 49.0366L40.4034 49.0366" stroke="#5ECADC" stroke-width="2.5" stroke-miterlimit="10" stroke-linecap="round"/>
<path d="M27.7162 32.4119H24.3182V29.0063C24.3182 28.3212 23.7754 27.7771 23.0918 27.7771H19.3118C18.6282 27.7771 18.0853 28.3212 18.0853 29.0063V32.4119H14.6874C14.0038 32.4119 13.4609 32.956 13.4609 33.6411V37.4295C13.4609 38.1147 14.0038 38.6588 14.6874 38.6588H18.0853V42.0643C18.0853 42.7495 18.6282 43.2935 19.3118 43.2935H23.0918C23.7754 43.2935 24.3182 42.7495 24.3182 42.0643V38.6588H27.7162C28.3998 38.6588 28.9427 38.1147 28.9427 37.4295V33.6411C28.9427 32.956 28.3998 32.4119 27.7162 32.4119Z" stroke="#1EA0D9" stroke-width="2.5" stroke-miterlimit="10"/>
</svg>
