<svg width="17" height="19" viewBox="0 0 17 19" fill="none" xmlns="http://www.w3.org/2000/svg">
<path d="M5.61607 10.6875H4.09821C3.84777 10.6875 3.64286 10.4871 3.64286 10.2422V8.75781C3.64286 8.51289 3.84777 8.3125 4.09821 8.3125H5.61607C5.86652 8.3125 6.07143 8.51289 6.07143 8.75781V10.2422C6.07143 10.4871 5.86652 10.6875 5.61607 10.6875ZM9.71429 10.2422V8.75781C9.71429 8.51289 9.50938 8.3125 9.25893 8.3125H7.74107C7.49062 8.3125 7.28571 8.51289 7.28571 8.75781V10.2422C7.28571 10.4871 7.49062 10.6875 7.74107 10.6875H9.25893C9.50938 10.6875 9.71429 10.4871 9.71429 10.2422ZM13.3571 10.2422V8.75781C13.3571 8.51289 13.1522 8.3125 12.9018 8.3125H11.3839C11.1335 8.3125 10.9286 8.51289 10.9286 8.75781V10.2422C10.9286 10.4871 11.1335 10.6875 11.3839 10.6875H12.9018C13.1522 10.6875 13.3571 10.4871 13.3571 10.2422ZM9.71429 13.8047V12.3203C9.71429 12.0754 9.50938 11.875 9.25893 11.875H7.74107C7.49062 11.875 7.28571 12.0754 7.28571 12.3203V13.8047C7.28571 14.0496 7.49062 14.25 7.74107 14.25H9.25893C9.50938 14.25 9.71429 14.0496 9.71429 13.8047ZM6.07143 13.8047V12.3203C6.07143 12.0754 5.86652 11.875 5.61607 11.875H4.09821C3.84777 11.875 3.64286 12.0754 3.64286 12.3203V13.8047C3.64286 14.0496 3.84777 14.25 4.09821 14.25H5.61607C5.86652 14.25 6.07143 14.0496 6.07143 13.8047ZM13.3571 13.8047V12.3203C13.3571 12.0754 13.1522 11.875 12.9018 11.875H11.3839C11.1335 11.875 10.9286 12.0754 10.9286 12.3203V13.8047C10.9286 14.0496 11.1335 14.25 11.3839 14.25H12.9018C13.1522 14.25 13.3571 14.0496 13.3571 13.8047ZM17 4.15625V17.2188C17 18.2021 16.1842 19 15.1786 19H1.82143C0.815848 19 0 18.2021 0 17.2188V4.15625C0 3.17285 0.815848 2.375 1.82143 2.375H3.64286V0.445312C3.64286 0.200391 3.84777 0 4.09821 0H5.61607C5.86652 0 6.07143 0.200391 6.07143 0.445312V2.375H10.9286V0.445312C10.9286 0.200391 11.1335 0 11.3839 0H12.9018C13.1522 0 13.3571 0.200391 13.3571 0.445312V2.375H15.1786C16.1842 2.375 17 3.17285 17 4.15625ZM15.1786 16.9961V5.9375H1.82143V16.9961C1.82143 17.1186 1.92388 17.2188 2.04911 17.2188H14.9509C15.0761 17.2188 15.1786 17.1186 15.1786 16.9961Z" fill="#ACACAC"/>
</svg>
