<svg width="44" height="60" viewBox="0 0 44 60" fill="none" xmlns="http://www.w3.org/2000/svg">
<path fill-rule="evenodd" clip-rule="evenodd" d="M4.39566 7.75684C3.65216 7.75684 3 8.40899 3 9.15249V33.0623C3 36.8573 6.04174 39.9184 9.93877 39.9184H19.8667C23.6617 39.9184 26.7228 36.8766 26.7228 32.9796V9.15249C26.7228 8.40899 26.0706 7.75684 25.3271 7.75684H4.39566ZM0 9.15249C0 6.75214 1.9953 4.75684 4.39566 4.75684H25.3271C27.7275 4.75684 29.7228 6.75214 29.7228 9.15249V32.9796C29.7228 38.5142 25.3379 42.9184 19.8667 42.9184H9.93877C4.40423 42.9184 0 38.5335 0 33.0623V9.15249Z" fill="#53B487"/>
<path fill-rule="evenodd" clip-rule="evenodd" d="M38.8113 26.4543C37.8196 26.4543 37.002 27.272 37.002 28.2637V31.314H40.6206V28.2637C40.6206 27.272 39.803 26.4543 38.8113 26.4543ZM34.002 28.2637C34.002 25.6151 36.1627 23.4543 38.8113 23.4543C41.4598 23.4543 43.6206 25.6151 43.6206 28.2637V34.314H34.002V28.2637Z" fill="#53B487"/>
<path fill-rule="evenodd" clip-rule="evenodd" d="M38.8112 31.314C39.6396 31.314 40.3112 31.9855 40.3112 32.814V45.5549C40.3112 53.2739 33.3612 59.2993 25.8594 59.2993C18.3937 59.2993 12.8223 53.8706 12.8223 47.9779C12.8223 47.1494 13.4938 46.4779 14.3223 46.4779C15.1507 46.4779 15.8223 47.1494 15.8223 47.9779C15.8223 51.9346 19.7569 56.2993 25.8594 56.2993C31.9257 56.2993 37.3112 51.404 37.3112 45.5549V32.814C37.3112 31.9855 37.9828 31.314 38.8112 31.314Z" fill="#53B487"/>
<path fill-rule="evenodd" clip-rule="evenodd" d="M14.6397 16.0697C16.653 15.0067 18.9864 13.7747 22.1819 13.7747C24.1135 13.7747 25.837 14.4137 27.052 14.9987C27.6677 15.2951 28.1758 15.5893 28.5295 15.7982C28.5848 15.8309 28.6335 15.8598 28.6769 15.8855C28.771 15.9414 28.8398 15.9822 28.8966 16.0146C29.4741 16.2232 29.8869 16.7763 29.8869 17.4257C29.8869 18.2541 29.2153 18.9257 28.3869 18.9257C28.1455 18.9257 27.9595 18.8677 27.8935 18.8463C27.8057 18.8178 27.7333 18.7865 27.6874 18.7655C27.5956 18.7234 27.5089 18.676 27.4467 18.6411C27.3526 18.5882 27.2329 18.5172 27.1142 18.4467C27.0769 18.4246 27.0396 18.4025 27.0033 18.381C26.6744 18.1867 26.2518 17.943 25.7506 17.7017C24.7318 17.2112 23.4769 16.7747 22.1819 16.7747C19.7812 16.7747 18.0329 17.6707 15.9843 18.7522C15.9511 18.7698 15.9178 18.7874 15.8844 18.805C13.889 19.8589 11.583 21.0768 8.44823 21.0768C5.54058 21.0768 3.64984 20.6652 2.43037 20.1875C1.81879 19.9479 1.37674 19.6918 1.0633 19.4642C0.906912 19.3507 0.784053 19.2453 0.689314 19.1543C0.642009 19.1089 0.601929 19.0673 0.568358 19.0302C0.551581 19.0118 0.536454 18.9944 0.522884 18.9784L0.503698 18.9553L0.494967 18.9446L0.490813 18.9394L0.488789 18.9368C0.487791 18.9356 0.4868 18.9343 1.66412 18.0048L0.4868 18.9343C-0.0265302 18.2841 0.0844395 17.3409 0.734658 16.8275C1.3583 16.3352 2.25149 16.4171 2.77639 16.9984C2.7858 17.0063 2.80203 17.0193 2.82598 17.0367C2.91845 17.1038 3.13309 17.2408 3.52465 17.3942C4.31146 17.7024 5.81277 18.0768 8.44823 18.0768C10.8041 18.0768 12.5275 17.1848 14.5838 16.0992L14.6397 16.0697Z" fill="#53B487"/>
<path d="M1.66406 18.0048C1.99499 18.253 3.64966 19.494 8.61364 19.494C14.074 19.494 16.7215 15.1919 22.3473 15.1919C25.1602 15.1919 27.5595 16.7638 28.3041 17.1775C28.3868 17.2602 28.4696 17.343 28.4696 17.5084V32.9795C28.4696 37.6125 24.7466 41.4183 20.0308 41.4183H10.1028C5.46978 41.4183 1.66406 37.6953 1.66406 32.9795V18.0048Z" fill="#53B487"/>
<path fill-rule="evenodd" clip-rule="evenodd" d="M15.991 18.7366C13.9978 19.7842 11.6961 20.994 8.61364 20.994C6.13516 20.994 4.38556 20.6988 3.16406 20.3384V32.9795C3.16406 36.8573 6.28861 39.9183 10.1028 39.9183H20.0308C23.9086 39.9183 26.9696 36.7937 26.9696 32.9795V18.1428C25.937 17.5589 24.247 16.6919 22.3473 16.6919C19.9444 16.6919 18.1739 17.59 16.1159 18.6709C16.0744 18.6927 16.0328 18.7146 15.991 18.7366ZM14.7571 15.996C16.7863 14.9301 19.1435 13.6919 22.3473 13.6919C25.3298 13.6919 27.8928 15.1982 28.8062 15.735C28.8992 15.7897 28.9751 15.8343 29.0326 15.8663L29.2162 15.9683L29.3648 16.1168C29.3684 16.1205 29.3727 16.1247 29.3774 16.1294C29.5002 16.2506 29.9696 16.7141 29.9696 17.5084V32.9795C29.9696 38.4314 25.5846 42.9183 20.0308 42.9183H10.1028C4.65096 42.9183 0.164062 38.5333 0.164062 32.9795V15.0048L2.56406 16.8048C2.5652 16.8057 2.56708 16.8072 2.56972 16.8093C2.6773 16.8951 4.05513 17.994 8.61364 17.994C10.9269 17.994 12.6476 17.104 14.7209 16.015L14.7571 15.996Z" fill="#53B487"/>
<path fill-rule="evenodd" clip-rule="evenodd" d="M14.9031 3.78564C14.1449 3.78564 13.0938 4.59685 13.0938 6.25683C13.0938 7.08526 12.4222 7.75683 11.5938 7.75683C10.7653 7.75683 10.0938 7.08526 10.0938 6.25683C10.0938 3.44923 12.021 0.785645 14.9031 0.785645C17.7416 0.785645 19.7951 3.39832 19.7951 6.25683C19.7951 7.08526 19.1236 7.75683 18.2951 7.75683C17.4667 7.75683 16.7951 7.08526 16.7951 6.25683C16.7951 4.64775 15.7048 3.78564 14.9031 3.78564Z" fill="#53B487"/>
<path fill-rule="evenodd" clip-rule="evenodd" d="M8.60352 39.9182H21.0351V46.258C21.0351 46.8108 20.8776 47.3948 20.5445 47.8804C20.2057 48.3741 19.5849 48.8835 18.7078 48.8835H10.9308C10.0537 48.8835 9.43286 48.3741 9.09414 47.8804C8.76099 47.3948 8.60352 46.8108 8.60352 46.258V39.9182ZM11.6035 42.9182V45.8835H18.0351V42.9182H11.6035Z" fill="#53B487"/>
<path fill-rule="evenodd" clip-rule="evenodd" d="M38.8125 15.2639C39.6409 15.2639 40.3125 15.9355 40.3125 16.7639V24.9545C40.3125 25.7829 39.6409 26.4545 38.8125 26.4545C37.9841 26.4545 37.3125 25.7829 37.3125 24.9545V16.7639C37.3125 15.9355 37.9841 15.2639 38.8125 15.2639Z" fill="#53B487"/>
<path fill-rule="evenodd" clip-rule="evenodd" d="M3.13086 23.8789C3.13086 23.0505 3.80243 22.3789 4.63086 22.3789H11.8286C12.6571 22.3789 13.3286 23.0505 13.3286 23.8789C13.3286 24.7073 12.6571 25.3789 11.8286 25.3789H4.63086C3.80243 25.3789 3.13086 24.7073 3.13086 23.8789Z" fill="white"/>
<path fill-rule="evenodd" clip-rule="evenodd" d="M3.13086 33.7241C3.13086 32.8957 3.80243 32.2241 4.63086 32.2241H11.8286C12.6571 32.2241 13.3286 32.8957 13.3286 33.7241C13.3286 34.5525 12.6571 35.2241 11.8286 35.2241H4.63086C3.80243 35.2241 3.13086 34.5525 3.13086 33.7241Z" fill="white"/>
<path fill-rule="evenodd" clip-rule="evenodd" d="M3.13086 28.7603C3.13086 27.9318 3.80243 27.2603 4.63086 27.2603H9.26391C10.0923 27.2603 10.7639 27.9318 10.7639 28.7603C10.7639 29.5887 10.0923 30.2603 9.26391 30.2603H4.63086C3.80243 30.2603 3.13086 29.5887 3.13086 28.7603Z" fill="white"/>
</svg>
