<svg width="14" height="15" viewBox="0 0 14 15" fill="none" xmlns="http://www.w3.org/2000/svg">
<path d="M7 0.751953C3.25391 0.751953 0.21875 3.78711 0.21875 7.5332C0.21875 11.2793 3.25391 14.3145 7 14.3145C10.7461 14.3145 13.7812 11.2793 13.7812 7.5332C13.7812 3.78711 10.7461 0.751953 7 0.751953ZM7 13.002C3.97852 13.002 1.53125 10.5547 1.53125 7.5332C1.53125 4.51172 3.97852 2.06445 7 2.06445C10.0215 2.06445 12.4688 4.51172 12.4688 7.5332C12.4688 10.5547 10.0215 13.002 7 13.002ZM8.68984 10.1473L6.36836 8.46016C6.28359 8.39727 6.23438 8.29883 6.23438 8.19492V3.70508C6.23438 3.52461 6.38203 3.37695 6.5625 3.37695H7.4375C7.61797 3.37695 7.76562 3.52461 7.76562 3.70508V7.57969L9.59219 8.90859C9.73984 9.01523 9.76992 9.22031 9.66328 9.36797L9.14922 10.0762C9.04258 10.2211 8.8375 10.2539 8.68984 10.1473Z" fill="white"/>
</svg>
