<svg width="54" height="50" viewBox="0 0 54 50" fill="none" xmlns="http://www.w3.org/2000/svg">
<path d="M13.0605 31.2951C13.0605 31.2951 17.5526 25.9823 21.8358 25.9823C26.1189 25.9823 28.365 28.6518 31.9691 28.6518C35.5732 28.6518 37.8193 28.5471 39.0468 31.3213C39.2557 31.7662 39.4385 32.8392 39.2818 33.3103" stroke="#5ECADC" stroke-width="2.5" stroke-miterlimit="10" stroke-linecap="round"/>
<path d="M26.0399 35.2207C26.0399 35.2207 28.4165 35.2207 31.9684 35.2207C35.5203 35.2207 39.5684 33.7813 44.4522 29.9079C49.336 26.0345 51.3732 29.0704 51.7649 29.5938C52.1567 30.0911 53.3319 31.5305 49.6494 35.2207C45.967 38.9109 37.035 46.2389 27.2935 46.2389C17.5519 46.2389 17.1079 45.3491 13.0337 45.3491" stroke="#5ECADC" stroke-width="2.5" stroke-miterlimit="10" stroke-linecap="round"/>
<path d="M11.7367 48.4112H3.32344C2.5987 48.4112 2 47.9139 2 47.312V29.6986C2 29.0966 2.5987 28.5994 3.32344 28.5994H11.7367C12.4614 28.5994 13.0601 29.0966 13.0601 29.6986V47.312C13.0601 47.9139 12.4614 48.4112 11.7367 48.4112Z" stroke="#1EA0D9" stroke-width="2.5" stroke-miterlimit="10" stroke-linecap="round"/>
<path d="M7.53041 44.7991C8.65313 44.7991 9.56326 43.887 9.56326 42.762C9.56326 41.6369 8.65313 40.7249 7.53041 40.7249C6.4077 40.7249 5.49756 41.6369 5.49756 42.762C5.49756 43.887 6.4077 44.7991 7.53041 44.7991Z" fill="#1EA0D9"/>
<path d="M36.5393 6.56301C33.6926 0.988481 29.2527 2.08768 28.7304 2.08768C28.2081 2.08768 23.3765 3.52711 23.3765 9.4157C23.3765 17.4242 32.883 23.5221 36.5393 23.5221" stroke="#5ECADC" stroke-width="2.5" stroke-miterlimit="10" stroke-linecap="round"/>
<path d="M36.5393 6.56301C33.6926 0.988481 29.2527 2.08768 28.7304 2.08768C28.2081 2.08768 23.3765 3.52711 23.3765 9.4157C23.3765 17.4242 32.883 23.5221 36.5393 23.5221" stroke="#1EA0D9" stroke-width="2.5" stroke-miterlimit="10" stroke-linecap="round"/>
<path d="M36.542 6.56301C39.3887 0.988481 43.8286 2.08768 44.3509 2.08768C44.8732 2.08768 49.7049 3.50094 49.7049 9.38953C49.7049 17.398 40.1983 23.496 36.542 23.496" stroke="#1EA0D9" stroke-width="2.5" stroke-miterlimit="10" stroke-linecap="round"/>
</svg>
