<svg width="53" height="50" viewBox="0 0 53 50" fill="none" xmlns="http://www.w3.org/2000/svg">
<path d="M12.4434 31.4926C12.4434 31.4926 16.9354 26.1798 21.2186 26.1798C25.5018 26.1798 27.7478 28.8493 31.3519 28.8493C34.956 28.8493 37.2021 28.7446 38.4296 31.5188C38.6385 31.9637 38.8213 33.0367 38.6646 33.5078" stroke="#5ECADC" stroke-width="2.5" stroke-miterlimit="10" stroke-linecap="round"/>
<path d="M25.4227 35.4183C25.4227 35.4183 27.7993 35.4183 31.3512 35.4183C34.9031 35.4183 38.9512 33.9788 43.835 30.1054C48.7189 26.2321 50.756 29.268 51.1477 29.7914C51.5395 30.2886 52.7147 31.7281 49.0323 35.4183C45.3498 39.1084 36.4178 46.4365 26.6763 46.4365C16.9347 46.4365 16.4907 45.5466 12.4165 45.5466" stroke="#5ECADC" stroke-width="2.5" stroke-miterlimit="10" stroke-linecap="round"/>
<path d="M11.1195 48.6087H2.70625C1.98151 48.6087 1.38281 48.1114 1.38281 47.5095V29.8961C1.38281 29.2941 1.98151 28.7969 2.70625 28.7969H11.1195C11.8443 28.7969 12.443 29.2941 12.443 29.8961V47.5095C12.443 48.1114 11.8443 48.6087 11.1195 48.6087Z" stroke="#1EA0D9" stroke-width="2.5" stroke-miterlimit="10" stroke-linecap="round"/>
<path d="M6.91322 44.9966C8.03594 44.9966 8.94608 44.0845 8.94608 42.9595C8.94608 41.8344 8.03594 40.9224 6.91322 40.9224C5.79051 40.9224 4.88037 41.8344 4.88037 42.9595C4.88037 44.0845 5.79051 44.9966 6.91322 44.9966Z" fill="#1EA0D9"/>
<path d="M35.9221 6.76052C33.0754 1.18599 28.6356 2.28519 28.1132 2.28519C27.5909 2.28519 22.7593 3.72462 22.7593 9.61321C22.7593 17.6217 32.2658 23.7196 35.9221 23.7196" stroke="#5ECADC" stroke-width="2.5" stroke-miterlimit="10" stroke-linecap="round"/>
<path d="M35.9221 6.76052C33.0754 1.18599 28.6356 2.28519 28.1132 2.28519C27.5909 2.28519 22.7593 3.72462 22.7593 9.61321C22.7593 17.6217 32.2658 23.7196 35.9221 23.7196" stroke="#1EA0D9" stroke-width="2.5" stroke-miterlimit="10" stroke-linecap="round"/>
<path d="M35.9248 6.76052C38.7715 1.18599 43.2114 2.28519 43.7337 2.28519C44.2561 2.28519 49.0877 3.69845 49.0877 9.58704C49.0877 17.5955 39.5812 23.6935 35.9248 23.6935" stroke="#1EA0D9" stroke-width="2.5" stroke-miterlimit="10" stroke-linecap="round"/>
</svg>
