<svg width="42" height="61" viewBox="0 0 42 61" fill="none" xmlns="http://www.w3.org/2000/svg">
<circle cx="37.5" cy="49.5" r="3.25" stroke="#1EA0D9" stroke-width="2.5"/>
<path d="M20.5 26.5C17.6667 30.6667 12 40.6 12 47C12 55 16 59.5 19 59.5C22 59.5 24 58 24 49C24 43 24.5 34 29.5 34C34.5 34 37 40.5 37 45.5" stroke="#5ECADC" stroke-width="2.5"/>
<path d="M18.5 26.5C19.8333 26.5 22.5 26.5001 27 26.5001C31.5 26.5 37.5 17.0001 37.5 11.5001C37.5 7.00007 34 5.00004 32 4.50007C31.5323 4.38315 31.01 4.27947 30.5308 4.19727" stroke="#1EA0D9" stroke-width="2.5"/>
<circle cx="29" cy="4" r="2.75" stroke="#5ECADC" stroke-width="2.5"/>
<path d="M21 26.5C19.6667 26.5 17 26.5001 12.5 26.5001C8 26.5 2 17.0001 2 11.5001C2 7.00007 5.5 5.00004 7.5 4.50007C7.96771 4.38315 8.49002 4.27947 8.96919 4.19727" stroke="#1EA0D9" stroke-width="2.5"/>
<circle r="2.75" transform="matrix(-1 0 0 1 10.5 4)" stroke="#5ECADC" stroke-width="2.5"/>
</svg>
