<svg width="120" height="49" viewBox="0 0 120 49" fill="none" xmlns="http://www.w3.org/2000/svg">
<path d="M3.39879 6.81487L9.63397 0.135986H14.0464L7.3833 6.8607L14.4287 16.5722H10.0396L4.99704 9.35117L3.39879 11.0033V16.5722H0V0.135986H3.39879V6.81487Z" fill="white"/>
<path d="M27.0135 4.39185V16.5714H23.8392V6.9505H20.4404V10.7086C20.4404 15.372 19.0445 16.8431 16.816 16.8431C16.2536 16.8431 15.3534 16.7525 14.8799 16.5714V14.195C14.9477 14.2408 15.3534 14.2855 15.8257 14.2855C16.7716 14.2855 17.2661 13.8105 17.2661 10.0971V4.39185H27.0135Z" fill="white"/>
<path d="M32.888 16.5715H29.7148V4.39185H32.888V16.5715ZM32.888 2.96554H29.7148V0H32.888V2.96554Z" fill="white"/>
<path d="M38.7651 8.94243H43.2887V4.39185H46.4629V16.5714H43.2887V11.5011H38.7651V16.5714H35.5908V4.39185H38.7651V8.94243Z" fill="white"/>
<path d="M52.3402 16.5715H49.167V4.39185H52.3402V16.5715ZM52.3402 2.96554H49.167V0H52.3402V2.96554Z" fill="white"/>
<path d="M58.2132 9.01061L62.2199 4.39185H66.1144L61.8598 9.10116L66.2278 16.5714H62.4233L59.5414 11.3424L58.2132 12.7228V16.5714H55.04V4.39185H58.2132V9.01061Z" fill="white"/>
<path d="M72.4637 11.2967C71.2711 11.5013 70.303 11.8176 70.303 13.131C70.303 14.2634 71.1589 14.6021 71.789 14.6021C73.1839 14.6021 74.6254 13.6743 74.6254 12.2032V10.6406C74.3098 10.8898 73.7696 11.0933 72.4637 11.2967ZM67.5122 8.33117C67.8723 4.59658 70.4386 4.07568 72.9138 4.07568C74.6254 4.07568 77.7319 4.59658 77.7319 7.60683V14.1952C77.7319 15.6215 78.0465 15.9378 78.4288 16.0742V16.5716H75.0078C74.8277 15.9837 74.7822 15.8026 74.7155 15.1229C73.9953 15.8708 72.9594 16.8891 70.7987 16.8891C68.9749 16.8891 67.1299 15.8473 67.1299 13.3345C67.1299 10.5277 69.7407 9.37296 72.7793 9.12369C74.1297 9.01079 74.6254 8.64862 74.6254 8.05954C74.6254 6.70141 73.3417 6.63322 72.5315 6.63322C70.9332 6.63322 70.6632 7.62918 70.5731 8.33117H67.5122Z" fill="white"/>
<path d="M0 22.1726V27.7281H8.06128V48.9999H13.4673V32.6889C13.4673 29.255 14.2842 27.7281 16.6927 27.7281H22.0988V22.1726H0Z" fill="white"/>
<path d="M99.3242 22.136V27.6915H105.964V48.9633H111.37V32.6512C111.37 29.2173 112.186 27.6915 114.594 27.6915H120V22.136H99.3242Z" fill="white"/>
<path d="M41.541 48.9999V22.1726H50.836C54.7005 22.1726 58.8973 23.6682 58.8973 28.4916C58.8973 33.316 54.4515 37.4452 54.4515 37.4452L61.079 48.9999H55.3551C55.3551 48.9999 50.6359 40.3168 48.6398 36.5364C50.8593 34.8038 52.6199 32.8175 53.349 30.7808C53.848 29.3903 52.8677 27.7281 51.2128 27.7281H46.9471V48.9999H41.541Z" fill="white"/>
<path d="M78.4347 22.1726V27.7281C78.4347 27.7281 73.9767 27.7214 71.4871 27.7214C68.9975 27.7214 65.4409 29.9704 65.4409 35.5863C65.4409 41.2021 67.7171 43.8491 69.7088 43.8491H73.8822V39.5567H71.985C68.9975 39.5567 69.2109 35.0497 69.2109 35.0497H78.4347V48.9999H71.1314C65.6543 48.9999 60.3193 46.1797 60.3193 35.9641C60.3193 24.1042 68.5707 22.1726 71.5582 22.1726H78.4347Z" fill="white"/>
<path d="M81.4463 27.7214C81.4463 24.2115 83.2957 22.1726 86.2833 22.1726H96.5974V27.7214H89.5909C87.8126 27.7214 86.8523 28.8258 86.8523 30.6858V33.5351H96.5974V38.3282H86.8523V41.2737C86.8523 42.5256 87.8126 43.8491 89.3064 43.8491H96.5974V48.9999H86.2833C83.5447 48.9999 81.4463 47.2472 81.4463 43.8491V27.7214Z" fill="white"/>
<path fill-rule="evenodd" clip-rule="evenodd" d="M38.1989 22.0288V48.7085H32.8231L32.7947 40.1186H26.2812L23.7498 48.7085H17.9189C17.9189 48.7085 23.4654 31.7279 24.6884 27.5468C25.9399 23.3656 28.2154 22.0288 32.2258 22.0288H38.1989ZM27.7321 35.1405H32.7665L32.795 27.5746H31.2875C31.2875 27.5746 30.036 27.3471 29.4387 29.4234C28.8129 31.4998 27.7321 35.1405 27.7321 35.1405Z" fill="white"/>
</svg>
