<svg width="42" height="57" viewBox="0 0 42 57" fill="none" xmlns="http://www.w3.org/2000/svg">
<path d="M40.1722 22.6155H1.76953V53.5274C1.76953 54.2529 2.35261 54.8574 3.09654 54.8574H38.8452C39.5691 54.8574 40.1722 54.273 40.1722 53.5274V22.6155Z" stroke="#5ECADC" stroke-width="2.5" stroke-miterlimit="10"/>
<path d="M40.1722 22.6154H1.76953V20.6607C1.76953 17.4567 4.36322 14.8572 7.5601 14.8572H34.3616C37.5584 14.8572 40.1521 17.4567 40.1521 20.6607V22.6154H40.1722Z" stroke="#5ECADC" stroke-width="2.5" stroke-miterlimit="10"/>
<path d="M7.49414 9.73478H34.4433C34.997 9.73478 35.4453 9.28482 35.4433 8.7311L35.4269 4.2738C35.4269 3.00427 34.4014 1.97656 33.1348 1.97656H8.78624C7.51955 1.97656 6.49414 3.00427 6.49414 4.2738V8.73478C6.49414 9.28706 6.94186 9.73478 7.49414 9.73478Z" stroke="#1EA0D9" stroke-width="2.5" stroke-miterlimit="10"/>
<path d="M11.8229 10.627C11.8229 10.627 12.1245 14.758 9.06836 14.758" stroke="#5ECADC" stroke-width="2.5" stroke-miterlimit="10"/>
<path d="M30.1986 10.627C30.1986 10.627 29.897 14.758 32.9532 14.758" stroke="#5ECADC" stroke-width="2.5" stroke-miterlimit="10"/>
<path d="M3.91211 49.0134L40.1729 49.0134" stroke="#5ECADC" stroke-width="2.5" stroke-miterlimit="10" stroke-linecap="round"/>
<path d="M27.4857 32.3887H24.0878V28.9831C24.0878 28.298 23.5449 27.7539 22.8613 27.7539H19.0814C18.3977 27.7539 17.8549 28.298 17.8549 28.9831V32.3887H14.4569C13.7733 32.3887 13.2305 32.9328 13.2305 33.6179V37.4063C13.2305 38.0915 13.7733 38.6356 14.4569 38.6356H17.8549V42.0411C17.8549 42.7263 18.3977 43.2703 19.0814 43.2703H22.8613C23.5449 43.2703 24.0878 42.7263 24.0878 42.0411V38.6356H27.4857C28.1693 38.6356 28.7122 38.0915 28.7122 37.4063V33.6179C28.7122 32.9328 28.1693 32.3887 27.4857 32.3887Z" stroke="#1EA0D9" stroke-width="2.5" stroke-miterlimit="10"/>
</svg>
