<svg width="57" height="57" viewBox="0 0 57 57" fill="none" xmlns="http://www.w3.org/2000/svg">
<path d="M48.035 4.5141L45.2111 1.71142C44.8499 1.34872 44.2589 1.34872 43.8977 1.71142L41.1394 4.48113L45.2439 8.60272L48.0022 5.83301C48.3962 5.47031 48.3962 4.8768 48.035 4.5141Z" stroke="#1EA0D9" stroke-width="2.5" stroke-miterlimit="10" stroke-linecap="round"/>
<path d="M47.179 46.7511H10.0411C5.5097 46.7511 1.83203 50.444 1.83203 54.9943C1.83203 55.1262 1.93054 55.2251 2.06189 55.2251H54.9612C55.0925 55.2251 55.191 55.1262 55.191 54.9943V54.7635C55.191 50.3451 51.6119 46.7511 47.179 46.7511Z" stroke="#5ECADC" stroke-width="2.5" stroke-miterlimit="10"/>
<path d="M46.8843 40.6509V46.7508" stroke="#5ECADC" stroke-width="2.5" stroke-miterlimit="10"/>
<path d="M28.4959 35.4741H4.06567" stroke="#5ECADC" stroke-width="2.5" stroke-miterlimit="10" stroke-linecap="round"/>
<path d="M36.4413 19.9111C39.0682 22.0873 40.7757 25.4175 40.7757 29.1105C40.7757 35.705 35.4562 41.0136 28.9218 41.0136C24.7188 41.0136 21.0083 38.8044 18.9067 35.4742" stroke="#5ECADC" stroke-width="2.5" stroke-miterlimit="10"/>
<path d="M42.5162 40.8816C39.2325 44.7065 34.4044 46.7003 28.9535 46.7003C21.2698 46.7003 14.6381 42.2995 12.0769 35.4741" stroke="#5ECADC" stroke-width="2.5" stroke-miterlimit="10"/>
<path d="M40.7739 15.5587C44.5173 18.856 46.8815 23.703 46.8815 29.1105C46.8815 30.0337 46.8158 30.957 46.6845 31.8472" stroke="#5ECADC" stroke-width="2.5" stroke-miterlimit="10"/>
<path d="M28.693 26.3409L23.4064 21.0322C23.0452 20.6695 23.0452 20.076 23.4064 19.7133L39.2335 3.82049C39.5947 3.45779 40.1858 3.45779 40.547 3.82049L45.8336 9.1291C46.1948 9.4918 46.1948 10.0853 45.8336 10.448L30.0065 26.3409C29.6453 26.7036 29.0542 26.7036 28.693 26.3409Z" stroke="#1EA0D9" stroke-width="2.5" stroke-miterlimit="10" stroke-linecap="round"/>
<path d="M44.4529 41.2774C47.1913 41.2774 49.4112 39.0483 49.4112 36.2985C49.4112 33.5488 47.1913 31.3196 44.4529 31.3196C41.7145 31.3196 39.4946 33.5488 39.4946 36.2985C39.4946 39.0483 41.7145 41.2774 44.4529 41.2774Z" stroke="#1EA0D9" stroke-width="2.5" stroke-miterlimit="10"/>
</svg>
