<svg width="56" height="53" viewBox="0 0 56 53" fill="none" xmlns="http://www.w3.org/2000/svg">
<path d="M34.4167 41.686C34.4167 41.686 34.7603 46.4126 39.2268 47.7862C42.7434 48.8769 42.7232 51.1392 42.7232 51.1392H28.1313H13.5393C13.5393 51.1392 13.4989 48.8567 17.0357 47.7862C21.5022 46.4126 21.8458 41.686 21.8458 41.686" stroke="#1EA0D9" stroke-width="2.5" stroke-miterlimit="10" stroke-linecap="round"/>
<path d="M46.7122 31.38H9.22973C8.03079 31.38 7.06323 30.4442 7.06323 29.2847V8.86012C7.06323 7.70056 8.03079 6.76477 9.22973 6.76477H46.7332C47.9322 6.76477 48.8997 7.70056 48.8997 8.86012V29.2643C48.8997 30.4239 47.9322 31.38 46.7122 31.38Z" stroke="#5ECADC" stroke-width="2.5" stroke-miterlimit="10" stroke-linecap="round"/>
<path d="M51.3337 41.6859H4.60715C3.17221 41.6859 2 40.5143 2 39.0802V4.37815C2 2.94401 3.17221 1.77246 4.60715 1.77246H51.3337C52.7686 1.77246 53.9408 2.94401 53.9408 4.37815V39.0802C53.9408 40.5143 52.7686 41.6859 51.3337 41.6859Z" stroke="#5ECADC" stroke-width="2.5" stroke-miterlimit="10" stroke-linecap="round"/>
<path d="M28.1309 25.354C31.6023 25.354 34.4164 22.5415 34.4164 19.0721C34.4164 15.6027 31.6023 12.7902 28.1309 12.7902C24.6596 12.7902 21.8455 15.6027 21.8455 19.0721C21.8455 22.5415 24.6596 25.354 28.1309 25.354Z" stroke="#1EA0D9" stroke-width="2.5" stroke-miterlimit="10" stroke-linecap="round"/>
<path d="M28.1332 38.4944C29.0708 38.4944 29.8309 37.7347 29.8309 36.7977C29.8309 35.8606 29.0708 35.101 28.1332 35.101C27.1956 35.101 26.4355 35.8606 26.4355 36.7977C26.4355 37.7347 27.1956 38.4944 28.1332 38.4944Z" fill="#1EA0D9"/>
</svg>
