<svg width="49" height="63" viewBox="0 0 49 63" fill="none" xmlns="http://www.w3.org/2000/svg">
<path d="M15.8918 29.0917V33.9083L20.0631 36.3166L24.2344 33.9083V29.0917L20.0631 26.6833L15.8918 29.0917Z" fill="#53B487"/>
<path d="M42.1279 38.229C40.6034 38.229 39.2099 38.798 38.1461 39.7335L34.5754 37.6715V25.3875L39.5692 22.5255L37.7355 19.3258L32.8505 22.1254L22.0453 15.8869V11.7886C24.4759 11.0072 26.2401 8.72559 26.2401 6.03878C26.2401 2.70894 23.5311 0 20.2014 0C16.8716 0 14.1626 2.70894 14.1626 6.03878C14.1626 8.72559 15.9268 11.0072 18.3575 11.7886V15.7273L7.46527 22.0158L2.70739 19.2682L0.863122 22.4617L5.55069 25.1687V37.771L0.833496 40.4744L2.6672 43.6741L7.4134 40.9541L18.3575 47.2726V51.2113C15.9268 51.9926 14.1626 54.2743 14.1626 56.9611C14.1626 60.2909 16.8716 62.9999 20.2014 62.9999C23.5311 62.9999 26.2401 60.2909 26.2401 56.9611C26.2401 54.2743 24.4759 51.9926 22.0453 51.2113V47.1129L32.7993 40.9041L36.2483 42.8959C36.1455 43.337 36.0893 43.7958 36.0893 44.2678C36.0893 47.5976 38.7983 50.3066 42.1281 50.3066C45.4578 50.3066 48.1668 47.5976 48.1668 44.2678C48.1668 40.938 45.4578 38.229 42.1279 38.229ZM27.9221 36.0374L20.0631 40.5748L12.204 36.0374V26.9626L20.0631 22.4252L27.9221 26.9626V36.0374Z" fill="#53B487"/>
</svg>
