<svg width="64" height="65" viewBox="0 0 64 65" fill="none" xmlns="http://www.w3.org/2000/svg">
<path d="M32.2011 49.534C41.2817 49.534 48.6431 41.9973 48.6431 32.7004C48.6431 23.4036 41.2817 15.8669 32.2011 15.8669C23.1204 15.8669 15.759 23.4036 15.759 32.7004C15.759 41.9973 23.1204 49.534 32.2011 49.534Z" fill="#53B487"/>
<path fill-rule="evenodd" clip-rule="evenodd" d="M32.2011 17.3669C23.9819 17.3669 17.259 24.1985 17.259 32.7004C17.259 41.2024 23.9819 48.034 32.2011 48.034C40.4202 48.034 47.1431 41.2024 47.1431 32.7004C47.1431 24.1985 40.4202 17.3669 32.2011 17.3669ZM14.259 32.7004C14.259 22.6086 22.2589 14.3669 32.2011 14.3669C42.1432 14.3669 50.1431 22.6086 50.1431 32.7004C50.1431 42.7923 42.1432 51.034 32.2011 51.034C22.2589 51.034 14.259 42.7923 14.259 32.7004Z" fill="#53B487"/>
<path fill-rule="evenodd" clip-rule="evenodd" d="M32.0403 10.7742C20.0196 10.7742 10.2749 20.5189 10.2749 32.5396C10.2749 44.5603 20.0196 54.305 32.0403 54.305C44.061 54.305 53.8057 44.5603 53.8057 32.5396C53.8057 20.5189 44.061 10.7742 32.0403 10.7742ZM7.2749 32.5396C7.2749 18.862 18.3628 7.77417 32.0403 7.77417C45.7179 7.77417 56.8057 18.862 56.8057 32.5396C56.8057 46.2171 45.7179 57.305 32.0403 57.305C18.3628 57.305 7.2749 46.2171 7.2749 32.5396Z" fill="#53B487"/>
<path fill-rule="evenodd" clip-rule="evenodd" d="M32.2012 3.427C33.0296 3.427 33.7012 4.09857 33.7012 4.927V19.4176C33.7012 20.246 33.0296 20.9176 32.2012 20.9176C31.3727 20.9176 30.7012 20.246 30.7012 19.4176V4.927C30.7012 4.09857 31.3727 3.427 32.2012 3.427Z" fill="#53B487"/>
<path fill-rule="evenodd" clip-rule="evenodd" d="M32.2012 44.4836C33.0296 44.4836 33.7012 45.1552 33.7012 45.9836V60.4742C33.7012 61.3026 33.0296 61.9742 32.2012 61.9742C31.3727 61.9742 30.7012 61.3026 30.7012 60.4742V45.9836C30.7012 45.1552 31.3727 44.4836 32.2012 44.4836Z" fill="#53B487"/>
<path fill-rule="evenodd" clip-rule="evenodd" d="M43.5818 33.1031C43.5818 32.2747 44.2534 31.6031 45.0818 31.6031H59.5724C60.4008 31.6031 61.0724 32.2747 61.0724 33.1031C61.0724 33.9316 60.4008 34.6031 59.5724 34.6031H45.0818C44.2534 34.6031 43.5818 33.9316 43.5818 33.1031Z" fill="#53B487"/>
<path fill-rule="evenodd" clip-rule="evenodd" d="M2.52515 33.1031C2.52515 32.2747 3.19672 31.6031 4.02515 31.6031H18.5157C19.3441 31.6031 20.0157 32.2747 20.0157 33.1031C20.0157 33.9316 19.3441 34.6031 18.5157 34.6031H4.02515C3.19672 34.6031 2.52515 33.9316 2.52515 33.1031Z" fill="#53B487"/>
<path fill-rule="evenodd" clip-rule="evenodd" d="M32.1677 25.9681C32.9962 25.9681 33.6677 26.6397 33.6677 27.4681V37.9328C33.6677 38.7612 32.9962 39.4328 32.1677 39.4328C31.3393 39.4328 30.6677 38.7612 30.6677 37.9328V27.4681C30.6677 26.6397 31.3393 25.9681 32.1677 25.9681Z" fill="white"/>
<path fill-rule="evenodd" clip-rule="evenodd" d="M24.8679 32.7003C24.8679 31.8719 25.5395 31.2003 26.3679 31.2003H38.0343C38.8628 31.2003 39.5343 31.8719 39.5343 32.7003C39.5343 33.5287 38.8628 34.2003 38.0343 34.2003H26.3679C25.5395 34.2003 24.8679 33.5287 24.8679 32.7003Z" fill="white"/>
</svg>
