<svg width="29" height="29" viewBox="0 0 29 29" fill="none" xmlns="http://www.w3.org/2000/svg">
<path d="M13.0639 3.12183C10.7564 3.12183 8.50081 3.80606 6.58224 5.08801C4.66366 6.36996 3.16832 8.19205 2.28529 10.3239C1.40227 12.4557 1.17123 14.8014 1.62139 17.0645C2.07155 19.3277 3.1827 21.4065 4.81431 23.0381C6.44592 24.6697 8.52472 25.7808 10.7878 26.231C13.0509 26.6811 15.3967 26.4501 17.5285 25.5671C19.6603 24.6841 21.4824 23.1887 22.7644 21.2701C24.0463 19.3516 24.7306 17.0959 24.7306 14.7885C24.7306 13.2564 24.4288 11.7393 23.8425 10.3239C23.2562 8.90839 22.3968 7.62226 21.3135 6.53891C20.2301 5.45556 18.944 4.5962 17.5285 4.0099C16.1131 3.42359 14.596 3.12183 13.0639 3.12183ZM13.0639 24.1218C11.2179 24.1218 9.41343 23.5744 7.87857 22.5489C6.34371 21.5233 5.14743 20.0656 4.44101 18.3602C3.7346 16.6548 3.54976 14.7781 3.90989 12.9676C4.27002 11.1572 5.15894 9.49412 6.46423 8.18883C7.76952 6.88354 9.43256 5.99463 11.243 5.6345C13.0535 5.27437 14.9302 5.4592 16.6356 6.16562C18.341 6.87203 19.7987 8.06831 20.8243 9.60317C21.8498 11.138 22.3972 12.9425 22.3972 14.7885C22.3972 17.2638 21.4139 19.6378 19.6636 21.3882C17.9132 23.1385 15.5392 24.1218 13.0639 24.1218ZM16.6806 15.5235L14.2306 14.1118V8.95516C14.2306 8.64574 14.1076 8.34899 13.8888 8.1302C13.6701 7.91141 13.3733 7.78849 13.0639 7.78849C12.7545 7.78849 12.4577 7.91141 12.2389 8.1302C12.0201 8.34899 11.8972 8.64574 11.8972 8.95516V14.9285C11.9041 15.0089 11.9238 15.0876 11.9556 15.1618C11.9796 15.231 12.0109 15.2975 12.0489 15.3602C12.0808 15.4265 12.1199 15.4891 12.1656 15.5468L12.3522 15.6985L12.4572 15.8035L15.4906 17.5535C15.6684 17.6543 15.8695 17.7066 16.0739 17.7052C16.3322 17.707 16.5838 17.623 16.7893 17.4664C16.9947 17.3098 17.1424 17.0894 17.2091 16.8399C17.2758 16.5903 17.2579 16.3257 17.158 16.0874C17.0581 15.8492 16.882 15.6508 16.6572 15.5235H16.6806Z" fill="#5CC7DA"/>
</svg>
