<svg width="21" height="21" viewBox="0 0 21 21" fill="none" xmlns="http://www.w3.org/2000/svg">
<path d="M10.9416 2.46753C9.17346 2.46753 7.47777 3.16991 6.22752 4.42015C4.97728 5.67039 4.2749 7.36609 4.2749 9.13419C4.2749 13.6342 10.1499 18.7175 10.3999 18.9342C10.5508 19.0633 10.7429 19.1342 10.9416 19.1342C11.1402 19.1342 11.3323 19.0633 11.4832 18.9342C11.7749 18.7175 17.6082 13.6342 17.6082 9.13419C17.6082 7.36609 16.9059 5.67039 15.6556 4.42015C14.4054 3.16991 12.7097 2.46753 10.9416 2.46753ZM10.9416 17.1759C9.16657 15.5092 5.94157 11.9175 5.94157 9.13419C5.94157 7.80811 6.46835 6.53634 7.40603 5.59866C8.34372 4.66098 9.61549 4.1342 10.9416 4.1342C12.2677 4.1342 13.5394 4.66098 14.4771 5.59866C15.4148 6.53634 15.9416 7.80811 15.9416 9.13419C15.9416 11.9175 12.7166 15.5175 10.9416 17.1759ZM10.9416 5.80086C10.2823 5.80086 9.63783 5.99636 9.08967 6.36263C8.5415 6.7289 8.11426 7.2495 7.86197 7.85858C7.60968 8.46767 7.54367 9.13789 7.67228 9.7845C7.8009 10.4311 8.11837 11.025 8.58455 11.4912C9.05072 11.9574 9.64466 12.2749 10.2913 12.4035C10.9379 12.5321 11.6081 12.4661 12.2172 12.2138C12.8263 11.9615 13.3469 11.5343 13.7131 10.9861C14.0794 10.4379 14.2749 9.79347 14.2749 9.13419C14.2749 8.25014 13.9237 7.40229 13.2986 6.77717C12.6735 6.15205 11.8256 5.80086 10.9416 5.80086ZM10.9416 10.8009C10.6119 10.8009 10.2897 10.7031 10.0156 10.52C9.74154 10.3368 9.52792 10.0765 9.40177 9.772C9.27562 9.46746 9.24262 9.13235 9.30693 8.80904C9.37123 8.48574 9.52997 8.18877 9.76306 7.95568C9.99614 7.7226 10.2931 7.56386 10.6164 7.49955C10.9397 7.43524 11.2748 7.46825 11.5794 7.5944C11.8839 7.72054 12.1442 7.93416 12.3274 8.20824C12.5105 8.48233 12.6082 8.80456 12.6082 9.13419C12.6082 9.57622 12.4326 10.0001 12.1201 10.3127C11.8075 10.6253 11.3836 10.8009 10.9416 10.8009Z" fill="#5CC7DA"/>
</svg>
