<svg width="32" height="31" viewBox="0 0 32 31" fill="none" xmlns="http://www.w3.org/2000/svg">
<path d="M16.4554 2.5835C13.7148 2.5835 11.0865 3.67218 9.14863 5.61006C7.21076 7.54793 6.12207 10.1763 6.12207 12.9168C6.12207 19.8918 15.2283 27.771 15.6158 28.1068C15.8498 28.3069 16.1475 28.4169 16.4554 28.4169C16.7633 28.4169 17.061 28.3069 17.295 28.1068C17.7471 27.771 26.7887 19.8918 26.7887 12.9168C26.7887 10.1763 25.7 7.54793 23.7622 5.61006C21.8243 3.67218 19.196 2.5835 16.4554 2.5835ZM16.4554 25.3814C13.7042 22.7981 8.7054 17.231 8.7054 12.9168C8.7054 10.8614 9.52192 8.89016 10.9753 7.43675C12.4287 5.98334 14.4 5.16683 16.4554 5.16683C18.5108 5.16683 20.4821 5.98334 21.9355 7.43675C23.3889 8.89016 24.2054 10.8614 24.2054 12.9168C24.2054 17.231 19.2067 22.811 16.4554 25.3814ZM16.4554 7.75016C15.4335 7.75016 14.4346 8.05318 13.585 8.6209C12.7353 9.18862 12.0731 9.99554 11.682 10.9396C11.291 11.8837 11.1887 12.9226 11.388 13.9248C11.5874 14.927 12.0794 15.8476 12.802 16.5702C13.5246 17.2928 14.4452 17.7849 15.4474 17.9842C16.4497 18.1836 17.4885 18.0813 18.4326 17.6902C19.3767 17.2992 20.1836 16.6369 20.7513 15.7873C21.319 14.9376 21.6221 13.9387 21.6221 12.9168C21.6221 11.5465 21.0777 10.2324 20.1088 9.26344C19.1398 8.29451 17.8257 7.75016 16.4554 7.75016ZM16.4554 15.5002C15.9445 15.5002 15.445 15.3486 15.0202 15.0648C14.5954 14.7809 14.2642 14.3775 14.0687 13.9054C13.8732 13.4334 13.822 12.914 13.9217 12.4128C14.0214 11.9117 14.2674 11.4514 14.6287 11.0901C14.99 10.7289 15.4503 10.4828 15.9514 10.3831C16.4525 10.2835 16.972 10.3346 17.444 10.5301C17.916 10.7257 18.3195 11.0568 18.6034 11.4816C18.8872 11.9064 19.0387 12.4059 19.0387 12.9168C19.0387 13.602 18.7666 14.2591 18.2821 14.7435C17.7976 15.228 17.1405 15.5002 16.4554 15.5002Z" fill="#5CC7DA"/>
</svg>
