<svg width="562" height="589" viewBox="0 0 562 589" fill="none" xmlns="http://www.w3.org/2000/svg">
<g clip-path="url(#clip0)">
<path d="M257.627 150.856C257.009 149.801 255.682 149.474 254.678 150.127C253.461 150.92 253.252 150.22 254.051 148.025C254.71 146.216 254.739 145.273 254.115 145.93C252.157 147.993 246.786 143.793 246.786 140.2C246.786 138.312 247.576 136.767 248.541 136.767C249.507 136.767 249.836 135.981 249.272 135.02C248.709 134.059 248.816 132.304 249.511 131.12C252.246 126.455 251.273 123.374 247.317 124.171C245.201 124.597 243.459 125.837 243.445 126.926C243.431 128.02 242.742 127.777 241.906 126.384C240.822 124.578 241.364 123.339 243.819 122.017C247.293 120.146 249.588 109.044 246.593 108.598C245.788 108.478 244.258 108.281 243.194 108.161C242.131 108.041 240.967 107.015 240.609 105.882C239.874 103.558 253.72 100.74 256.614 102.625C257.7 103.332 258.389 102.044 258.389 99.3112C258.389 94.2768 256.483 93.5675 253.417 97.4612C250.803 100.779 243.961 100.847 240.866 97.5859C239.504 96.1509 238.498 91.6963 238.498 87.1043C238.498 79.9951 238.907 79.1154 242.227 79.0916C244.279 79.0769 247.076 78.3028 248.444 77.3714C250.288 76.1156 249.217 75.6406 244.3 75.533C238.308 75.402 238.028 75.2054 241.399 73.4925C243.45 72.4498 245.128 70.8745 245.128 69.9918C245.128 69.109 246.807 68.6186 248.858 68.9019C250.909 69.1851 252.961 68.6518 253.417 67.7166C253.872 66.7815 252.446 65.7485 250.247 65.4211C247.31 64.9837 246.846 64.4366 248.5 63.3593C249.755 62.5418 252.075 62.6391 253.742 63.5794C257.668 65.7941 257.954 60.7962 254.032 58.4837C252.187 57.3953 251.925 56.5064 253.204 55.6734C254.232 55.0033 255.074 54.9908 255.074 55.6456C255.074 56.3003 256.16 55.8861 257.488 54.7249C258.816 53.5637 260.807 53.2033 261.914 53.924C263.275 54.8106 263.603 54.3492 262.929 52.4973C262.381 50.9918 262.986 48.3081 264.274 46.5333C266.309 43.7271 266.832 43.648 268.278 45.9267C269.58 47.9771 269.948 48.0277 269.968 46.1596C269.984 44.6076 271.196 44.1038 273.431 44.7198C277.829 45.9318 283.601 40.1776 282.106 36.0716C281.516 34.451 281.719 33.566 282.558 34.105C283.397 34.6441 285.54 33.0043 287.321 30.461C290.533 25.8737 290.533 25.8568 287.321 28.3424C285.54 29.7204 282.152 33.1721 279.791 36.0126C276.615 39.835 275.266 40.5366 274.602 38.712C273.312 35.1711 278.206 23.2166 280.945 23.2166C282.215 23.2166 283.366 22.0374 283.503 20.5962C283.639 19.1549 283.826 17.0029 283.917 15.8139C284.008 14.625 286.321 11.5036 289.056 8.87751C291.791 6.2514 293.128 4.07966 292.027 4.05148C290.749 4.01881 290.254 1.94551 290.657 -1.67723C291.632 -10.4236 292.335 -12.8862 294.719 -15.9132C296.586 -18.2842 296.507 -18.7098 294.2 -18.7098C292.097 -18.7098 291.704 -19.8007 292.468 -23.5139C294.244 -32.1348 297.018 -36.2133 302.198 -37.8186C306.84 -39.257 306.978 -39.499 303.758 -40.5575C300.388 -41.6652 300.344 -41.9675 302.796 -47.1479C304.655 -51.0761 304.83 -52.7656 303.427 -53.2584C300.127 -54.4178 301.296 -57.6028 304.679 -56.6703C306.912 -56.0549 307.607 -56.5151 306.993 -58.2023C306.47 -59.6373 307.635 -61.2064 309.869 -62.0774C312.54 -63.1188 312.949 -63.8084 311.285 -64.4673C310 -64.9767 307.456 -64.7714 305.632 -64.0111C303.809 -63.2507 303.293 -62.5735 304.487 -62.5059C305.68 -62.4384 306.228 -61.6519 305.704 -60.7583C304.522 -58.7425 295.696 -59.5738 295.661 -61.7042C295.647 -62.558 295.137 -64.0802 294.527 -65.0869C292.665 -68.1618 295.916 -71.6903 299.661 -70.6583C301.639 -70.1132 303.146 -70.5269 303.146 -71.6152C303.146 -72.6697 304.129 -72.1158 305.33 -70.3844C307.377 -67.4345 307.69 -67.4214 310.303 -70.1753C311.837 -71.7917 313.08 -73.6477 313.066 -74.2997C313.021 -76.4123 310.649 -79.5144 308.947 -79.6856C308.036 -79.7773 307.29 -81.2281 307.29 -82.9096C307.29 -85.328 308.453 -85.8468 312.855 -85.3931C315.916 -85.0776 318.006 -85.5262 317.5 -86.39C316.993 -87.2538 318.15 -90.6563 320.07 -93.9513L323.562 -99.9422L325.638 -94.7014L327.714 -89.4606L328.277 -95.5748C328.741 -100.627 329.487 -101.665 332.569 -101.55C337.305 -101.374 337.45 -105.436 332.764 -107.003C330.197 -107.862 329.81 -108.563 331.348 -109.565C332.513 -110.324 333.017 -112.178 332.468 -113.685C331.919 -115.193 332.184 -116.891 333.056 -117.459C334.392 -118.329 335.354 -115.038 334.914 -111.104C334.848 -110.517 336.515 -109.211 338.617 -108.202C342.076 -106.541 342.45 -106.808 342.559 -111.016C342.781 -119.535 344.995 -127.45 348.059 -130.679C350.996 -133.774 351.124 -133.686 352.165 -127.838C352.756 -124.518 352.77 -119.831 352.197 -117.423C351.595 -114.895 351.868 -113.044 352.843 -113.044C353.772 -113.044 354.544 -116.778 354.558 -121.342C354.572 -125.906 355.306 -130.819 356.19 -132.26C357.575 -134.519 357.8 -134.473 357.822 -131.927C357.836 -130.302 358.652 -128.449 359.635 -127.808C360.812 -127.042 361.237 -128.63 360.879 -132.458C360.465 -136.879 361.029 -138.419 363.235 -138.888C365.509 -139.371 366.136 -138.312 366.136 -133.99C366.136 -130.35 366.84 -128.726 368.208 -129.212C369.348 -129.617 370.28 -131.844 370.28 -134.162C370.28 -137.427 371.212 -138.428 374.424 -138.614C377.851 -138.811 383.289 -136.977 385.747 -134.794C387.083 -133.608 382.354 -127.02 380.168 -127.02C378.832 -127.02 377.739 -126.318 377.739 -125.46C377.739 -123.034 382.557 -121.671 386.988 -122.843C389.425 -123.488 391.001 -123.144 391.001 -121.968C391.001 -120.903 390.35 -120.032 389.555 -120.032C388.76 -120.032 387.558 -116.691 386.886 -112.607L385.662 -105.183L383.458 -110.591C381.218 -116.088 374.703 -121.779 370.65 -121.779C369.422 -121.779 366.713 -119.35 364.631 -116.381C361.277 -111.601 361.039 -110.154 362.545 -103.716C363.481 -99.7188 363.84 -94.2942 363.343 -91.6613C362.595 -87.6916 361.789 -87.0466 358.623 -87.884C355.833 -88.6219 354.306 -87.9117 352.953 -85.2466C350.494 -80.4053 349.069 -80.6261 342.291 -86.8984C336.841 -91.9406 336.457 -92.0409 334.359 -88.967C333.146 -87.1903 330.765 -85.1895 329.067 -84.5208C326.408 -83.4738 326.293 -82.9067 328.238 -80.4376C331.278 -76.5788 331.396 -68.9686 328.397 -70.1812C324.578 -71.7258 316.115 -66.103 317.14 -62.7013C317.738 -60.7147 316.793 -59.1288 314.331 -57.9881C309.169 -55.5966 305.449 -47.0219 307.831 -43.0032C310.281 -38.8688 308.413 -21.9127 305.211 -19.2197C303.233 -17.5555 302.935 -14.9325 303.807 -6.81791C304.46 -0.731472 304.186 5.48466 303.135 8.39599C302.099 11.2676 301.984 13.7429 302.858 14.337C303.682 14.8971 304.872 17.0979 305.503 19.2277C306.444 22.4055 305.877 23.3044 302.345 24.2388C296.103 25.8896 291.03 37.035 292.643 45.5525C293.318 49.1212 293.713 52.6543 293.519 53.4039C293.325 54.1535 294.293 57.0624 295.67 59.8681C297.046 62.6738 298.173 67.1777 298.173 69.8767C298.173 72.8921 299.451 75.6253 301.488 76.9661C304.823 79.1607 306.214 87.853 303.23 87.853C302.365 87.853 302.759 90.6323 304.106 94.0292C306.239 99.4107 306.252 101.28 304.201 108.559C302.636 114.111 302.373 117.904 303.415 119.866C305.595 123.972 303.957 125.964 299.19 125.004C295.906 124.343 294.869 122.68 293.614 116.067L292.072 107.943L290.149 112.861C288.837 116.218 288.75 118.811 289.875 121.027C291.22 123.674 290.251 125.669 284.63 131.83C280.838 135.987 276.403 141.694 274.774 144.513C273.145 147.333 270.844 149.806 269.66 150.009C268.475 150.213 265.536 150.918 263.129 151.576C260.531 152.286 258.294 151.993 257.627 150.856ZM350.702 -126.583C350.285 -128.264 349.944 -126.889 349.944 -123.526C349.944 -120.163 350.285 -118.787 350.702 -120.469C351.119 -122.15 351.119 -124.901 350.702 -126.583Z" fill="#01A964" fill-opacity="0.3"/>
<path d="M605.992 195.87C602.328 191.652 600.396 190.722 596.844 191.471C591.825 192.529 587.228 189.388 582.81 181.883C578.504 174.569 574.919 174.453 564.16 181.281C558.832 184.662 554.007 187.428 553.437 187.428C552.868 187.428 550.73 184.292 548.686 180.46L544.97 173.492L550.867 170.528C554.127 168.89 556.765 166.268 556.765 164.665C556.765 160.658 551.47 155.983 546.932 155.983C540.858 155.983 527.212 146.951 525.076 141.516C524.019 138.825 521.717 134.7 519.962 132.349L516.772 128.074L510.634 131.374C505.06 134.371 504.065 134.435 499.78 132.068C496.763 130.403 493.061 129.859 489.511 130.561C484.359 131.58 483.729 131.183 480.74 125.041C478.969 121.402 475.606 116.541 473.266 114.24C470.926 111.938 469.432 109.338 469.946 108.461C470.461 107.585 468.954 103.798 466.598 100.046C463.027 94.3602 462.594 92.4478 463.996 88.5609C466.397 81.908 464.468 77.4271 457.975 74.568C454.872 73.2016 452.333 71.645 452.333 71.1089C452.333 69.1983 456.93 65.3285 457.938 66.3906C458.885 67.3888 459.619 64.2772 459.16 61.2122C458.965 59.9075 460.25 59.5453 466.277 59.2066C468.02 59.1087 469.73 58.1428 470.077 57.0602C470.951 54.3325 465.948 52.5994 462.573 54.4611C459.077 56.3902 453.127 54.1195 451.747 50.3294C451.171 48.7469 449.948 47.9413 449.03 48.5393C446.432 50.2314 446.981 47.1804 452.333 30.2042C457.792 12.8895 458.206 8.98777 455.463 0.697619C454.13 -3.33213 451.419 -6.04932 445.661 -9.12408C439.369 -12.4842 437.88 -14.0924 438.552 -16.8004C439.134 -19.1467 437.539 -22.189 433.49 -26.4557C430.239 -29.882 426.79 -32.6854 425.825 -32.6854C424.86 -32.6854 423.623 -35.0437 423.076 -37.9262C422.529 -40.8086 421.337 -43.167 420.428 -43.167C419.409 -43.167 419.469 -44.049 420.586 -45.4673C421.977 -47.233 420.515 -49.7218 414.296 -56.177C406.94 -63.8132 406.09 -65.5338 405.06 -74.8866C404.07 -83.8786 403.326 -85.5134 399.203 -87.7603C396.606 -89.1759 393.306 -90.3341 391.87 -90.3341C390.296 -90.3341 388.865 -92.4144 388.266 -95.5749C387.719 -98.4574 386.711 -100.816 386.026 -100.816C384.52 -100.816 389.65 -117.167 391.415 -117.994C392.099 -118.314 392.658 -119.353 392.658 -120.302C392.658 -121.252 393.845 -123.279 395.295 -124.807C397.397 -127.023 398.202 -127.127 399.261 -125.32C400.115 -123.864 402.138 -123.462 404.913 -124.196C408.281 -125.087 409.235 -124.694 409.235 -122.415C409.235 -119.803 409.544 -119.768 412.136 -122.094C418.429 -127.742 425.497 -129.283 438.712 -127.888C452.623 -126.42 466.53 -125.205 470.745 -125.091C472.21 -125.051 475.753 -122.761 478.618 -120.003C486.721 -112.204 485.651 -100.277 475.995 -90.7355C472.395 -87.1777 462.415 -84.6348 444.016 -82.5874C442.632 -82.4335 440.626 -81.7383 439.558 -81.0425C438.49 -80.3467 434.4 -80.2377 430.47 -80.8004L423.325 -81.8235L429.955 -77.3519C433.602 -74.8925 440.502 -71.6755 445.288 -70.2033C452.201 -68.0771 453.991 -66.7753 453.991 -63.8752C453.991 -58.1327 467.295 -43.4801 472.737 -43.2289C473.475 -43.1949 473.539 -44.0866 472.88 -45.2107C472.028 -46.6637 472.598 -46.8346 474.854 -45.8015C476.599 -45.0024 480.637 -44.0303 483.828 -43.6413C488.357 -43.0894 490.088 -43.7265 491.716 -46.5444C494.763 -51.8164 491.141 -57.6443 485.486 -56.5697C479.478 -55.4279 475.008 -57.71 474.702 -62.0751C474.504 -64.9176 475.361 -65.8771 478.101 -65.8771C480.116 -65.8771 482.676 -64.7198 483.79 -63.3054C485.573 -61.0411 486.107 -61.0411 488.255 -63.3054C489.598 -64.7198 492.445 -65.8771 494.583 -65.8771C496.721 -65.8771 498.749 -66.758 499.09 -67.8347C499.431 -68.9114 502.663 -69.9715 506.273 -70.1903C509.883 -70.4093 514.655 -71.2002 516.877 -71.9479C520.692 -73.2322 520.749 -73.4367 517.891 -75.6388C515.74 -77.2967 513.972 -77.466 511.771 -76.2247C509.579 -74.9885 506.486 -75.263 501.167 -77.1659C497.037 -78.6436 492.482 -79.8525 491.045 -79.8525C488.929 -79.8525 488.648 -81.0977 489.568 -86.4035C490.193 -90.0066 491.783 -94.7198 493.101 -96.8774C494.523 -99.2035 495.077 -102.57 494.463 -105.149C493.602 -108.766 494.202 -109.808 498.031 -111.342C500.563 -112.357 503.563 -112.811 504.698 -112.352C507.858 -111.074 508.992 -116.404 506.948 -122.932C505.037 -129.033 499.959 -133.256 496.916 -131.274C495.813 -130.556 495.361 -131.671 495.707 -134.25C496.174 -137.732 497.165 -138.346 502.062 -138.19C505.253 -138.089 509.141 -137.427 510.702 -136.719C512.667 -135.828 514.766 -136.825 517.523 -139.96L521.505 -144.489H593.008H664.511V26.6555C664.511 175.965 664.202 197.675 662.091 196.821C660.76 196.283 655.883 196.699 651.253 197.746C644.256 199.327 642.165 199.187 638.88 196.919C635.292 194.441 634.457 194.444 629.855 196.952C627.066 198.472 621.602 200.053 617.711 200.467C611.486 201.128 610.081 200.577 605.992 195.87Z" fill="#01A964" fill-opacity="0.3"/>
<path d="M399.289 79.0013C399.289 76.4282 398.128 75.6244 394.41 75.6244C388.247 75.6244 384.37 70.118 384.37 61.3633C384.37 57.7906 383.672 54.4127 382.819 53.857C381.966 53.3012 379.337 48.6882 376.978 43.6059L372.688 34.3654L377.914 22.24C383.843 8.48136 389.242 -7.72333 389.303 -11.945C389.325 -13.5088 390.468 -15.7717 391.842 -16.9736C394.026 -18.8836 393.817 -19.6705 390.184 -23.2183C387.898 -25.451 386.028 -28.1014 386.028 -29.1081C386.028 -30.1148 385.469 -30.8454 384.785 -30.7316C377.699 -29.5525 376.023 -31.3851 368.618 -48.4078C360.209 -67.739 357.061 -71.8705 346.484 -77.4636C334.119 -84.0022 333.947 -84.1612 335.276 -87.8098C336.163 -90.2463 337.198 -89.8641 342.169 -85.2647C349.066 -78.8824 350.256 -78.6885 353.409 -83.4328C355.17 -86.0819 356.865 -86.7285 359.927 -85.9186C363.615 -84.9431 364.161 -85.456 364.946 -90.6362C365.43 -93.8329 365.075 -99.7331 364.157 -103.748C362.749 -109.905 362.967 -111.742 365.555 -115.485C369.137 -120.665 371.426 -121.039 376.812 -117.32C380.207 -114.975 382.849 -109.549 383.571 -103.436C384.169 -98.3711 389.504 -88.5872 391.667 -88.5872C393.038 -88.5872 395.998 -87.705 398.243 -86.6267C401.657 -84.9875 402.507 -83.0207 403.432 -74.6264C404.429 -65.57 405.334 -63.76 412.666 -56.1491C417.167 -51.4763 420.042 -47.2219 419.109 -46.6139C418.022 -45.9061 418.321 -43.7027 419.95 -40.4109C421.339 -37.6031 422.48 -34.3231 422.486 -33.1221C422.492 -31.9211 423.988 -30.9384 425.811 -30.9384C427.635 -30.9384 429.127 -29.8921 429.127 -28.6133C429.127 -27.3344 431.053 -25.2016 433.407 -23.8737C436.818 -21.9501 437.51 -20.5215 436.812 -16.8451C436.028 -12.7101 436.791 -11.8094 444.156 -8.17352C451.075 -4.75846 452.687 -3.02422 454.337 2.78159C456.421 10.1097 456.433 10.042 447.135 42.7066C443.378 55.9039 443.244 56.0967 437.056 57.1395C433.607 57.7208 430.784 58.8633 430.784 59.6783C430.784 60.4934 428.174 64.0776 424.983 67.6433C421.792 71.2089 419.181 74.6674 419.181 75.3286C419.181 77.732 412.035 81.1488 405.738 81.7563C400.265 82.2842 399.289 81.8672 399.289 79.0013Z" fill="#01A964" fill-opacity="0.3"/>
<path d="M329.424 194.896C330.876 192.037 330.43 190.731 326.892 187.489C324.351 185.161 323.299 183.097 324.317 182.434C325.263 181.818 326.26 180.921 326.533 180.44C327.228 179.218 320.918 168.212 319.522 168.212C317.311 168.212 309.652 152.463 309.97 148.569C310.682 139.86 310.006 138.261 306.461 140.261C304.638 141.289 303.096 141.514 303.034 140.759C302.973 140.005 302.606 136.833 302.219 133.71C301.833 130.587 302.176 128.032 302.983 128.032C305.33 128.032 306.601 122.745 304.985 119.702C304.054 117.949 304.368 113.848 305.83 108.661C307.453 102.9 307.675 99.0784 306.565 96.0007C305.69 93.5761 305.396 88.8562 305.91 85.5121C306.65 80.7121 306.108 78.7655 303.339 76.2665C301.409 74.5255 299.831 71.2714 299.831 69.0352C299.831 66.7989 298.657 62.577 297.222 59.653C295.787 56.729 294.967 53.9636 295.4 53.5077C295.833 53.0518 295.45 49.8669 294.549 46.4303C293.257 41.4989 293.52 38.7621 295.794 33.4461C297.38 29.7414 299.54 26.7103 300.594 26.7103C301.649 26.7103 303.886 25.652 305.564 24.3585C308.361 22.203 308.41 21.5724 306.152 16.8015C304.455 13.2164 304.143 10.2997 305.15 7.43053C305.955 5.13933 306.116 -0.923854 305.509 -6.04315C304.676 -13.0687 305.01 -16.084 306.869 -18.3407C310.095 -22.2554 311.871 -38.9825 309.489 -43.0033C306.899 -47.3733 311.096 -56.0894 316.154 -56.8474C319.295 -57.3179 319.832 -58.1914 319.036 -61.5326C318.016 -65.8167 321.56 -68.3565 328.694 -68.4541C332.746 -68.5095 333.598 -76.0104 330.039 -80.2893C325.95 -85.2061 330.565 -84.1592 344.14 -77.0901C354.222 -71.8399 356.694 -69.6627 359.51 -63.5514C361.355 -59.5461 363.929 -54.3036 365.228 -51.9016C366.528 -49.4996 369.178 -44.0702 371.117 -39.8362C374.608 -32.2124 374.611 -32.1054 371.42 -28.7425C368.732 -25.9097 367.594 -25.6874 364.555 -27.4014C361.173 -29.3092 361.045 -29.1944 362.772 -25.7938C363.795 -23.7796 364.123 -21.2635 363.501 -20.2026C361.151 -16.1951 361.326 -2.20018 363.761 0.636327C367.781 5.31776 363.442 15.8412 350.943 31.7222C349.908 33.0376 348.876 35.8878 348.65 38.0561C348.424 40.2244 347.515 43.4719 346.629 45.2728C344.309 49.9885 345.401 68.3894 348.458 76.0888C349.895 79.707 352.409 83.2635 354.045 83.9921C359.943 86.619 369.451 93.4744 369.451 95.1C369.451 96.0136 368.372 98.96 367.054 101.647C365.735 104.335 365.068 108.195 365.572 110.225C366.231 112.881 365.025 115.323 361.27 118.937C356.182 123.835 356.097 124.166 357.828 132.306C358.915 137.419 359.013 141.423 358.079 142.641C357.149 143.853 357.188 148.376 358.179 154.236C360.284 166.686 356.991 176.1 349.963 177.727C344.483 178.995 340.282 184.939 342.697 188.007C345.275 191.28 341.016 195.727 333.97 197.12C328.041 198.293 327.767 198.159 329.424 194.896ZM374.794 148.28C373.605 145.528 373.489 143.49 374.487 142.841C375.364 142.269 376.169 140.079 376.274 137.974C376.453 134.427 376.526 134.403 377.282 137.641C377.73 139.562 378.7 141.923 379.439 142.886C380.177 143.85 379.862 146.448 378.739 148.66L376.697 152.681L374.794 148.28Z" fill="#01A964" fill-opacity="0.3"/>
<path d="M291.804 218.759C289.669 217.857 287.244 217.56 286.417 218.099C285.589 218.638 284.912 216.721 284.912 213.839C284.912 210.957 283.047 203.151 280.768 196.492C275.955 182.43 275.565 176.23 279.296 173.085C280.766 171.846 284.957 167.82 288.61 164.14C296.525 156.165 298.752 157.395 296.758 168.642C295.209 177.383 296.549 180.44 301.931 180.44C304.672 180.44 304.351 181.78 299.113 192.175C292.839 204.627 291.601 212.611 295.687 214.264C297.054 214.817 298.173 216.473 298.173 217.945C298.173 220.97 297.303 221.081 291.804 218.759Z" fill="#01A964" fill-opacity="0.3"/>
<path d="M27.1492 24.9744C23.5024 23.0604 19.2202 19.0796 17.6333 16.128C16.0463 13.1765 14.0509 11.2155 13.199 11.7704C12.3471 12.3253 9.66843 11.8277 7.24643 10.6647C3.09902 8.67324 3.03728 8.47432 6.1847 7.2473C9.42956 5.98227 9.38016 5.65958 4.48457 -3.86604C1.71146 -9.26186 -0.290995 -13.9382 0.0347309 -14.2578C0.360473 -14.5773 4.19682 -14.258 8.55987 -13.5481C12.9229 -12.8381 16.8831 -12.923 17.3603 -13.7367C17.8375 -14.5504 17.3466 -15.2161 16.2694 -15.2161C14.7722 -15.2161 14.7677 -15.7961 16.2506 -17.6791C17.7893 -19.633 17.4124 -20.7163 14.4272 -22.9199C12.3574 -24.4477 8.92114 -25.6977 6.79094 -25.6977C4.66074 -25.6977 3.3587 -26.4494 3.89756 -27.3683C4.43641 -28.2871 6.10178 -28.5437 7.59841 -27.9385C9.56223 -27.1443 10.0515 -27.5743 9.35631 -29.4834C8.82653 -30.9383 9.01825 -33.1947 9.78226 -34.4975C10.8726 -36.3567 11.9191 -35.9468 14.6476 -32.5921L18.1239 -28.3181L17.395 -33.9875C16.3961 -41.7579 18.6183 -42.4954 22.1581 -35.5683C24.4906 -31.0038 24.7101 -29.0552 23.2222 -26.1252C20.8781 -21.5093 20.7732 -13.4692 23.0571 -13.4692C23.9974 -13.4692 25.1962 -14.6483 25.7209 -16.0896C26.2457 -17.5308 27.6639 -18.71 28.8725 -18.71C30.0811 -18.71 31.5876 -20.4292 32.2205 -22.5304C33.2013 -25.7872 33.6458 -25.9674 35.233 -23.7521C36.7896 -21.5796 37.7747 -21.5176 41.2391 -23.374C45.0339 -25.4075 45.4996 -25.2309 46.7646 -21.2789C47.5243 -18.9051 48.9095 -16.963 49.8428 -16.963C50.776 -16.963 51.1103 -18.1422 50.5855 -19.5834C49.6165 -22.2446 51.3812 -23.1615 53.3925 -21.0419C53.9988 -20.4029 56.3973 -19.6664 58.7224 -19.4051C61.9812 -19.039 63.3331 -19.9922 64.622 -23.5649C65.9255 -27.1782 66.6143 -27.6536 67.7472 -25.7219C68.5464 -24.3591 68.8694 -22.6799 68.465 -21.9904C68.0606 -21.3008 69.7571 -19.056 72.235 -17.0018C75.8899 -13.9721 76.3957 -12.709 74.9143 -10.3109C73.5048 -8.02909 73.8181 -6.08858 76.2881 -1.80297C79.6926 4.10423 79.1048 12.7348 75.2979 12.7348C74.1705 12.7348 71.9823 14.2088 70.4353 16.0103C68.8882 17.8118 65.7642 19.2858 63.4929 19.2858C61.2216 19.2858 57.9561 20.6279 56.2362 22.2683C54.0709 24.3334 50.9392 25.0857 46.0551 24.7141C41.5669 24.3726 38.7551 24.9556 38.3244 26.3173C37.3791 29.3058 34.8148 28.9977 27.1492 24.9744Z" fill="#01A964" fill-opacity="0.3"/>
<path d="M63.2029 565.916C55.4165 563.903 55.1009 563.252 58.5234 556.277C59.9655 553.338 60.3342 550.511 59.4679 549.034C58.6545 547.647 58.739 545.248 59.6656 543.423C61.5685 539.676 60.0435 536.21 57.0284 537.429C53.873 538.705 50.4903 530.992 52.4495 526.988C53.3311 525.186 53.718 522.73 53.3094 521.529C52.9008 520.328 53.3037 519.345 54.2047 519.345C56.507 519.345 63.7795 505.706 65.3825 498.382C66.1185 495.019 66.7684 487.158 66.8267 480.913C66.9237 470.514 67.2461 469.511 70.6541 469C73.3074 468.603 74.1168 469.154 73.474 470.919C72.7513 472.904 74.967 473.442 84.6427 473.63C95.0855 473.833 97.103 474.399 99.6056 477.826C103.393 483.012 103.42 482.908 97.1061 487.438C92.5354 490.717 91.3181 493.097 89.5107 502.287C86.5072 517.559 86.4898 517.598 82.7322 517.598C78.5903 517.598 78.5456 518.782 82.435 525.459C85.2042 530.213 85.2615 531.206 83.0515 536.149C81.2798 540.112 81.0829 542.479 82.3297 544.827C83.6936 547.395 83.2268 548.854 80.0469 551.96C77.8484 554.107 76.0496 557.709 76.0496 559.965C76.0496 563.83 73.1631 568.572 71.1596 567.998C70.6581 567.855 67.0777 566.918 63.2029 565.916Z" fill="#01A964" fill-opacity="0.3"/>
<path d="M96.2663 583.462C93.3523 580.293 90.9682 576.014 90.9682 573.953C90.9682 569.832 85.2802 564.765 80.6535 564.765C74.848 564.765 78.0403 552.711 84.4411 550.462C85.7434 550.005 85.7059 548.538 84.3093 545.308C82.7376 541.672 82.8521 539.784 84.8973 535.616C87.2381 530.846 87.1889 530.04 84.2705 525.352C81.1398 520.322 81.1415 520.249 84.415 518.973C88.1411 517.521 88.2018 517.371 91.1627 502.313C92.3435 496.308 93.7153 491.366 94.211 491.331C94.7067 491.297 97.1669 489.496 99.6782 487.329C103.854 483.726 104.067 482.985 102.165 478.655C99.659 472.949 97.8315 472.233 84.8092 471.855C76.7133 471.62 74.9036 471.058 75.6492 469.01C76.3765 467.013 75.4411 466.635 71.341 467.269C65.5296 468.168 65.4198 468.054 67.7247 463.515C68.9357 461.131 68.5163 459.211 66.0671 455.93C64.2637 453.514 62.7883 450.569 62.7883 449.385C62.7883 446.275 67.9654 442.6 72.4381 442.536C74.5546 442.505 77.4696 441.233 78.9159 439.709C80.6961 437.833 82.9336 437.316 85.8425 438.108C88.2058 438.752 95.7339 439.891 102.572 440.639C109.409 441.388 117.242 442.988 119.977 444.196C122.712 445.403 129.425 446.628 134.896 446.916C154.019 447.925 164.608 449.598 167.147 452.01C172.32 456.926 188.801 462.138 195.568 460.997C201.023 460.078 202.549 460.552 205.45 464.068C208.583 467.865 209.948 468.178 221.153 467.663C227.902 467.353 233.864 467.849 234.402 468.765C234.939 469.682 234.562 470.431 233.564 470.431C232.275 470.431 232.255 471.424 233.495 473.865C234.954 476.739 234.49 477.79 230.652 480.302C228.13 481.954 224.574 484.594 222.75 486.17C220.927 487.746 216.181 490.114 212.205 491.432C207.169 493.102 203.774 495.713 201.017 500.036C198.841 503.45 194.449 510.063 191.257 514.732C183.94 525.434 183.32 534.118 189.656 537.16L193.858 539.178L188.754 542.584C183.155 546.32 176.372 558.506 178.178 561.585C178.942 562.888 177.902 563.24 175.012 562.658C171.723 561.995 169.57 563.069 165.888 567.209C163.237 570.189 160.616 573.989 160.063 575.654C159.446 577.509 158.061 578.279 156.487 577.643C155.073 577.071 152.968 577.433 151.809 578.447C150.408 579.671 147.494 579.751 143.127 578.684C139.511 577.8 133.818 577.059 130.474 577.036C123.558 576.988 111.088 582.103 107.733 586.363C104.471 590.505 102.219 589.935 96.2663 583.462ZM208.66 535.171C208.66 534.153 209.406 533.321 210.318 533.321C212.442 533.321 212.442 534.558 210.318 535.941C209.406 536.535 208.66 536.188 208.66 535.171ZM231.209 525.381C229.479 524.045 227.428 523.365 226.65 523.872C225.873 524.378 225.237 524.149 225.237 523.362C225.237 520.608 231.735 517.659 234.985 518.938C237.758 520.03 237.952 520.779 236.296 524.015C234.573 527.383 233.999 527.537 231.209 525.381ZM245.957 514.104C247.283 511.844 250.101 511.844 250.101 514.104C250.101 515.065 248.938 515.851 247.517 515.851C246.096 515.851 245.394 515.065 245.957 514.104Z" fill="#01A964" fill-opacity="0.3"/>
<path d="M315.071 474.177C308.611 467.025 308.414 462.973 314.227 456.847L318.677 452.157L320.886 457.862C322.437 461.869 322.688 466.018 321.73 471.803L320.366 480.039L315.071 474.177ZM212.174 462.876C209.517 460.076 206.787 459.418 198.4 459.554C187.964 459.723 172.795 455.325 168.194 450.795C166.381 449.01 166.401 448.333 168.312 446.86C171.425 444.462 175.464 427.864 175.488 417.373C175.505 410.006 175.842 409.153 177.994 411.035C180.016 412.804 180.48 412.721 180.48 410.59C180.48 409.149 179.361 406.991 177.994 405.795C176.626 404.598 175.507 400.985 175.507 397.764C175.507 393.057 174.556 391.39 170.652 389.263C165.792 386.614 162.843 381.067 164.654 377.979C165.184 377.075 164.032 375.166 162.094 373.736C160.157 372.305 158.985 370.43 159.49 369.569C160.714 367.482 141.115 358.084 138.091 359.308C136.789 359.834 135.724 359.961 135.724 359.589C135.724 359.217 135.224 357.541 134.614 355.863C133.857 353.784 134.12 353.215 135.443 354.077C138.294 355.934 137.81 351.54 134.774 348.005C132.383 345.221 132.451 344.873 135.588 343.824C137.47 343.195 139.7 343.129 140.543 343.678C141.387 344.228 144.117 343.86 146.61 342.861C150.359 341.358 151.749 341.645 154.648 344.515C156.958 346.801 158.94 347.473 160.458 346.484C161.726 345.658 165.241 345.307 168.269 345.703C173.633 346.404 173.732 346.301 172.088 341.742C171.159 339.168 170.779 336.018 171.244 334.743C171.708 333.467 171.366 332.423 170.483 332.423C168 332.423 168.587 327.674 171.2 326.617C172.582 326.058 173.863 327.046 174.362 329.058C174.867 331.093 176.137 332.059 177.555 331.486C178.849 330.962 181.993 331.369 184.54 332.39C189.415 334.343 194.682 331.947 192.752 328.655C191.321 326.216 194.958 322.437 200.026 321.098C206.561 319.371 210.318 314.272 210.318 307.129C210.318 302.318 211.189 300.485 214.153 299.062C217.43 297.489 218.798 298.019 223.56 302.707C226.625 305.725 231.24 309.342 233.815 310.745C236.391 312.149 238.498 314.063 238.498 314.999C238.498 315.935 239.967 316.701 241.763 316.701C243.558 316.701 247.684 318.273 250.93 320.195C254.176 322.117 259.021 323.689 261.697 323.689C264.864 323.689 267.18 324.907 268.335 327.183C269.435 329.349 271.819 330.684 274.61 330.696C277.085 330.706 281.805 331.185 285.098 331.759L291.087 332.803L287.999 341.367C286.301 346.077 284.912 352.297 284.912 355.19C284.912 358.957 283.848 360.96 281.163 362.249C277.664 363.929 271.65 372.724 271.65 376.161C271.65 377.001 269.777 380.597 267.488 384.152C265.199 387.708 263.675 390.984 264.102 391.434C264.529 391.884 267.523 390.608 270.755 388.598C273.987 386.589 277.748 385.396 279.114 385.948C281.833 387.048 282.496 392.774 280.085 394.344C279.202 394.919 279.365 397.536 280.477 400.64C281.988 404.86 281.923 406.249 280.159 407.398C278.458 408.506 278.366 409.686 279.767 412.445C280.773 414.426 281.596 418.013 281.596 420.416C281.596 423.8 282.869 425.27 287.242 426.936C293.742 429.413 293.544 431.283 285.73 441.175C278.38 450.481 274.059 451.638 261.749 447.601C256.092 445.745 249.628 444.227 247.385 444.227C237.827 444.227 229.326 453.392 231.343 461.521C231.931 463.888 231.45 465.255 229.988 465.373C217.053 466.413 215.297 466.167 212.174 462.876Z" fill="#01A964" fill-opacity="0.3"/>
<path d="M123.863 313.002C122.129 311.844 122.259 311.508 124.453 311.487C126.003 311.472 127.868 310.396 128.597 309.095C129.326 307.794 131.601 305.801 133.652 304.666C135.704 303.531 137.382 301.479 137.382 300.105C137.382 296.663 142.679 293.991 149.502 293.991C155.002 293.991 160.03 290.49 157.842 288.185C157.259 287.57 155.059 287.523 152.953 288.08C150.458 288.74 147.348 287.759 144.023 285.264C141.217 283.159 137.92 281.841 136.696 282.336C134.449 283.245 130.751 280.498 130.751 277.919C130.751 277.151 131.928 276.522 133.365 276.522C134.803 276.522 138.11 274.277 140.713 271.533C146.267 265.68 146.322 259.701 140.817 260.36C138.272 260.664 137.577 260.143 138.488 258.613C139.201 257.413 139.553 254.946 139.269 253.13C138.862 250.526 139.396 250.114 141.797 251.183C146.187 253.136 152.679 252.415 155.269 249.685C156.498 248.39 157.849 244.155 158.272 240.274C158.923 234.302 158.587 233.256 156.086 233.469C153.718 233.672 153.108 232.331 153.022 226.734L152.914 219.746L143.49 219.959C133.342 220.188 132.236 219.055 137.347 213.669C139.778 211.107 140.369 208.844 139.627 204.934C139.001 201.636 139.305 199.657 140.438 199.657C141.435 199.657 141.883 198.646 141.433 197.411C140.558 195.008 134.067 194.239 134.067 196.537C134.067 197.292 133.364 197.91 132.506 197.91C131.647 197.91 130.911 195.355 130.87 192.232C130.83 189.11 130.76 184.982 130.715 183.061C130.46 172.131 132.41 160.303 134.767 158.487C136.205 157.379 137.406 155.379 137.435 154.044C137.547 148.881 141.669 146.015 150.229 145.149C157.767 144.386 158.931 144.682 158.931 147.363C158.931 149.065 156.254 152.201 152.983 154.332C148.433 157.295 147.556 158.593 149.253 159.848C150.986 161.131 151.018 161.684 149.4 162.376C148.26 162.864 147.328 164.432 147.328 165.862C147.328 168.072 147.729 168.038 150.006 165.639C152.051 163.483 154.496 163.072 160.366 163.898C172.947 165.668 172.777 165.345 167.238 176.909C164.466 182.694 161.372 187.428 160.362 187.428C159.047 187.428 159.063 188.111 160.421 189.835C161.914 191.732 161.57 192.448 158.799 193.211C156.716 193.786 155.757 194.989 156.446 196.164C157.086 197.255 158.653 197.726 159.929 197.21C161.205 196.694 164.895 198.72 168.128 201.712C173.098 206.311 173.846 207.929 172.961 212.175C172.114 216.24 172.822 218.106 176.676 221.966C181.755 227.052 189.583 238.089 188.112 238.089C187.626 238.089 188.739 241.801 190.584 246.338C193.107 252.541 193.531 255.53 192.294 258.392C190.082 263.508 191.637 264.683 196.33 261.442C201.84 257.637 209.688 261.598 209.06 267.867C208.355 274.906 205.183 281.581 202.044 282.631C198.721 283.743 198.466 288.898 201.629 291.028C202.775 291.801 204.551 291.888 205.573 291.222C209.375 288.746 205.843 294.748 201.477 298.183C198.091 300.847 194.221 301.766 185.711 301.927C179.508 302.044 173.678 302.631 172.756 303.232C170.273 304.849 160.189 305.118 156.895 303.654C154.899 302.767 152.578 303.912 149.238 307.432C145.139 311.751 143.994 312.173 141.328 310.344C138.788 308.601 137.089 308.787 132.151 311.348C128.413 313.286 125.237 313.92 123.863 313.002ZM117.792 230.228C115.669 225.318 112.89 224.551 111.459 228.481C110.126 232.143 107.988 231.746 105.797 227.43C104.222 224.33 104.634 222.986 108.44 218.799C111.153 215.816 112.553 212.755 111.956 211.116C110.869 208.13 113.358 207.331 115.004 210.138C115.567 211.099 117.663 211.891 119.66 211.899C122.18 211.908 124.503 214.146 127.247 219.209L131.203 226.505L126.74 230.55C121.117 235.648 120.12 235.612 117.792 230.228ZM137.382 233.825C137.382 233.401 138.128 232.569 139.04 231.975C139.951 231.381 140.697 231.728 140.697 232.745C140.697 233.763 139.951 234.595 139.04 234.595C138.128 234.595 137.382 234.249 137.382 233.825ZM123.469 168.942C122.122 165.242 122.126 165.228 124.779 164.155C126.275 163.55 127.367 164.72 127.864 167.462C128.732 172.248 125.116 173.466 123.469 168.942ZM120.143 156.267C118.665 153.746 120.019 151.309 124.213 148.944C128.295 146.641 128.374 149.134 124.385 154.326C122.296 157.046 120.959 157.657 120.143 156.267ZM157.274 139.099C157.274 135.652 161.348 131.526 164.753 131.526C167.789 131.526 167.26 135.764 164.18 136.112C160.122 136.57 159.825 136.864 161.972 138.298C163.654 139.422 163.356 140.004 160.729 140.729C158.378 141.376 157.274 140.856 157.274 139.099ZM177.238 117.26C177.198 115.658 176.377 114.071 175.413 113.733C172.824 112.823 175.04 108.413 180.014 104.572C184.325 101.243 184.362 101.243 183.035 104.572C182.295 106.426 180.705 110.694 179.501 114.057C178.296 117.42 177.278 118.861 177.238 117.26Z" fill="#01A964" fill-opacity="0.3"/>
<path d="M123.863 313.002C122.129 311.844 122.259 311.508 124.453 311.487C126.003 311.472 127.868 310.396 128.597 309.095C129.326 307.794 131.601 305.801 133.652 304.666C135.704 303.531 137.382 301.479 137.382 300.105C137.382 296.663 142.679 293.991 149.502 293.991C155.002 293.991 160.03 290.49 157.842 288.185C157.259 287.57 155.059 287.523 152.953 288.08C150.458 288.74 147.348 287.759 144.023 285.264C141.217 283.159 137.92 281.841 136.696 282.336C134.449 283.245 130.751 280.498 130.751 277.919C130.751 277.151 131.928 276.522 133.365 276.522C134.803 276.522 138.11 274.277 140.713 271.533C146.267 265.68 146.322 259.701 140.817 260.36C138.272 260.664 137.577 260.143 138.488 258.613C139.201 257.413 139.553 254.946 139.269 253.13C138.862 250.526 139.396 250.114 141.797 251.183C146.187 253.136 152.679 252.415 155.269 249.685C156.498 248.39 157.849 244.155 158.272 240.274C158.923 234.302 158.587 233.256 156.086 233.469C153.718 233.672 153.108 232.331 153.022 226.734L152.914 219.746L143.49 219.959C133.342 220.188 132.236 219.055 137.347 213.669C139.778 211.107 140.369 208.844 139.627 204.934C139.001 201.636 139.305 199.657 140.438 199.657C141.435 199.657 141.883 198.646 141.433 197.411C140.558 195.008 134.067 194.239 134.067 196.537C134.067 197.292 133.364 197.91 132.506 197.91C131.647 197.91 130.911 195.355 130.87 192.232C130.83 189.11 130.76 184.982 130.715 183.061C130.46 172.131 132.41 160.303 134.767 158.487C136.205 157.379 137.406 155.379 137.435 154.044C137.547 148.881 141.669 146.015 150.229 145.149C157.767 144.386 158.931 144.682 158.931 147.363C158.931 149.065 156.254 152.201 152.983 154.332C148.433 157.295 147.556 158.593 149.253 159.848C150.986 161.131 151.018 161.684 149.4 162.376C148.26 162.864 147.328 164.432 147.328 165.862C147.328 168.072 147.729 168.038 150.006 165.639C152.051 163.483 154.496 163.072 160.366 163.898C172.947 165.668 172.777 165.345 167.238 176.909C164.466 182.694 161.372 187.428 160.362 187.428C159.047 187.428 159.063 188.111 160.421 189.835C161.914 191.732 161.57 192.448 158.799 193.211C156.716 193.786 155.757 194.989 156.446 196.164C157.086 197.255 158.653 197.726 159.929 197.21C161.205 196.694 164.895 198.72 168.128 201.712C173.098 206.311 173.846 207.929 172.961 212.175C172.114 216.24 172.822 218.106 176.676 221.966C181.755 227.052 189.583 238.089 188.112 238.089C187.626 238.089 188.739 241.801 190.584 246.338C193.107 252.541 193.531 255.53 192.294 258.392C190.082 263.508 191.637 264.683 196.33 261.442C201.84 257.637 209.688 261.598 209.06 267.867C208.355 274.906 205.183 281.581 202.044 282.631C198.721 283.743 198.466 288.898 201.629 291.028C202.775 291.801 204.551 291.888 205.573 291.222C209.375 288.746 205.843 294.748 201.477 298.183C198.091 300.847 194.221 301.766 185.711 301.927C179.508 302.044 173.678 302.631 172.756 303.232C170.273 304.849 160.189 305.118 156.895 303.654C154.899 302.767 152.578 303.912 149.238 307.432C145.139 311.751 143.994 312.173 141.328 310.344C138.788 308.601 137.089 308.787 132.151 311.348C128.413 313.286 125.237 313.92 123.863 313.002ZM117.792 230.228C115.669 225.318 112.89 224.551 111.459 228.481C110.126 232.143 107.988 231.746 105.797 227.43C104.222 224.33 104.634 222.986 108.44 218.799C111.153 215.816 112.553 212.755 111.956 211.116C110.869 208.13 113.358 207.331 115.004 210.138C115.567 211.099 117.663 211.891 119.66 211.899C122.18 211.908 124.503 214.146 127.247 219.209L131.203 226.505L126.74 230.55C121.117 235.648 120.12 235.612 117.792 230.228ZM137.382 233.825C137.382 233.401 138.128 232.569 139.04 231.975C139.951 231.381 140.697 231.728 140.697 232.745C140.697 233.763 139.951 234.595 139.04 234.595C138.128 234.595 137.382 234.249 137.382 233.825ZM123.469 168.942C122.122 165.242 122.126 165.228 124.779 164.155C126.275 163.55 127.367 164.72 127.864 167.462C128.732 172.248 125.116 173.466 123.469 168.942ZM120.143 156.267C118.665 153.746 120.019 151.309 124.213 148.944C128.295 146.641 128.374 149.134 124.385 154.326C122.296 157.046 120.959 157.657 120.143 156.267ZM157.274 139.099C157.274 135.652 161.348 131.526 164.753 131.526C167.789 131.526 167.26 135.764 164.18 136.112C160.122 136.57 159.825 136.864 161.972 138.298C163.654 139.422 163.356 140.004 160.729 140.729C158.378 141.376 157.274 140.856 157.274 139.099ZM177.238 117.26C177.198 115.658 176.377 114.071 175.413 113.733C172.824 112.823 175.04 108.413 180.014 104.572C184.325 101.243 184.362 101.243 183.035 104.572C182.295 106.426 180.705 110.694 179.501 114.057C178.296 117.42 177.278 118.861 177.238 117.26Z" fill="#01A964" fill-opacity="0.3"/>
<path d="M291.804 218.759C289.668 217.857 287.244 217.56 286.417 218.099C285.589 218.638 284.912 216.721 284.912 213.839C284.912 210.957 283.047 203.151 280.768 196.492C275.955 182.43 275.565 176.23 279.296 173.085C280.766 171.846 284.957 167.821 288.61 164.14C296.525 156.165 298.752 157.395 296.758 168.642C295.208 177.383 296.549 180.44 301.931 180.44C304.672 180.44 304.35 181.78 299.113 192.175C292.839 204.627 291.6 212.611 295.687 214.264C297.054 214.817 298.173 216.473 298.173 217.945C298.173 220.97 297.303 221.081 291.804 218.759ZM312.886 214.942C312.773 214.702 312.498 211.53 312.275 207.894C311.878 201.441 314.481 197.91 319.633 197.91C321.931 197.91 319.946 212.246 317.399 214.042C315.59 215.317 313.28 215.778 312.886 214.942ZM300.386 208.773C298.952 207.824 299.055 206.633 300.784 204.14C303.644 200.018 305.886 201.821 303.821 206.583C302.937 208.622 301.522 209.524 300.386 208.773ZM125.811 73.8988C123.754 72.5585 123.829 72.1389 126.311 71.1353C129.77 69.7366 132.028 71.4842 129.798 73.8339C128.857 74.8262 127.275 74.8519 125.811 73.8988Z" fill="#01A964" fill-opacity="0.3"/>
<path d="M410.202 555.728C408.455 554.659 404.725 553.153 401.914 552.382C383.716 547.387 373.228 540.988 376.896 537.12C378.027 535.929 384.082 535.003 390.172 535.09C401.288 535.25 403.335 534.912 405.866 532.498C407.406 531.029 409.764 529.827 411.106 529.827C412.447 529.827 414.44 528.883 415.534 527.73C418.219 524.9 418.253 531.467 415.585 537.638C413.912 541.508 414.139 542.601 417.243 545.649C421.525 549.853 421.687 551.393 418.233 555.032C415.18 558.25 414.431 558.315 410.202 555.728ZM423.613 523.386C424.132 519.722 425.771 515.694 427.256 514.433C429.7 512.358 429.709 511.945 427.358 510.066C425.93 508.924 422.629 503.972 420.024 499.062C416.512 492.445 414.521 490.345 412.328 490.949C410.454 491.466 407.579 489.699 404.488 486.132C401.803 483.035 398.916 480.949 398.074 481.498C397.231 482.047 393.901 480.203 390.673 477.399C387.446 474.595 384.353 472.779 383.799 473.362C383.246 473.946 381.638 473.413 380.226 472.178C378.815 470.943 377.251 470.364 376.752 470.89C376.253 471.416 371.235 469.042 365.603 465.614C359.97 462.185 352.751 457.924 349.56 456.144C342.419 452.161 333.262 441.863 330.366 434.559C328.377 429.542 323.038 423.092 323.038 425.706C323.038 426.324 319.972 425.181 316.226 423.167L309.414 419.504L302.35 427.498C294.645 436.219 292.339 437.406 293.691 431.958C294.376 429.194 293.335 427.881 288.911 425.933C284.814 424.129 283.247 422.334 283.229 419.422C283.215 417.212 282.537 414.294 281.723 412.939C280.817 411.429 280.951 409.28 282.071 407.391C283.416 405.12 283.375 403.097 281.916 399.722C280.033 395.367 280.245 395.002 286.153 392.437C289.573 390.952 294.013 388.14 296.019 386.187L299.667 382.638L305.551 386.296L311.434 389.954V385.85C311.434 382.418 312.229 381.789 316.293 382.004C318.965 382.146 321.7 382.84 322.371 383.546C324.722 386.024 326.731 384.799 325.888 381.402C325.42 379.516 326.131 377.016 327.468 375.846C328.805 374.677 329.536 372.258 329.092 370.47C328.462 367.931 328.968 367.447 331.401 368.261C333.114 368.834 336.206 368.349 338.272 367.184C344.103 363.895 352.468 363.724 353.613 366.87C354.34 368.866 356.19 369.335 360.779 368.687C366.954 367.815 366.965 367.825 366.834 374.139C366.762 377.618 366.575 381.427 366.419 382.603C366.139 384.721 356.897 390.731 353.704 390.872C350.795 391.001 350.734 400.468 353.635 401.641C355.604 402.437 355.816 403.291 354.471 405C350.669 409.827 360.392 422.131 371.536 426.597C373.832 427.517 377.472 431.627 379.626 435.73C383.783 443.651 395.282 454.021 401.828 455.752C404.007 456.329 408.019 455.608 410.815 454.138C416.08 451.37 417.056 452.593 414.149 458.317C412.722 461.128 412.984 461.696 415.708 461.696C417.509 461.696 424.153 463.662 430.471 466.064C436.79 468.466 443.137 470.431 444.575 470.431C448.499 470.431 455.649 478.174 455.649 482.423C455.649 486.951 453.548 487.188 449.682 483.096C448.093 481.415 443.972 479.15 440.524 478.064C435.171 476.378 433.88 476.525 431.691 479.075C430.28 480.718 429.126 484.967 429.126 488.518C429.126 493.755 429.89 495.281 433.17 496.595C435.394 497.486 438.099 499.959 439.181 502.091C440.829 505.335 440.658 506.345 438.137 508.289C436.479 509.566 434.439 510.611 433.603 510.611C432.767 510.611 432.579 512.698 433.187 515.249C433.795 517.8 433.689 520.355 432.952 520.926C432.216 521.498 430.787 523.538 429.778 525.459C428.768 527.381 426.756 529.2 425.306 529.5C423.142 529.95 422.839 528.856 423.613 523.386ZM315.728 525.023C315.232 523.341 314.394 518.107 313.866 513.392C313.338 508.676 311.829 502.623 310.513 499.94C307.535 493.872 307.532 493.141 310.485 493.141C311.786 493.141 314.318 491.176 316.111 488.774C323.713 478.588 329.668 487.303 329.668 508.613C329.668 521.445 329.425 522.445 326.495 521.637C324.406 521.062 322.686 522.014 321.464 524.421C319.199 528.881 316.937 529.118 315.728 525.023Z" fill="#01A964" fill-opacity="0.3"/>
<path d="M251.7 320.065C249.649 318.994 247.97 317.519 247.97 316.786C247.97 316.053 246.502 315.453 244.707 315.453C240.675 315.453 222.07 302.21 220.659 298.337C219.554 295.302 226.513 288.337 228.052 290.937C229.7 293.722 235.578 293.463 239.927 290.413C246.238 285.987 253.222 287.427 256.094 293.748C257.372 296.558 259.423 299.486 260.653 300.254C263.527 302.05 263.463 304.643 260.392 310.849C259.03 313.601 257.916 317.335 257.916 319.147C257.916 322.796 257.149 322.909 251.7 320.065Z" fill="#01A964" fill-opacity="0.3"/>
<path d="M258.53 294.636C258.052 286.787 246.894 283.596 239.935 289.318C237.228 291.545 234.937 292.134 232.667 291.188C230.844 290.428 230.31 289.751 231.482 289.684C232.654 289.616 235.417 288.315 237.624 286.791C240.789 284.606 241.272 283.408 239.914 281.114C236.086 274.643 248.925 252.05 257.346 250.44C259.697 249.991 262.312 249.173 263.156 248.623C265.778 246.916 269.964 249.594 269.964 252.98C269.964 254.754 269.04 258.341 267.911 260.953C266.28 264.727 266.28 265.848 267.911 266.421C271.416 267.652 270.185 271.263 264.84 275.427C261.409 278.101 259.978 280.477 260.51 282.621C260.947 284.382 260.718 288.432 260.002 291.622C259.286 294.812 258.623 296.168 258.53 294.636Z" fill="#01A964" fill-opacity="0.3"/>
<path d="M310.892 359.691C307.516 356.811 306.319 356.712 299.009 358.711C294.538 359.933 289.79 360.492 288.458 359.954C285.124 358.605 285.426 352.343 289.351 341.461C291.174 336.406 292.666 332.122 292.666 331.94C292.667 331.758 287.524 331.075 281.238 330.422C271.656 329.427 269.482 328.59 267.782 325.242C266.666 323.046 266.262 320.382 266.883 319.323C267.504 318.264 266.769 316.894 265.248 316.279C263.071 315.398 262.697 313.755 263.489 308.536C264.064 304.744 263.775 301.441 262.812 300.815C261.887 300.212 261.253 295.251 261.403 289.791C261.643 281.042 262.285 279.303 266.811 275.152C271.246 271.085 271.675 269.975 269.959 267.021C268.427 264.384 268.418 262.351 269.921 258.155C271.434 253.932 271.415 251.941 269.837 249.278C266.595 243.808 267.408 242.304 273.604 242.304C277.828 242.304 279.406 243.067 279.406 245.111C279.406 246.832 280.326 247.546 281.785 246.956C283.094 246.427 284.541 246.932 285.001 248.079C285.461 249.226 285.696 247.414 285.523 244.052C285.258 238.909 285.804 237.849 288.962 237.376C291.359 237.016 292.275 236.069 291.495 234.754C290.823 233.622 290.039 231.516 289.752 230.075C288.72 224.894 288.409 223.926 287.026 221.59C285.923 219.729 286.468 219.508 289.559 220.562C291.724 221.301 295.361 222.161 297.64 222.473C307.204 223.781 309.23 224.238 310.253 225.316C310.846 225.941 314.405 226.041 318.161 225.539C321.917 225.037 328.721 225.519 333.279 226.609C337.838 227.699 343.332 228.793 345.489 229.039C350.936 229.66 353.217 234.522 350.745 240.24C349.152 243.925 349.232 245.129 351.167 246.62C352.48 247.632 355.831 253.213 358.614 259.025C361.397 264.836 364.855 270.622 366.297 271.883C369.875 275.013 369.832 281.479 366.242 280.027C364.537 279.338 361.332 281.071 357.418 284.797C354.037 288.016 347.44 292.546 342.758 294.864C333.415 299.489 332.436 300.904 337.423 302.573C339.247 303.183 340.738 304.779 340.738 306.119C340.738 310.107 353.886 322.202 359.509 323.387L364.719 324.485L357.331 331.192C349.461 338.334 349.505 337.969 355.21 348.93C355.478 349.445 353.314 350.058 350.4 350.292C347.487 350.526 344.301 351.419 343.321 352.277C342.34 353.134 336.375 355.097 330.064 356.64C323.754 358.182 317.703 360.22 316.618 361.169C315.268 362.35 313.461 361.884 310.892 359.691Z" fill="#01A964" fill-opacity="0.3"/>
<path d="M259.506 318.137C259.506 314.268 259.875 313.998 262.656 315.828C266.086 318.085 265.528 322.519 261.815 322.519C260.455 322.519 259.506 320.718 259.506 318.137Z" fill="#01A964" fill-opacity="0.3"/>
<path d="M282.805 389.525C282.805 384.857 276.671 382.969 271.996 386.197C266.47 390.013 265.347 388.538 269.521 382.946C271.357 380.486 272.859 377.248 272.859 375.75C272.859 371.218 284.396 360.256 288.093 361.275C289.873 361.766 294.906 361.189 299.276 359.995C306.282 358.079 307.641 358.18 310.761 360.842C312.708 362.503 314.3 364.619 314.3 365.543C314.3 366.467 317.284 367.726 320.931 368.341C327.845 369.506 329.47 372.56 325.174 376.318C323.843 377.482 323.246 379.703 323.826 381.336C324.703 383.803 324.458 383.916 322.28 382.052C320.858 380.834 318.48 380.329 316.997 380.928C315.408 381.571 314.3 381.137 314.3 379.871C314.3 378.184 313.767 378.19 311.814 379.898C310.446 381.094 309.328 383.139 309.328 384.442C309.328 386.335 308.495 386.411 305.183 384.821C302.904 383.727 301.039 382.024 301.039 381.038C301.039 380.052 298.988 381.307 296.481 383.828C290.487 389.854 282.805 393.054 282.805 389.525Z" fill="#01A964" fill-opacity="0.3"/>
<path d="M320.299 364.227C317.681 361.468 318.016 361.146 325.66 359.073C330.144 357.857 337.542 355.637 342.1 354.139C346.659 352.641 351.881 351.195 353.704 350.925C357.584 350.35 357.705 349.043 354.512 342.245C352.215 337.357 352.332 337.057 358.72 331.405C362.895 327.711 365.867 326.2 366.873 327.261C367.744 328.179 370.531 328.93 373.067 328.93C376.601 328.93 377.919 327.911 378.717 324.562C379.794 320.037 380.223 319.905 395.145 319.501C401.015 319.342 401.841 319.822 402.349 323.689C402.664 326.091 403.609 328.939 404.449 330.018C406.334 332.439 404.573 337.813 402.001 337.488C396.333 336.772 395.477 337.684 398.506 341.211C403.027 346.476 400.143 353.333 391.502 357.865C387.718 359.85 383.633 362.301 382.424 363.313C381.215 364.325 374.534 365.674 367.576 366.312C357.319 367.251 354.752 366.99 354.003 364.932C353.01 362.207 343.621 362.132 339.5 364.816C335.089 367.689 323.239 367.325 320.299 364.227Z" fill="#01A964" fill-opacity="0.3"/>
<path d="M406.258 115.022C406.812 113.502 407.265 111.93 407.265 111.528C407.265 111.126 409.156 110.797 411.467 110.797C415.156 110.797 415.453 111.224 413.895 114.291C411.731 118.553 404.729 119.222 406.258 115.022ZM431.582 116.626C430.971 115.982 430.472 113.621 430.472 111.379C430.472 106.951 428.873 106.193 425.975 109.247C423.255 112.113 420.862 109.766 418.681 102.093C416.856 95.6731 417.02 94.9672 421.536 89.8175C427.841 82.6276 437.767 77.2767 442.487 78.5228C444.54 79.0648 447.67 78.3886 449.445 77.02C451.832 75.1785 453.86 74.9692 457.251 76.2147C462.726 78.2264 464.318 82.4423 462.014 88.8301C460.6 92.7502 461.004 94.5916 464.458 99.9479C466.735 103.479 468.597 106.852 468.597 107.444C468.597 108.035 465.661 109.915 462.072 111.62C457.262 113.907 453.581 114.41 448.061 113.538C442.567 112.67 439.526 113.079 436.634 115.076C434.467 116.573 432.193 117.27 431.582 116.626ZM406.391 103.886C406.93 102.967 408.466 102.658 409.804 103.199C413.231 104.585 412.827 105.556 408.824 105.556C406.947 105.556 405.852 104.805 406.391 103.886Z" fill="#01A964" fill-opacity="0.3"/>
<path d="M406.423 157.619C405.829 156.607 405.851 151.177 406.47 145.552C407.271 138.275 408.664 134.267 411.298 131.66L414.999 127.995L422.342 133.055C427.898 136.883 430.995 137.9 435.072 137.233C440.695 136.314 441.91 134.407 438.387 132.032C437.247 131.264 435.46 128.117 434.416 125.039C432.688 119.945 432.876 119.195 436.512 116.684C439.463 114.646 442.598 114.218 448.508 115.044C454.412 115.869 457.926 115.391 461.914 113.217C467.157 110.36 467.441 110.391 471.336 114.248C473.545 116.435 477.204 121.714 479.466 125.98L483.579 133.735L477.041 139.883C469.556 146.92 463.573 148.183 450.879 145.406C442.907 143.662 441.686 143.856 435.132 147.903C431.224 150.317 424.871 152.823 421.013 153.473C417.156 154.123 413.148 155.736 412.108 157.057C409.845 159.93 407.891 160.123 406.423 157.619Z" fill="#01A964" fill-opacity="0.3"/>
<path d="M443.481 189.537C441.056 188.198 439.072 186.36 439.072 185.452C439.072 184.544 437.297 182.575 435.127 181.077C431.648 178.674 430.374 178.645 424.352 180.832C418.074 183.112 417.523 183.067 417.523 180.285C417.523 178.62 415.354 173.855 412.703 169.695L407.883 162.132L411.46 159.204C413.427 157.593 418.02 155.71 421.667 155.019C425.314 154.328 431.495 151.806 435.402 149.414C442.052 145.345 443.096 145.195 451.7 147.078C456.756 148.184 462.583 148.642 464.649 148.095C470.366 146.583 472.948 153.649 468.771 159.376C467.064 161.716 465.635 166.382 465.594 169.745C465.509 176.801 462.243 181.807 453.841 187.757C448.431 191.588 447.488 191.75 443.481 189.537Z" fill="#01A964" fill-opacity="0.3"/>
<path d="M405.919 200.005C405.919 199.484 407.225 197.487 408.82 195.567C411.583 192.243 411.583 192.129 408.82 193.191C407.225 193.804 405.943 193.741 405.972 193.051C406.086 190.336 410.235 186.54 413.379 186.273C415.202 186.119 419.837 184.757 423.679 183.247C427.52 181.737 431.83 180.973 433.256 181.55C436.407 182.824 439.576 188.65 438.301 190.824C436.489 193.914 405.919 202.581 405.919 200.005Z" fill="#01A964" fill-opacity="0.3"/>
<path d="M420.931 296.87C419.723 293.52 417.994 292.173 414.663 291.985C412.133 291.843 408.571 291.647 406.748 291.549C404.925 291.451 403.609 290.421 403.824 289.261C404.358 286.38 392.674 284.149 391.101 286.832C389.644 289.316 384.37 287.469 384.37 284.476C384.37 283.291 381.386 281.284 377.739 280.016C374.093 278.747 371.109 276.752 371.109 275.582C371.109 274.413 369.927 272.422 368.483 271.159C367.038 269.895 363.335 263.585 360.253 257.135C357.171 250.686 353.817 245.117 352.8 244.76C351.455 244.287 351.483 242.879 352.903 239.595C354.479 235.949 354.357 234.064 352.269 229.809C349.893 224.967 349.914 224.322 352.522 221.879C354.084 220.417 358.087 218.035 361.418 216.586C364.749 215.137 367.914 212.504 368.451 210.734C369.466 207.395 383.862 196.163 387.128 196.163C388.151 196.163 389.403 197.301 389.909 198.692C391.456 202.939 400.798 207.202 403.459 204.874C404.71 203.78 410.725 201.784 416.824 200.439C422.924 199.094 431.067 196.385 434.921 194.42C438.774 192.454 443.08 191.312 444.49 191.882C445.9 192.452 448.71 196.977 450.735 201.937C452.76 206.896 455.614 211.877 457.078 213.006C459.429 214.817 459.474 215.831 457.466 221.686C455.334 227.898 455.414 228.471 458.735 230.795C460.954 232.347 462.279 235.107 462.279 238.175C462.279 241.272 463.748 244.294 466.268 246.384C471.613 250.814 471.802 254.201 467.524 268.924C464.684 278.698 464.267 282.45 465.607 286.164L467.319 290.912L456.925 289.745C448.892 288.844 445.778 289.181 443.216 291.229C441.393 292.687 438.675 293.905 437.177 293.935C435.679 293.966 433.992 295.259 433.428 296.808C432.565 299.179 431.983 299.259 429.756 297.311C427.519 295.354 426.761 295.498 424.855 298.246C422.715 301.331 422.515 301.261 420.931 296.87Z" fill="#01A964" fill-opacity="0.3"/>
<path d="M364.709 323.676C362.557 321.762 359.552 320.195 358.031 320.195C354.703 320.195 342.929 308.53 342.929 305.234C342.929 303.95 341.735 302.195 340.276 301.334C338.131 300.069 339.163 298.837 345.663 294.902C350.086 292.224 355.78 288.001 358.317 285.516C365.712 278.274 376.735 278.956 384.496 287.135C387.89 290.713 392.659 291.656 392.659 288.75C392.659 285.831 399.016 286.8 400.703 289.977C401.572 291.612 404.406 293.083 407.002 293.245C409.598 293.408 413.4 293.642 415.451 293.766C420.225 294.054 420.505 300.109 415.865 302.726C414.042 303.754 412.55 305.719 412.55 307.093C412.55 308.467 410.872 310.522 408.82 311.66C406.769 312.799 404.686 314.378 404.191 315.17C403.696 315.962 397.728 316.827 390.93 317.092C379.231 317.549 378.524 317.808 377.732 321.942C376.651 327.586 370.087 328.46 364.709 323.676Z" fill="#01A964" fill-opacity="0.3"/>
<path d="M459.928 230.128C457.214 228.027 457.032 227.011 458.685 223.187C461.294 217.153 461.125 212.463 458.256 211.302C456.955 210.776 454.299 206.565 452.353 201.944L448.815 193.542L452.495 190.922C461.906 184.22 467.252 176.758 467.289 170.271C467.309 166.695 468.72 161.933 470.469 159.533C472.834 156.291 473.203 154.415 471.958 151.964C470.106 148.318 473.619 142.886 478.989 141.09C480.646 140.536 482.454 138.578 483.008 136.738C484.406 132.096 493.724 130.472 499.78 133.816C504.068 136.184 505.06 136.118 510.694 133.089L516.891 129.757L519.302 133.699C520.629 135.867 522.642 139.822 523.776 142.488C526.133 148.027 540.983 157.73 547.103 157.73C551.428 157.73 555.107 160.622 555.107 164.021C555.107 165.176 552.449 167.772 549.202 169.792L543.297 173.463L546.927 180.27L550.557 187.077L546.129 193.195C542.942 197.598 541.987 200.514 542.72 203.594C543.678 207.617 543.246 207.937 535.558 208.896C531.058 209.458 522.613 211.982 516.791 214.505C507.672 218.457 504.756 218.935 495.728 217.957C487.065 217.018 483.68 217.493 476.19 220.696C470.971 222.929 466.277 226.272 465.119 228.581C463.319 232.17 462.775 232.332 459.928 230.128Z" fill="#01A964" fill-opacity="0.3"/>
<path d="M553.853 331.263C552.708 330.776 552.228 329.598 552.787 328.646C553.346 327.693 554.842 322.219 556.112 316.482L558.421 306.052L550.133 297.318C545.575 292.514 541.846 287.846 541.846 286.945C541.846 286.043 538.912 283.26 535.326 280.759C528.205 275.792 522.816 276.148 521.145 281.695C520.607 283.482 518.331 286.211 516.088 287.761C513.844 289.31 512.008 291.686 512.008 293.04C512.008 294.394 510.345 296.059 508.312 296.739C506.279 297.419 502.493 300.37 499.898 303.297C496.553 307.072 494.816 307.996 493.926 306.478C493.057 304.997 491.436 304.82 488.664 305.903C480.694 309.019 468.224 309.718 465.104 307.224C461.728 304.525 462.619 296.317 466.659 292.897C468.447 291.383 468.588 289.832 467.268 286.173C465.924 282.448 466.339 278.708 469.182 268.924C473.495 254.079 473.302 250.494 467.96 246.241C459.632 239.612 463.865 227.715 476.47 222.324C483.668 219.245 487.137 218.773 495.728 219.703C504.716 220.677 507.681 220.2 516.568 216.347C522.266 213.877 530.845 211.242 535.631 210.493C543.918 209.194 544.316 208.891 543.985 204.126C543.614 198.766 549.022 189.175 552.416 189.175C553.548 189.175 558.832 186.409 564.16 183.028C574.994 176.152 578.717 176.31 582.391 183.799C585.643 190.425 591.634 194.253 597.046 193.163C600.533 192.461 602.574 193.488 606.509 197.927C611.067 203.069 612.146 203.482 618.301 202.445C622.027 201.817 627.292 200.096 630.001 198.619C634.441 196.2 635.316 196.204 638.88 198.665C642.165 200.934 644.256 201.074 651.253 199.493C664.389 196.524 664.511 196.703 664.511 218.931V238.315L659.478 242.777C656.711 245.232 653.429 249.308 652.186 251.836C648.979 258.358 641.889 266.04 639.076 266.04C637.764 266.04 636.194 268.125 635.587 270.673C634.499 275.24 625.782 285.256 622.895 285.256C622.08 285.256 621.412 286.042 621.412 287.003C621.412 287.964 619.92 288.75 618.097 288.75C616.192 288.75 614.782 289.915 614.782 291.488C614.782 293.431 613.819 293.904 611.467 293.117C609.613 292.497 608.151 292.804 608.151 293.812C608.151 296.846 602.015 299.312 598.183 297.818C594.966 296.564 594.868 296.185 597.231 294.118C600.948 290.867 600.511 288.262 596.617 290.458C593.997 291.936 593.028 291.611 591.586 288.772C590.604 286.839 589.055 285.256 588.143 285.256C587.077 285.256 587.118 286.503 588.26 288.75C589.235 290.672 589.635 292.342 589.147 292.462C588.659 292.582 587.581 292.779 586.752 292.899C583.557 293.362 578.314 302.657 578.314 307.86C578.314 311.188 577.307 313.724 575.732 314.361C574.312 314.935 573.522 316.426 573.977 317.674C574.902 320.214 561.588 332.501 558.143 332.286C556.929 332.21 554.999 331.749 553.853 331.263Z" fill="#01A964" fill-opacity="0.3"/>
<path d="M549.22 320.792C547.974 311.725 546.038 307.966 542.612 307.966C540.242 307.966 534.685 303.399 525.285 293.724L519.086 287.343L522.873 282.369L526.66 277.395L532.524 280.687C535.749 282.497 540.425 287.076 542.914 290.861C545.403 294.647 549.564 299.496 552.159 301.636L556.879 305.529L554.443 316.533C553.103 322.586 551.641 327.923 551.195 328.394C550.748 328.865 549.859 325.444 549.22 320.792Z" fill="#01A964" fill-opacity="0.3"/>
<path d="M409.235 330.86C405.707 329.826 405.091 328.618 405.091 322.737C405.091 317.239 405.856 315.474 408.835 314.096C410.895 313.144 413.055 310.789 413.635 308.862C414.901 304.66 419.379 300.902 421.486 302.274C422.318 302.816 424.09 301.764 425.424 299.935C427.122 297.609 428.082 297.266 428.626 298.795C429.511 301.283 434.099 301.797 434.099 299.408C434.099 298.544 437.207 296.13 441.006 294.044C446.51 291.02 449.499 290.479 455.717 291.38L463.52 292.511L461.896 299.252C460.396 305.481 459.964 305.87 456.219 304.369C451.453 302.46 440.817 307.371 436.875 313.302C435.546 315.301 431.954 318.339 428.892 320.053C425.83 321.767 422.351 325.251 421.162 327.796C418.973 332.481 416.729 333.057 409.235 330.86Z" fill="#01A964" fill-opacity="0.3"/>
<path d="M418.352 368.748C413.351 366.906 402.714 359.386 400.687 356.26C400.088 355.337 400.42 352.682 401.423 350.361C402.779 347.226 402.739 345.28 401.269 342.799C398.689 338.447 398.771 337.565 401.648 338.728C403.006 339.277 404.803 338.115 405.882 335.991C407.385 333.031 408.805 332.493 413.054 333.272C419.13 334.387 421.855 332.964 422.719 328.225C423.052 326.397 426.14 323.362 429.58 321.481C433.021 319.601 436.589 316.579 437.51 314.767C440.307 309.259 451.438 304.2 456.394 306.186C458.719 307.118 460.622 307.462 460.622 306.951C460.622 306.44 463.046 307.442 466.009 309.178C468.972 310.914 471.675 312.497 472.016 312.696C472.357 312.895 470.94 316.04 468.868 319.684C466.795 323.328 464.881 328.274 464.614 330.677C462.895 346.144 461.781 349.571 457.863 351.453C455.647 352.516 452.422 353.387 450.696 353.387C448.969 353.387 447.049 354.251 446.429 355.308C445.161 357.47 425.84 370.932 424.311 370.718C423.768 370.642 421.087 369.756 418.352 368.748Z" fill="#01A964" fill-opacity="0.3"/>
<path d="M496.675 387.14C495.079 386.69 493.774 384.854 493.774 383.059C493.774 381.265 492.992 379.287 492.036 378.665C490.828 377.878 490.84 376.845 492.073 375.279C493.434 373.551 492.775 372.806 489.252 372.084C486.725 371.567 484.408 371.865 484.105 372.747C483.084 375.707 474.732 374.437 472.703 371.013C471.615 369.178 468.265 367.107 465.259 366.411C462.253 365.715 458.78 363.623 457.543 361.761C456.306 359.9 453.695 357.697 451.741 356.866C448.784 355.608 448.689 355.336 451.172 355.244C452.813 355.183 456.253 353.99 458.818 352.593C463.432 350.078 464.306 347.52 466.304 330.677C466.589 328.274 468.848 322.575 471.323 318.011C474.685 311.812 476.809 309.713 479.718 309.713C481.86 309.713 485.499 308.957 487.806 308.033C490.49 306.958 492.354 306.958 492.984 308.033C494.682 310.928 498.477 309.868 499.585 306.19C500.168 304.252 503.575 301.092 507.156 299.167C510.736 297.242 513.666 294.55 513.666 293.185C513.666 287.062 522.432 289.07 524.413 295.647C524.977 297.52 526.817 299.514 528.502 300.078C530.186 300.641 533.319 302.946 535.462 305.2C537.605 307.454 540.792 309.588 542.544 309.943C544.953 310.43 546.191 313.027 547.625 320.601C549.83 332.241 549.723 332.078 556.056 333.399C559.604 334.138 561.893 333.439 564.569 330.796C569.524 325.904 572.76 326.253 574.086 331.823C574.833 334.959 574.354 337.345 572.608 339.185C570.764 341.128 570.025 341.271 570.025 339.682C570.025 338.459 569.398 337.867 568.63 338.367C567.115 339.354 567.295 344.83 569.226 356.488L570.463 363.957L566.1 362.209C563.53 361.179 560.205 361.075 558.008 361.955C555.956 362.777 553.776 363.347 553.163 363.222C550.872 362.755 538.561 371.841 537.66 374.664C535.848 380.339 505.416 389.603 496.675 387.14Z" fill="#01A964" fill-opacity="0.3"/>
<path d="M473.883 431.227C473.883 429.774 472.063 427.329 469.839 425.793C467.615 424.257 466.177 421.951 466.643 420.669C467.149 419.282 465.935 417.874 463.642 417.19C454.566 414.483 450.939 412.347 451.729 410.175C452.186 408.921 451.751 407.368 450.762 406.724C449.773 406.08 449.43 404.759 450 403.788C450.569 402.817 448.767 399.685 445.995 396.829C443.223 393.974 440.445 389.123 439.821 386.05C439.197 382.978 437.281 379.058 435.564 377.339C430.677 372.447 431.832 368.488 439.895 362.498C446.005 357.959 448.077 357.254 451.398 358.584C453.625 359.477 456.218 361.725 457.161 363.581C458.11 365.451 461.473 367.469 464.701 368.107C467.963 368.752 471.291 370.764 472.263 372.678C473.474 375.062 475.738 376.097 479.743 376.097C482.902 376.097 485.486 375.335 485.486 374.405C485.486 373.474 486.637 373.178 488.044 373.747C489.451 374.316 490.203 375.202 489.716 375.715C489.229 376.229 489.658 377.699 490.669 378.984C491.68 380.268 492.467 384.473 492.416 388.327C492.337 394.361 493.002 395.706 497.194 397.99C502.717 401 502.846 401.514 499.576 407.541C498.273 409.944 497.181 414.278 497.148 417.174C497.097 421.804 496.04 422.948 488.387 426.659C483.601 428.98 478.379 431.551 476.784 432.373C474.674 433.46 473.883 433.147 473.883 431.227Z" fill="#01A964" fill-opacity="0.3"/>
<path d="M367.598 387.725C367.49 386.614 367.635 384.919 367.92 383.958C368.205 382.997 368.48 379.066 368.53 375.223C368.619 368.533 368.87 368.211 374.424 367.662C377.615 367.347 381.345 366.103 382.713 364.898C387.254 360.897 397.945 356.513 399.407 358.053C401.643 360.409 399.272 367.132 395.795 368.295C394.07 368.872 392.658 370.746 392.658 372.46C392.658 374.173 391.858 377.995 390.88 380.952C389.526 385.043 388.284 386.163 385.683 385.635C383.802 385.253 381.866 384.521 381.38 384.009C380.893 383.496 379.316 384.147 377.874 385.455C374.202 388.786 367.837 390.192 367.598 387.725Z" fill="#01A964" fill-opacity="0.3"/>
<path d="M433.27 429.207L428.298 426.738L433.267 427.763C438.456 428.834 440.1 429.762 438.934 430.964C438.554 431.355 436.006 430.565 433.27 429.207ZM405.727 418.648C404.861 417.55 401.846 415.646 399.028 414.415C394.563 412.466 394.247 411.915 396.568 410.127C398.928 408.308 398.77 407.853 395.183 406.131C392.957 405.062 389.574 400.962 387.666 397.019C385.286 392.103 383.312 390.056 381.382 390.502C378.447 391.181 378.322 392.141 380.414 397.933C381.51 400.969 381.328 401.13 379.026 399.159C377.013 397.435 376.086 397.387 375.165 398.958C374.343 400.359 373.246 399.683 371.76 396.859C368.787 391.206 368.921 390.072 372.564 390.072C374.276 390.072 376.598 388.902 377.724 387.471C378.851 386.04 380.447 385.309 381.27 385.845C382.094 386.381 384.524 387.156 386.67 387.566C390.105 388.222 390.833 387.317 392.734 380.021C393.923 375.46 396.63 369.998 398.75 367.882C400.87 365.766 402.604 363.171 402.604 362.116C402.604 361.06 405.028 362.093 407.992 364.411C415.577 370.347 423.709 372.977 427.632 370.764C430.093 369.376 430.784 369.574 430.784 371.668C430.784 373.143 432.276 375.922 434.099 377.844C437.407 381.329 438.602 386.578 436.089 386.578C435.359 386.578 434.018 385.794 433.108 384.835C432.008 383.675 428.306 383.956 422.05 385.673C416.878 387.093 411.602 387.832 410.325 387.316C409.049 386.8 406.806 387.64 405.342 389.184C403.877 390.727 401.729 391.859 400.569 391.698C393.067 390.657 392.939 396.26 400.296 403.682C402.477 405.882 404.262 408.384 404.262 409.241C404.262 410.099 405.94 411.352 407.992 412.027C410.043 412.701 412.243 414.113 412.882 415.163C413.52 416.214 416.504 417.976 419.512 419.079C424.854 421.038 424.774 421.08 416.142 420.865C411.28 420.743 406.593 419.745 405.727 418.648Z" fill="#01A964" fill-opacity="0.3"/>
<path d="M430.538 425.524C428.052 425.121 425.803 423.421 425.352 421.603C424.898 419.774 422.391 417.893 419.52 417.228C416.751 416.587 414.073 414.932 413.569 413.549C413.066 412.167 411.774 411.035 410.697 411.035C407.89 411.035 397.97 399.846 397.337 395.966C396.951 393.603 397.655 392.846 399.866 393.245C401.551 393.549 404.301 392.49 405.977 390.89C407.654 389.291 409.758 388.46 410.653 389.043C411.547 389.625 416.564 388.926 421.801 387.488C428.652 385.608 431.924 385.401 433.467 386.75C434.647 387.782 436.39 388.119 437.342 387.499C438.294 386.879 439.072 387.537 439.072 388.961C439.072 390.385 441.359 393.961 444.154 396.906C446.949 399.852 448.802 403.003 448.271 403.908C447.741 404.813 448.016 406.015 448.883 406.58C449.75 407.145 448.726 409.579 446.606 411.989C444.486 414.4 441.834 418.709 440.711 421.565C439.589 424.421 437.828 426.64 436.799 426.496C435.77 426.352 432.953 425.915 430.538 425.524Z" fill="#01A964" fill-opacity="0.3"/>
<path d="M452.573 436.336C450.426 433.95 446.945 431.999 444.838 431.999C439.251 431.999 438.948 428.686 443.679 419.345C446.977 412.831 448.349 411.472 450.088 412.994C451.306 414.058 455.106 415.946 458.533 417.187C461.961 418.429 464.392 419.791 463.936 420.213C463.481 420.635 464.131 422.28 465.383 423.869C467.954 427.134 465.642 427.857 462.665 424.719C460.259 422.183 458.891 425.324 458.445 434.411C458.274 437.88 457.762 440.707 457.306 440.695C456.85 440.683 454.72 438.721 452.573 436.336Z" fill="#01A964" fill-opacity="0.3"/>
<path d="M477.198 479.389C477.198 478.41 475.146 476.573 472.639 475.307C470.132 474.04 468.081 472.004 468.081 470.78C468.081 469.557 467.238 467.996 466.208 467.31C465.178 466.625 463.787 460.954 463.117 454.709C462.447 448.463 461.24 442.032 460.434 440.416C459.583 438.709 459.592 434.683 460.457 430.808C461.276 427.139 462.021 425.15 462.113 426.387C462.213 427.748 463.999 428.438 466.633 428.134C470.56 427.681 471.278 428.56 473.949 437.092C475.65 442.528 479.091 448.701 482.036 451.602C486.459 455.959 486.903 457.16 485.271 460.372C484.232 462.419 483.238 467.682 483.063 472.067C482.827 477.958 482.02 480.187 479.971 480.604C478.446 480.915 477.198 480.368 477.198 479.389Z" fill="#01A964" fill-opacity="0.3"/>
<path d="M482.441 449.734C478.034 445.396 473.979 436.336 475.755 434.799C476.093 434.508 481.528 431.732 487.833 428.632C499.271 423.007 499.311 423.001 505.653 426.015C509.148 427.676 512.008 429.638 512.008 430.374C512.008 431.11 512.4 432.79 512.88 434.106C513.443 435.652 511.145 437.834 506.389 440.269C502.34 442.342 498.577 445.534 498.027 447.361C497.228 450.014 490.865 454.709 488.07 454.709C487.753 454.709 485.22 452.47 482.441 449.734Z" fill="#01A964" fill-opacity="0.3"/>
<path d="M513.666 431.059C513.666 429.629 510.309 426.741 506.206 424.64C497.87 420.372 496.802 416.573 501.338 407.329C504.183 401.53 502.84 398.11 496.94 396.136C495.199 395.554 493.774 393.75 493.774 392.128C493.774 389.71 495.644 389.116 504.134 388.836C517.604 388.393 532.833 382.023 541.418 373.242C549.219 365.264 559.705 361.556 566.944 364.216C571.41 365.857 573.935 372.603 570.084 372.603C566.991 372.603 564.817 379.356 566.71 383.084C567.971 385.567 567.971 387.59 566.71 390.072C565.682 392.098 565.592 393.566 566.497 393.566C569.859 393.566 565.986 400.813 558.991 407.608C553.655 412.791 551.906 415.652 552.622 418.029C554.123 423.013 548.005 425.627 538.082 424.24C531.164 423.272 529.234 423.651 526.296 426.551C524.364 428.458 520.731 430.838 518.224 431.839C514.52 433.318 513.666 433.172 513.666 431.059Z" fill="#01A964" fill-opacity="0.3"/>
<path d="M654.661 512.547C653.739 510.73 649.237 507.824 644.658 506.088C640.078 504.353 636.331 502.302 636.331 501.531C636.331 500.76 635.212 500.129 633.845 500.129C632.477 500.129 631.358 501.224 631.358 502.562C631.358 503.901 630.239 505.448 628.872 506.002C627.504 506.555 626.385 508.127 626.385 509.495C626.385 510.864 625.404 512.381 624.204 512.866C620.969 514.174 606.494 512.145 606.494 510.383C606.494 509.548 605.561 508.859 604.422 508.853C603.282 508.847 600.29 507.71 597.773 506.326C594.031 504.269 592.831 504.223 591.19 506.075C589.56 507.913 588.784 507.919 587.064 506.106C585.898 504.877 584.944 502.652 584.944 501.161C584.944 499.669 583.124 497.967 580.898 497.378C578.116 496.643 576.509 494.665 575.756 491.053C575.154 488.163 573.302 484.365 571.64 482.614C565.543 476.189 564.681 472.57 568.33 468.724C570.174 466.781 571.024 465.19 570.219 465.19C569.413 465.19 568.367 463.628 567.893 461.718C567.419 459.807 565.196 457.509 562.953 456.611C560.71 455.712 558.386 453.634 557.788 451.993C556.451 448.321 564.051 437.239 567.907 437.239C569.385 437.239 572.039 435.864 573.805 434.182C576.149 431.951 579.544 431.192 586.368 431.373C591.511 431.509 596.092 431.094 596.548 430.451C597.004 429.808 599.225 428.445 601.484 427.424C604.209 426.191 605.603 424.15 605.628 421.358C605.661 417.551 606.298 417.188 612.295 417.552C621.885 418.135 632.65 416.407 635.068 413.897C637.831 411.029 650.449 405.795 654.599 405.795C656.404 405.795 657.88 405.008 657.88 404.048C657.88 403.087 659.372 402.301 661.196 402.301C664.443 402.301 664.511 403.465 664.511 459.076V515.851H660.425C658.114 515.851 655.611 514.416 654.661 512.547ZM559.065 434.063C559.718 432.95 558.701 428.344 556.806 423.829L553.36 415.619L560.864 407.589C564.991 403.173 568.368 398.629 568.368 397.492C568.368 393.941 573.343 397.237 575.924 402.498C577.8 406.321 579.951 407.776 584.98 408.624C593.808 410.111 593.471 413.842 584.116 418.203C580.013 420.116 576.656 422.701 576.656 423.948C576.656 426.889 571.353 431.92 567.352 432.776C565.632 433.144 562.796 434.039 561.051 434.766C558.841 435.686 558.238 435.472 559.065 434.063Z" fill="#01A964" fill-opacity="0.3"/>
<path d="M550.964 550.793C549.466 548.237 550.233 547.523 556.517 545.624C559.755 544.645 562.067 544.697 562.691 545.763C563.326 546.844 564.392 546.859 565.615 545.802C566.673 544.887 572.015 543.571 577.485 542.878C582.955 542.185 588.736 540.902 590.332 540.028C592.185 539.012 593.233 539.082 593.233 540.222C593.233 541.202 588.697 544.418 583.153 547.367C575.234 551.58 572.572 552.292 570.738 550.688C568.59 548.81 560.468 549.402 554.328 551.885C553.117 552.374 551.604 551.883 550.964 550.793ZM525.196 527.651C522.732 524.251 522.523 524.236 519.658 527.255C517.161 529.887 516.441 529.995 515.199 527.926C514.384 526.569 513.705 524.231 513.691 522.731C513.677 521.23 511.453 518.278 508.748 516.171C505.947 513.988 504.208 511.303 504.707 509.933C505.743 507.088 522.727 501.093 525.196 502.701C526.134 503.312 528.073 503.121 529.505 502.276C531.627 501.024 531.706 500.391 529.933 498.857C526.375 495.78 519.813 495.768 514.326 498.829C511.498 500.407 507.396 501.588 505.209 501.454C500.473 501.164 491.707 494.888 496.037 494.888C497.528 494.888 498.747 494.102 498.747 493.141C498.747 491.305 498.485 491.195 492.561 490.538C485.408 489.744 483.803 486.608 484.508 474.8C485.282 461.832 487.229 457.402 493.706 453.872C496.349 452.432 498.942 449.827 499.467 448.084C499.992 446.341 503.774 443.198 507.872 441.1C511.97 439.001 515.324 436.488 515.324 435.515C515.324 434.542 516.385 433.745 517.683 433.745C518.98 433.745 522.295 431.747 525.049 429.305C529.49 425.368 531.003 424.997 538.409 426.032C544.702 426.912 547.754 426.514 550.791 424.417C554.709 421.711 554.871 421.785 556.622 427.077C557.612 430.07 558.422 432.796 558.422 433.133C558.422 433.47 554.32 433.745 549.305 433.745C544.291 433.745 540.188 434.532 540.188 435.492C540.188 436.453 539.062 437.239 537.685 437.239C536.309 437.239 533.905 438.812 532.344 440.733C530.783 442.655 528.526 444.227 527.329 444.227C525.666 444.227 525.572 445.052 526.927 447.721C527.903 449.642 530.353 451.235 532.373 451.261C535.125 451.295 534.385 452.107 529.414 454.507C523.703 457.263 522.18 457.388 518.435 455.404C513.158 452.609 512.008 453.597 512.008 460.925C512.008 471.825 523.601 482.442 538.965 485.612C546.392 487.144 546.586 490.262 539.171 488.912C535.628 488.266 529.372 487.394 525.269 486.974C517.263 486.153 518.915 487.051 533.558 491.479C541.034 493.74 545.161 497.192 545.161 501.184C545.161 502.814 544.026 502.868 540.366 501.412C536.476 499.865 535.068 500.034 532.908 502.311C530.462 504.889 530.587 505.402 534.443 508.598C539.08 512.442 537.248 515.373 532.043 512.438C525.49 508.742 525.08 511.523 531.071 519.026C535.678 524.797 536.522 528.982 532.773 527.466C531.429 526.922 529.751 527.537 529.043 528.831C528.031 530.681 527.208 530.429 525.196 527.651ZM590.701 522.762C589.402 520.547 592.828 515.851 595.744 515.851C598.683 515.851 599.986 520.264 597.744 522.626C595.411 525.085 592.101 525.149 590.701 522.762Z" fill="#01A964" fill-opacity="0.3"/>
<path d="M81.5789 281.889C79.2368 281.41 78.2666 280.25 78.8553 278.633C79.3583 277.252 78.9001 276.122 77.837 276.122C76.774 276.122 76.4146 275.251 77.0385 274.188C77.8017 272.886 77.0205 272.639 74.6498 273.432C72.7123 274.08 71.127 273.856 71.127 272.935C71.127 272.014 73.1783 270.669 75.6855 269.946L80.244 268.632L76.0999 267.31C73.7013 266.545 73.1121 265.915 74.7008 265.814C76.4248 265.705 78.4287 262.6 80.0882 257.468C83.2128 247.803 83.4299 243.467 80.835 242.555C79.4407 242.066 79.486 240.814 81.0062 237.82C82.3079 235.257 82.4731 233.348 81.4526 232.663C80.4855 232.013 80.395 229.991 81.228 227.644C82.7014 223.494 85.1631 222.542 86.8745 225.461C88.5305 228.284 94.206 227.469 97.8585 223.883C100.866 220.931 100.949 220.384 98.6015 219C94.7912 216.753 98.6034 212.146 105.523 210.636C112.286 209.16 112.639 212.012 106.527 218.736C102.303 223.383 102.244 223.719 104.908 228.003C108.033 233.03 110.564 233.684 111.968 229.828C113.451 225.758 115.03 226.678 118.063 233.381C121.59 241.176 121.729 258.805 118.324 266.368C115.967 271.603 115.279 271.959 108.334 271.527C104.117 271.266 101.285 271.761 101.817 272.668C102.334 273.551 100.754 274.802 98.3058 275.45C95.8573 276.098 92.4702 278.086 90.7787 279.868C89.0873 281.651 87.1439 283.002 86.4601 282.872C85.7763 282.741 83.5798 282.299 81.5789 281.889Z" fill="#01A964" fill-opacity="0.3"/>
</g>
<defs>
<clipPath id="clip0">
<rect width="562" height="589" fill="white"/>
</clipPath>
</defs>
</svg>
