<svg width="14" height="15" viewBox="0 0 14 15" fill="none" xmlns="http://www.w3.org/2000/svg"><path d="M7 .752A6.78 6.78 0 00.219 7.533 6.78 6.78 0 007 14.315a6.78 6.78 0 006.781-6.782A6.78 6.78 0 007 .752zm0 12.25a5.467 5.467 0 01-5.469-5.469A5.467 5.467 0 017 2.064a5.467 5.467 0 015.469 5.47A5.467 5.467 0 017 13.001zm1.69-2.855L6.368 8.46a.33.33 0 01-.134-.265v-4.49a.33.33 0 01.329-.328h.875a.33.33 0 01.328.328V7.58l1.826 1.329a.328.328 0 01.071.459l-.514.708a.33.33 0 01-.46.071z" fill="#fff"/></svg>