<svg width="509" height="467" viewBox="0 0 509 467" fill="none" xmlns="http://www.w3.org/2000/svg"><g opacity=".08" filter="url(#filter0_d)"><path d="M267.479 377.918C111.473 411.881 21.357 294.742 52.54 214.71c31.184-80.032 93.142-10.346 154.715-108.515 61.573-98.169 176.083-62.957 217.543 9.458 41.461 72.415-1.313 228.301-157.319 262.265z" fill="url(#paint0_linear)"/></g><path fill-rule="evenodd" clip-rule="evenodd" d="M359.284 233.232h-38.827v-5.033h38.827v5.033z" fill="#1EA0D9"/><path fill-rule="evenodd" clip-rule="evenodd" d="M244.957 337.13c0-.993 1.01-1.798 2.257-1.798H359.18c1.247 0 2.257.805 2.257 1.798s-1.01 1.798-2.257 1.798H247.214c-1.247 0-2.257-.805-2.257-1.798zm-40.983 9.707c0-1.192 1.013-2.157 2.262-2.157h152.941c1.249 0 2.262.965 2.262 2.157 0 1.191-1.013 2.157-2.262 2.157H206.236c-1.249 0-2.262-.966-2.262-2.157z" fill="#5CC7DA"/><path fill-rule="evenodd" clip-rule="evenodd" d="M306.748 68.577l2.96.867c6.247 1.773 10.992 6.537 12.757 12.81l.864 2.973-37.84 37.996-3.175-3.189 35.958-36.108-.124-.428-.003-.01c-1.34-4.77-4.915-8.36-9.666-9.706l-.009-.003-.427-.125-35.465 35.612-3.176-3.189 37.346-37.5z" fill="#5DC6D9"/><path fill-rule="evenodd" clip-rule="evenodd" d="M252.294 289.358a33.968 33.968 0 0119.838 0l.002.001 14.139 4.318c2.352.687 3.982 2.834 3.982 5.247v29.218h-4.54v-29.218c0-.463-.325-.872-.743-.992l-.018-.005-14.169-4.328h-.002a29.324 29.324 0 00-17.14 0h-.002l-14.169 4.328-.018.005c-.418.12-.743.529-.743.992v29.218h-4.54v-29.218c0-2.413 1.63-4.56 3.982-5.247l14.141-4.319z" fill="#5CC7DA"/><path fill-rule="evenodd" clip-rule="evenodd" d="M234.345 159.892v6.743a3.067 3.067 0 001.855 2.793l19.397 8.035a12.938 12.938 0 009.637 0l19.396-8.035.004-.001a3.067 3.067 0 001.851-2.792v-6.743h4.488v6.743c0 3.021-1.839 5.792-4.617 6.954l-.003.001-19.43 8.048-.012.005a17.404 17.404 0 01-12.992 0l-.011-.005-19.43-8.048-.004-.001c-2.778-1.162-4.617-3.933-4.617-6.954v-6.743h4.488z" fill="#5FCCDC"/><path fill-rule="evenodd" clip-rule="evenodd" d="M196.264 330.55v22.507h160.659V330.55H196.264zm-4.514-.225c0-2.413 1.905-4.34 4.291-4.34h165.396v31.637H196.041c-2.386 0-4.291-1.927-4.291-4.34v-22.957zm5.223-84.499v12.201h121.142v-12.201H196.973zm-4.498-.082c-.124-2.719 2.013-4.603 4.275-4.603h125.862v21.571H196.75c-2.376 0-4.275-1.978-4.275-4.453v-12.515zm32.355-111.255a3.332 3.332 0 013.363-3.357h66.373v30.198h-66.373a3.435 3.435 0 01-2.416-1.005c-.548-.547-1.025-1.418-.947-2.461v-23.375zm4.471 1.105v21.274h60.795v-21.274h-60.795z" fill="#1EA0D9"/><path fill-rule="evenodd" clip-rule="evenodd" d="M290.975 131.132h2.245c5.026 0 21.981 2.655 37.738 13.769 15.906 11.22 30.48 30.992 30.48 64.886v120.512h-42.941V192.393c0-11.802-5.345-19.442-11.223-24.19a34.555 34.555 0 00-8.677-5.103c-2.689-1.083-4.664-1.45-5.377-1.45h-2.245v-2.255h2.245-2.245v-28.263zm4.491 26.282c1.376.284 3.034.789 4.803 1.501a38.99 38.99 0 019.82 5.774c6.749 5.452 12.899 14.311 12.899 27.704V325.79h33.959V209.787c0-32.348-13.798-50.775-28.571-61.196-12.958-9.14-26.751-12.171-32.91-12.811v21.634zm-64.888-26.629c0-16.482 13.176-29.852 29.479-29.852 16.308 0 29.48 13.375 29.48 29.933 0 1.085-.077 2.089-.151 3.058l-.017.227-2.229-.087v.663h-56.223l-.17-.644c-.081-.982-.169-2.13-.169-3.298zm54.473.839h-49.985c-.01-.281-.016-.561-.016-.839 0-13.965 11.165-25.311 25.007-25.311 13.838 0 25.008 11.342 25.008 25.392 0 .256-.005.507-.014.758z" fill="#1EA0D9"/><path fill-rule="evenodd" clip-rule="evenodd" d="M349.826 264.15c0 .001-.001.001-1.744-1.523-1.743-1.524-1.744-1.523-1.744-1.523l.015-.017.075-.083c.069-.077.175-.198.313-.36.276-.325.68-.817 1.168-1.461a46.458 46.458 0 003.606-5.552c2.637-4.764 5.225-11.379 5.225-18.961h4.697c0 8.57-2.916 15.933-5.782 21.11a51.048 51.048 0 01-3.961 6.097c-.543.716-1 1.273-1.325 1.656-.163.192-.293.34-.386.444l-.109.122-.032.035-.011.011-.003.004-.002.001zm-28.416 27.323l-.837-2.051-.837-2.051h.001l.014-.006.062-.027.263-.118a35.87 35.87 0 001.005-.477 46.333 46.333 0 003.371-1.837c2.687-1.614 5.721-3.825 7.665-6.376l3.437 2.728c-2.45 3.214-6.048 5.767-8.893 7.476a51.215 51.215 0 01-3.688 2.011c-.472.232-.855.411-1.124.533l-.315.141-.088.038-.025.011-.008.003-.003.002zm11.987 8.628c1.191 0 2.157 1.012 2.157 2.261v25.676c0 1.249-.966 2.261-2.157 2.261s-2.157-1.012-2.157-2.261v-25.676c0-1.249.966-2.261 2.157-2.261zm-66.511 5.033c1.39 0 2.516.978 2.516 2.185v20.795c0 1.207-1.126 2.185-2.516 2.185-1.39 0-2.517-.978-2.517-2.185v-20.795c0-1.207 1.127-2.185 2.517-2.185zm-10.065-3.595c1.39 0 2.516 1.01 2.516 2.257v24.246c0 1.247-1.126 2.257-2.516 2.257-1.39 0-2.517-1.01-2.517-2.257v-24.246c0-1.247 1.127-2.257 2.517-2.257zm-10.785 5.752c1.389 0 2.516.977 2.516 2.182v18.644c0 1.205-1.127 2.182-2.516 2.182-1.39 0-2.517-.977-2.517-2.182v-18.644c0-1.205 1.127-2.182 2.517-2.182zm98.503-17.257c.993 0 1.798 1.012 1.798 2.259v35.747c0 1.248-.805 2.259-1.798 2.259-.992 0-1.797-1.011-1.797-2.259v-35.747c0-1.247.805-2.259 1.797-2.259z" fill="#1EA0D9"/><path fill-rule="evenodd" clip-rule="evenodd" d="M260.416 122.504c-3.545 0-6.488 2.143-7.454 4.98-.386 1.133-1.661 1.753-2.848 1.385-1.187-.368-1.836-1.585-1.451-2.718 1.585-4.656 6.295-7.961 11.753-7.961s10.168 3.305 11.753 7.961c.385 1.133-.264 2.35-1.451 2.718-1.187.368-2.462-.252-2.847-1.385-.966-2.837-3.91-4.98-7.455-4.98z" fill="#5DC8DB"/><path fill-rule="evenodd" clip-rule="evenodd" d="M260.056 114.129c-7.856 0-14.392 5.62-15.628 12.944a2.27 2.27 0 01-2.616 1.869 2.281 2.281 0 01-1.856-2.634c1.616-9.579 10.092-16.747 20.1-16.747 10.016 0 18.483 7.249 20.099 16.744a2.283 2.283 0 01-1.852 2.637 2.27 2.27 0 01-2.619-1.866c-1.236-7.261-7.781-12.947-15.628-12.947z" fill="#5DC8DB"/><path fill-rule="evenodd" clip-rule="evenodd" d="M342.746 173.722c1.185-.472 2.538.082 3.022 1.239 4.091 9.769 5.603 21.523 5.603 35.513v10.43c0 1.249-1.038 2.262-2.318 2.262s-2.318-1.013-2.318-2.262v-10.43c0-13.735-1.495-24.816-5.258-33.802-.484-1.156.084-2.477 1.269-2.95zm-42.242-25.406a2.213 2.213 0 012.924-1.181l1.487.647c9.744 4.236 19.659 8.312 26.684 18.222 7.391 10.425 11.371 26.894 10.24 54.996-.05 1.246-1.087 2.215-2.315 2.164-1.228-.051-2.183-1.102-2.133-2.348 1.116-27.727-2.981-42.778-9.509-51.986-6.286-8.866-15.035-12.678-25.02-17.028l-1.193-.52c-1.129-.493-1.651-1.821-1.165-2.966z" fill="#5ECADC"/><path fill-rule="evenodd" clip-rule="evenodd" d="M339.509 260.77c-5.242 0-9.491 4.25-9.491 9.492a9.49 9.49 0 009.491 9.491 9.49 9.49 0 009.491-9.491c0-5.242-4.249-9.492-9.491-9.492zm-14.021 9.492c0-7.744 6.277-14.021 14.021-14.021 7.743 0 14.021 6.277 14.021 14.021 0 7.743-6.278 14.02-14.021 14.02-7.744 0-14.021-6.277-14.021-14.02z" fill="#5DC6D9"/><path fill-rule="evenodd" clip-rule="evenodd" d="M339.507 270.078a.183.183 0 100 .366.183.183 0 000-.366zm-4.673.183a4.673 4.673 0 114.673 4.674 4.673 4.673 0 01-4.673-4.674z" fill="#5DC6D9"/><path fill-rule="evenodd" clip-rule="evenodd" d="M236.091 169.958l20.37 8.764-6.034 38.259c-.186 1.281-.974 2.426-2.271 2.889-6.014 2.275-12.707 1.075-17.711-3.008l-.005-.004-.006-.005c-1.109-.917-1.429-2.349-1.249-3.475l.001-.003 6.905-43.417zm3.378 6.29l-5.952 37.421c3.685 2.8 8.417 3.623 12.713 2.167l5.417-34.349-12.178-5.239zm44.696-6.29l8.164 34.547.009.046c.206 1.055-.051 1.885-.279 2.469l-.075.191-.106.175c-.716 1.174-2.49 3.678-5.601 5.395-3.176 1.753-7.538 2.565-13.129.666-1.247-.335-2.215-1.439-2.468-2.719l-7.746-31.755 21.231-9.015zm-15.93 11.751l6.705 27.489c4.245 1.345 7.206.63 9.206-.474 1.924-1.061 3.138-2.586 3.731-3.484l-6.844-28.965-12.798 5.434z" fill="#5FCCDC"/><path fill-rule="evenodd" clip-rule="evenodd" d="M274.863 182.947c.818-.197 1.656.253 1.871 1.004l5.562 19.474c.215.752-.274 1.522-1.093 1.719-.819.197-1.656-.252-1.871-1.004l-5.563-19.474c-.214-.752.275-1.522 1.094-1.719zm-29.584-.029c.719.118 1.212.828 1.1 1.587l-3.836 25.98c-.112.759-.785 1.278-1.504 1.16-.72-.118-1.212-.829-1.1-1.588l3.836-25.98c.111-.758.785-1.278 1.504-1.159z" fill="#4173B8"/><path fill-rule="evenodd" clip-rule="evenodd" d="M187.795 127.458a4.753 4.753 0 10.001 9.505 4.753 4.753 0 00-.001-9.505zm-7.549 4.752a7.55 7.55 0 1115.099 0 7.55 7.55 0 01-15.099 0zm17.974 57.981a2.776 2.776 0 100 5.552 2.776 2.776 0 000-5.552zm-5.033 2.776a5.033 5.033 0 1110.065 0 5.033 5.033 0 01-10.065 0zm195.574 141.027a2.776 2.776 0 100 5.553 2.776 2.776 0 000-5.553zm-5.033 2.777a5.034 5.034 0 1110.068 0 5.034 5.034 0 01-10.068 0z" fill="#1EA0D9"/><path d="M379.054 290.034c2.184 0 3.955-1.609 3.955-3.595 0-1.985-1.771-3.595-3.955-3.595s-3.955 1.61-3.955 3.595c0 1.986 1.771 3.595 3.955 3.595z" fill="#1EA0D9"/><path fill-rule="evenodd" clip-rule="evenodd" d="M361.798 145.676a2.353 2.353 0 100 4.706 2.353 2.353 0 000-4.706zm-4.673 2.353a4.673 4.673 0 119.347 0 4.673 4.673 0 11-9.347 0z" fill="#1EA0D9"/><path d="M333.393 128.975a2.876 2.876 0 100-5.752 2.876 2.876 0 000 5.752zm-128.702 35.231a4.314 4.314 0 100-8.628 4.314 4.314 0 000 8.628zm-30.196 47.456a4.314 4.314 0 100-8.628 4.314 4.314 0 000 8.628z" fill="#1EA0D9"/><path d="M147.973 173.213l-8.259 8.259 8.259 8.259 8.259-8.259-8.259-8.259z" fill="#5FCCDC"/><path d="M375.723 311.588l-6.143 6.142 6.143 6.143 6.142-6.143-6.142-6.142zm23.865-10.826l-3.502 3.502 3.502 3.502 3.502-3.502-3.502-3.502zm-41.139-186.01l-4.938 4.937 4.938 4.937 4.937-4.937-4.937-4.937zM190.572 217.263l-3.44 3.44 3.44 3.441 3.441-3.441-3.441-3.44z" fill="#1EA0D9"/><path fill-rule="evenodd" clip-rule="evenodd" d="M324.483 173.811c1.051-.579 2.346-.148 2.894.961 4.577 9.275 4.608 19.525 4.577 31.85-.002 1.015-.005 2.045-.005 3.09V220.9c0 1.251-.96 2.266-2.145 2.266-1.184 0-2.144-1.015-2.144-2.266v-11.188c0-.943.001-1.866.003-2.77.02-12.707.034-21.72-4.09-30.075-.547-1.11-.14-2.478.91-3.056z" fill="#5ECADC"/><defs><linearGradient id="paint0_linear" x1="74.103" y1="166.16" x2="270.268" y2="203.92" gradientUnits="userSpaceOnUse"><stop stop-color="#5DC6D9"/><stop offset="1" stop-color="#3A71FF"/></linearGradient><filter id="filter0_d" x="0" y="0" width="508.715" height="466.249" filterUnits="userSpaceOnUse" color-interpolation-filters="sRGB"><feFlood flood-opacity="0" result="BackgroundImageFix"/><feColorMatrix in="SourceAlpha" values="0 0 0 0 0 0 0 0 0 0 0 0 0 0 0 0 0 0 127 0"/><feOffset dy="4"/><feGaussianBlur stdDeviation="2"/><feColorMatrix values="0 0 0 0 0 0 0 0 0 0 0 0 0 0 0 0 0 0 0.25 0"/><feBlend in2="BackgroundImageFix" result="effect1_dropShadow"/><feBlend in="SourceGraphic" in2="effect1_dropShadow" result="shape"/></filter></defs></svg>