<svg width="120" height="27" viewBox="0 0 120 27" fill="none" xmlns="http://www.w3.org/2000/svg"><path d="M0 .028v5.518h8.05v21.133h5.404V10.466c0-3.413.824-4.92 3.214-4.92h5.404V.028H0zM99.295 0v5.518h6.627v21.133h5.404V10.44c0-3.414.825-4.921 3.214-4.921h5.405V0h-20.65zM41.527 26.709V.029h9.301c3.868 0 8.05 1.479 8.05 6.286 0 4.807-4.438 8.902-4.438 8.902l6.628 11.492H55.35s-4.722-8.619-6.713-12.402c2.219-1.735 3.982-3.697 4.722-5.717.512-1.394-.484-3.043-2.133-3.043H46.96V26.68h-5.433v.029z" fill="#fff"/><path d="M78.418.029v5.518h-6.94c-2.475 0-6.059 2.247-6.059 7.822s2.276 8.22 4.267 8.22h4.18v-4.267h-1.905c-2.986 0-2.787-4.494-2.787-4.494h9.215v13.88h-7.31c-5.49 0-10.808-2.815-10.808-12.97 0-11.775 8.248-13.71 11.235-13.71h6.912zm3.015 5.518c0-3.499 1.849-5.518 4.835-5.518h10.325v5.518h-6.997c-1.763 0-2.73 1.11-2.73 2.958v2.844h9.756v4.779h-9.756v2.93c0 1.25.967 2.56 2.446 2.56h7.281v5.119H86.268c-2.758 0-4.835-1.735-4.835-5.12V5.547z" fill="#fff"/><path fill-rule="evenodd" clip-rule="evenodd" d="M38.199.029v26.68h-5.376l-.028-8.59H26.28l-2.531 8.59h-5.831s5.546-16.981 6.77-21.162c1.25-4.181 3.526-5.518 7.537-5.518h5.973zM27.732 13.14h5.035l.028-7.565h-1.508s-1.251-.228-1.848 1.848c-.626 2.077-1.707 5.717-1.707 5.717z" fill="#fff"/></svg>