<svg width="373" height="271" viewBox="0 0 373 271" fill="none" xmlns="http://www.w3.org/2000/svg"><path fill-rule="evenodd" clip-rule="evenodd" d="M225.561 103.207l-25.026-10.31a11.38 11.38 0 00-8.668 0l-25.026 10.31a11.292 11.292 0 00-6.129 6.096l-10.366 24.89a11.205 11.205 0 000 8.622l10.366 24.89a11.297 11.297 0 006.129 6.097l25.026 10.309a11.375 11.375 0 008.668 0l25.026-10.309a11.297 11.297 0 006.129-6.097l10.366-24.89a11.205 11.205 0 000-8.622l-10.366-24.89a11.292 11.292 0 00-6.129-6.096zm-19.824-22.799a25.043 25.043 0 00-19.071 0l-25.026 10.31a24.852 24.852 0 00-13.485 13.412l-10.366 24.89a24.659 24.659 0 000 18.968l10.366 24.89a24.848 24.848 0 0013.485 13.412l25.026 10.31a25.036 25.036 0 0019.071 0l25.025-10.31a24.848 24.848 0 0013.485-13.412l10.366-24.89a24.659 24.659 0 000-18.968l-10.366-24.89a24.852 24.852 0 00-13.485-13.412l-25.025-10.31z" fill="#13C077"/><path d="M228.877 70.506c-.48-3.443-4.508-5.074-7.249-2.936l-5.241 4.088c-2.741 2.138-2.14 6.442 1.082 7.746l6.161 2.496c3.222 1.304 6.648-1.368 6.167-4.81l-.92-6.584zm-66.218 135.459c.481 3.443 4.508 5.074 7.249 2.936l5.241-4.088c2.741-2.138 2.14-6.442-1.082-7.746l-6.161-2.496c-3.222-1.304-6.648 1.368-6.167 4.811l.92 6.583zm100.384-35.078c3.443-.481 5.074-4.509 2.936-7.249l-4.088-5.242c-2.138-2.741-6.441-2.14-7.746 1.082l-2.495 6.162c-1.305 3.221 1.367 6.648 4.81 6.167l6.583-.92zm-62.383-25.983c3.442-.481 5.073-4.509 2.935-7.249l-4.756-6.098c-2.138-2.741-6.441-2.14-7.746 1.082l-2.902 7.168c-1.305 3.222 1.367 6.648 4.81 6.167l7.659-1.07zm-72.154-37.06c-3.443.481-5.074 4.508-2.936 7.249l4.088 5.242c2.138 2.741 6.441 2.139 7.746-1.082l2.495-6.162c1.305-3.222-1.367-6.648-4.81-6.167l-6.583.92z" fill="#13C077"/><path d="M24.805 74.383c1 .021 1.801.85 1.789 1.851l-.172 13.504 10.808 11.649a1.812 1.812 0 01-.085 2.561c-.73.678-1.877.63-2.56-.107L23.677 92.084a3.291 3.291 0 01-.88-2.278l.174-13.65c.013-1 .834-1.794 1.834-1.773zm5.253-2.19c1 .021 1.8.85 1.788 1.85l-.18 14.233a1.793 1.793 0 01-1.835 1.774c-1-.022-1.801-.85-1.788-1.851l.18-14.233c.013-1 .835-1.795 1.835-1.773zM4.667 93.064a1.831 1.831 0 001.712 1.922l13.478.84 10.808 11.649c.684.737 1.83.785 2.56.107s.769-1.824.085-2.561L22.403 93.264a3.29 3.29 0 00-2.207-1.048l-13.624-.849a1.793 1.793 0 00-1.905 1.697zm-2.578 5.074a1.83 1.83 0 001.712 1.921l14.206.885a1.792 1.792 0 001.906-1.696 1.83 1.83 0 00-1.712-1.922l-14.206-.885a1.793 1.793 0 00-1.906 1.697zm357.353-22.422a4.145 4.145 0 01-1.632 5.592l-26.739 14.816-10.774 34.322c-.681 2.17-2.978 3.383-5.13 2.707-2.152-.675-3.344-2.983-2.663-5.154l10.873-34.637a7.446 7.446 0 013.492-4.286L353.897 74.1a4.06 4.06 0 015.545 1.616zm10.2 7.867a4.145 4.145 0 01-1.632 5.593l-28.182 15.616a4.058 4.058 0 01-5.545-1.615 4.145 4.145 0 011.632-5.593l28.182-15.617a4.059 4.059 0 015.545 1.616zm-69.527-26.491a4.145 4.145 0 00-1.857 5.522l13.475 27.44-10.773 34.321c-.682 2.17.511 4.478 2.663 5.153 2.152.676 4.448-.536 5.13-2.707l10.872-34.638a7.443 7.443 0 00-.416-5.513l-13.62-27.735a4.06 4.06 0 00-5.474-1.843zm-12.867.627a4.144 4.144 0 00-1.857 5.522l14.202 28.92a4.06 4.06 0 005.474 1.844 4.144 4.144 0 001.857-5.522l-14.202-28.921a4.06 4.06 0 00-5.474-1.843z" opacity=".3" fill-rule="evenodd" clip-rule="evenodd" fill="#13C077"/><path fill-rule="evenodd" clip-rule="evenodd" d="M226.594 247.871a1.416 1.416 0 00-1.741-.963l-10.048 2.841-10.869-5.729a1.4 1.4 0 00-1.895.578 1.401 1.401 0 00.594 1.89l10.97 5.782a2.543 2.543 0 001.877.199l10.156-2.872a1.386 1.386 0 00.956-1.726zm.58-4.361a1.416 1.416 0 00-1.741-.964l-10.59 2.995a1.386 1.386 0 00-.956 1.726 1.417 1.417 0 001.741.963l10.59-2.995a1.386 1.386 0 00.956-1.725zm-10.483 23.15a1.415 1.415 0 01-1.779-.892l-3.335-9.894-10.869-5.729a1.401 1.401 0 01-.595-1.89 1.401 1.401 0 011.896-.578l10.969 5.782a2.543 2.543 0 011.226 1.436l3.37 10.002a1.385 1.385 0 01-.883 1.763zm-3.271 2.944a1.416 1.416 0 01-1.779-.892l-3.514-10.429a1.386 1.386 0 01.883-1.764 1.416 1.416 0 011.779.893l3.515 10.428a1.387 1.387 0 01-.884 1.764z" fill="#1BBC74"/><path d="M133.914 216.322a2.967 2.967 0 01-2.215 3.533l-21.304 4.986-14.114 21.534c-.893 1.361-2.711 1.748-4.062.863-1.35-.885-1.72-2.707-.828-4.068l14.245-21.732a5.33 5.33 0 013.241-2.27l21.534-5.041a2.905 2.905 0 013.503 2.195zm5.49 7.408a2.966 2.966 0 01-2.215 3.533l-22.454 5.256a2.907 2.907 0 01-3.504-2.195 2.968 2.968 0 012.215-3.533l22.454-5.255a2.905 2.905 0 013.504 2.194zm-42.71-31.807a2.967 2.967 0 00-2.356 3.441l3.926 21.524-14.115 21.533c-.892 1.362-.522 3.184.829 4.069 1.35.885 3.168.498 4.06-.864l14.245-21.731a5.327 5.327 0 00.789-3.878l-3.968-21.757a2.907 2.907 0 00-3.41-2.337zm-8.983-2.078a2.967 2.967 0 00-2.356 3.44l4.138 22.687a2.905 2.905 0 003.41 2.337 2.967 2.967 0 002.356-3.44l-4.138-22.687a2.905 2.905 0 00-3.41-2.337z" opacity=".2" fill-rule="evenodd" clip-rule="evenodd" fill="#46FFA9"/><path d="M78.151 45.096a3.064 3.064 0 012.673-3.378L103.26 39l16.92-20.517c1.07-1.298 2.981-1.49 4.267-.429 1.286 1.061 1.462 2.973.392 4.27l-17.077 20.707a5.505 5.505 0 01-3.583 1.965l-22.678 2.747a3 3 0 01-3.35-2.648zm-4.8-8.226a3.064 3.064 0 012.672-3.377l23.647-2.864a3.001 3.001 0 013.35 2.648 3.065 3.065 0 01-2.673 3.378L76.7 39.519a3 3 0 01-3.35-2.649zm40.265 37.474a3.064 3.064 0 002.807-3.266l-1.603-22.543 16.92-20.517c1.07-1.298.895-3.21-.392-4.27-1.286-1.062-3.197-.87-4.267.428l-17.076 20.706a5.51 5.51 0 00-1.247 3.892l1.621 22.786a3 3 0 003.237 2.784zm8.989 3.147a3.064 3.064 0 002.807-3.266l-1.69-23.76a3 3 0 00-3.238-2.784 3.064 3.064 0 00-2.807 3.266l1.691 23.76a3 3 0 003.237 2.784z" opacity=".3" fill-rule="evenodd" clip-rule="evenodd" fill="#13C077"/></svg>