<svg width="57" height="57" viewBox="0 0 57 57" fill="none" xmlns="http://www.w3.org/2000/svg">
<path d="M40.1895 1.66992C40.1895 0.7469 39.4426 0 38.5195 0H18.4805C17.5574 0 16.8105 0.7469 16.8105 1.66992V13.4707H40.1895V1.66992Z" fill="#53B487"/>
<path d="M28.5 40.3008C31.2625 40.3008 33.5098 38.0535 33.5098 35.291C33.5098 34.2569 33.5098 33.4918 33.5098 32.4518C37.0406 30.7717 39.4729 27.3148 40.0374 23.4902H40.1895C42.034 23.4902 43.5293 21.9948 43.5293 20.1504C43.5293 18.3058 42.034 16.8105 40.1895 16.8105H16.8105C14.966 16.8105 13.4707 18.3058 13.4707 20.1504C13.4707 21.9948 14.966 23.4902 16.8105 23.4902H16.9626C17.5271 27.3148 19.9594 30.7718 23.4902 32.4518C23.4902 32.8014 23.4902 35.6273 23.4902 35.291C23.4902 38.0535 25.7375 40.3008 28.5 40.3008Z" fill="#53B487"/>
<path d="M11.8008 57H45.1992C46.1222 57 46.8691 56.2531 46.8691 55.3301V41.9707C46.8691 37.367 43.1233 33.6211 38.5195 33.6211H36.8496V35.291C36.8496 39.8948 33.1038 43.6406 28.5 43.6406H21.8203C20.899 43.6406 20.1504 44.3892 20.1504 45.3105C20.1504 46.2319 20.899 46.9805 21.8203 46.9805H30.4775C31.1692 45.0409 33.0054 43.6406 35.1797 43.6406C37.9422 43.6406 40.1895 45.8879 40.1895 48.6504C40.1895 51.4129 37.9422 53.6602 35.1797 53.6602C33.0054 53.6602 31.1692 52.2599 30.4775 50.3203H21.8203C19.0578 50.3203 16.8105 48.073 16.8105 45.3105C16.8105 42.5481 19.0578 40.3008 21.8203 40.3008H21.863C20.8033 38.9009 20.1504 37.1778 20.1504 35.291V33.6211H18.4805C13.8767 33.6211 10.1309 37.367 10.1309 41.9707V55.3301C10.1309 56.2531 10.8778 57 11.8008 57Z" fill="#53B487"/>
<path d="M35.1797 50.3203C36.102 50.3203 36.8496 49.5727 36.8496 48.6504C36.8496 47.7281 36.102 46.9805 35.1797 46.9805C34.2574 46.9805 33.5098 47.7281 33.5098 48.6504C33.5098 49.5727 34.2574 50.3203 35.1797 50.3203Z" fill="#53B487"/>
</svg>
