<svg width="56" height="55" viewBox="0 0 56 55" fill="none" xmlns="http://www.w3.org/2000/svg">
<path d="M53.1421 14.2929H38.6268V10.5533C38.6268 7.59296 36.1754 5.18506 33.1622 5.18506H22.8396C19.8263 5.18506 17.3749 7.59296 17.3749 10.5533V14.2931H2.85779C1.27809 14.2929 0 15.5496 0 17.099V47.0088C0 48.5584 1.27809 49.8149 2.85779 49.8149H53.1421C54.7217 49.8149 56 48.5583 56 47.0088V17.099C56 15.5496 54.7217 14.2929 53.1421 14.2929ZM23.0505 10.7591H32.9514V14.2929H23.0505V10.7591ZM28.0005 45.7768C20.2825 45.7768 14.0277 39.6329 14.0277 32.054C14.0277 24.4738 20.2825 18.3301 28.0005 18.3301C35.7172 18.3301 41.9722 24.4738 41.9722 32.054C41.9722 39.6329 35.7172 45.7768 28.0005 45.7768Z" fill="#53B487"/>
<path d="M34.5894 28.3379H31.7833V25.5817C31.7833 24.8378 31.1699 24.2345 30.4126 24.2345H25.5869C24.8299 24.2345 24.2162 24.8378 24.2162 25.5817V28.3379H21.4101C20.6529 28.3379 20.0393 28.9411 20.0393 29.6842V34.4235C20.0393 35.1668 20.6529 35.7698 21.4101 35.7698H24.2162V38.5261C24.2162 39.2691 24.8299 39.8724 25.5869 39.8724H30.4126C31.1699 39.8724 31.7833 39.2691 31.7833 38.5261V35.7698H34.5894C35.3468 35.7698 35.9602 35.1668 35.9602 34.4235V29.6842C35.9603 28.9411 35.3468 28.3379 34.5894 28.3379Z" fill="#53B487"/>
</svg>
