<svg width="69" height="66" viewBox="0 0 69 66" fill="none" xmlns="http://www.w3.org/2000/svg">
<mask id="path-1-inside-1" fill="white">
<path fill-rule="evenodd" clip-rule="evenodd" d="M9.58716 23.2127C9.22189 24.2353 9.09092 25.2846 9.16644 26.302C7.86868 27.1696 6.82822 28.4464 6.26276 30.0294C5.62171 31.8241 5.70229 33.7011 6.35426 35.3432C6.04554 35.8215 5.7865 36.3425 5.58675 36.9017C4.18653 40.8217 6.22918 45.1345 10.1491 46.5347C10.7823 46.7609 11.4257 46.8972 12.0654 46.9503C12.5863 49.4313 14.3465 51.5909 16.9087 52.5062C20.8286 53.9063 25.1413 51.8638 26.5416 47.9441L26.5421 47.9443C30.462 49.3445 34.7748 47.3018 36.1751 43.3819C37.189 40.5434 36.3976 37.4989 34.3955 35.5035C35.9033 34.6424 37.1225 33.2589 37.7524 31.4956C39.1526 27.5756 37.11 23.2628 33.19 21.8626C32.6309 21.6628 32.0637 21.5332 31.4981 21.469C30.6407 19.924 29.2395 18.6724 27.4447 18.0313C24.9451 17.1384 22.2858 17.6455 20.3238 19.1465C19.9752 18.9549 19.6068 18.7884 19.2201 18.6503C15.3002 17.2501 10.9874 19.2927 9.58716 23.2127Z"/>
</mask>
<path d="M9.16644 26.302L10.0001 27.549L10.7271 27.063L10.6623 26.1909L9.16644 26.302ZM6.35426 35.3432L7.61452 36.1567L8.03346 35.5077L7.7484 34.7897L6.35426 35.3432ZM12.0654 46.9503L13.5334 46.6421L13.3037 45.548L12.1896 45.4555L12.0654 46.9503ZM26.5416 47.9441L27.0462 46.5315L25.6337 46.0269L25.129 47.4395L26.5416 47.9441ZM34.3955 35.5035L33.6516 34.2009L31.9429 35.1768L33.3366 36.5659L34.3955 35.5035ZM31.4981 21.469L30.1865 22.1969L30.5614 22.8723L31.329 22.9594L31.4981 21.469ZM20.3238 19.1465L19.6013 20.461L20.4584 20.9321L21.2352 20.3378L20.3238 19.1465ZM10.6623 26.1909C10.602 25.3783 10.7062 24.5389 10.9997 23.7173L8.17457 22.7081C7.73754 23.9316 7.57983 25.1909 7.67055 26.413L10.6623 26.1909ZM7.67535 30.534C8.12886 29.2644 8.96084 28.2437 10.0001 27.549L8.33278 25.055C6.77651 26.0954 5.52757 27.6285 4.85017 29.5249L7.67535 30.534ZM7.7484 34.7897C7.22575 33.4733 7.16153 31.9725 7.67535 30.534L4.85017 29.5249C4.0819 31.6757 4.17883 33.9288 4.96012 35.8967L7.7484 34.7897ZM6.99933 37.4063C7.16006 36.9563 7.36782 36.5389 7.61452 36.1567L5.09401 34.5297C4.72327 35.1041 4.41294 35.7286 4.17416 36.3971L6.99933 37.4063ZM10.6537 45.1221C7.51391 44.0006 5.87779 40.5461 6.99933 37.4063L4.17416 36.3971C2.49528 41.0972 4.94445 46.2684 9.64454 47.9473L10.6537 45.1221ZM12.1896 45.4555C11.6785 45.413 11.1631 45.3041 10.6537 45.1221L9.64454 47.9473C10.4015 48.2177 11.1729 48.3814 11.9413 48.4452L12.1896 45.4555ZM17.4133 51.0936C15.3626 50.3611 13.9516 48.6338 13.5334 46.6421L10.5974 47.2585C11.2211 50.2288 13.3303 52.8208 16.4042 53.9187L17.4133 51.0936ZM25.129 47.4395C24.0074 50.5791 20.553 52.2151 17.4133 51.0936L16.4042 53.9187C21.1041 55.5976 26.2752 53.1486 27.9542 48.4487L25.129 47.4395ZM27.0466 46.5317L27.0462 46.5315L26.037 49.3567L26.0375 49.3568L27.0466 46.5317ZM34.7625 42.8773C33.6409 46.0171 30.1864 47.6532 27.0466 46.5317L26.0375 49.3568C30.7376 51.0357 35.9088 48.5866 37.5876 43.8865L34.7625 42.8773ZM33.3366 36.5659C34.943 38.1669 35.5738 40.6059 34.7625 42.8773L37.5876 43.8865C38.8041 40.4809 37.8523 36.8309 35.4544 34.441L33.3366 36.5659ZM36.3398 30.991C35.8349 32.4045 34.8601 33.5107 33.6516 34.2009L35.1394 36.806C36.9464 35.774 38.4102 34.1133 39.165 32.0001L36.3398 30.991ZM32.6855 23.2752C35.8253 24.3967 37.4614 27.8512 36.3398 30.991L39.165 32.0001C40.8439 27.3001 38.3947 22.1289 33.6946 20.45L32.6855 23.2752ZM31.329 22.9594C31.781 23.0107 32.2355 23.1145 32.6855 23.2752L33.6946 20.45C33.0262 20.2112 32.3464 20.0556 31.6672 19.9786L31.329 22.9594ZM26.9401 19.4439C28.3787 19.9577 29.4992 20.9584 30.1865 22.1969L32.8097 20.7411C31.7822 18.8897 30.1003 17.387 27.9493 16.6187L26.9401 19.4439ZM21.2352 20.3378C22.8104 19.1328 24.9395 18.7293 26.9401 19.4439L27.9493 16.6187C24.9508 15.5476 21.7613 16.1582 19.4124 17.9551L21.2352 20.3378ZM18.7156 20.0629C19.0268 20.1741 19.3223 20.3077 19.6013 20.461L21.0463 17.832C20.628 17.6021 20.1868 17.4028 19.7247 17.2377L18.7156 20.0629ZM10.9997 23.7173C12.1213 20.5775 15.5758 18.9414 18.7156 20.0629L19.7247 17.2377C15.0246 15.5589 9.85346 18.008 8.17457 22.7081L10.9997 23.7173Z" fill="#1EA0D9" mask="url(#path-1-inside-1)"/>
<mask id="path-3-inside-2" fill="white">
<path fill-rule="evenodd" clip-rule="evenodd" d="M57.4415 43.0839C57.4299 42.5755 57.3113 42.0946 57.1078 41.6623C57.5298 41.0652 57.7708 40.3324 57.7528 39.5453C57.7323 38.6529 57.3825 37.8455 56.8222 37.2365C56.8773 36.975 56.9034 36.7032 56.897 36.4245C56.8523 34.4748 55.2356 32.9305 53.2859 32.9752C52.9708 32.9824 52.6663 33.0307 52.3773 33.1149C51.7336 32.1163 50.6011 31.4662 49.3263 31.4954C47.3771 31.5401 45.833 33.1562 45.877 35.1053C43.9278 35.1505 42.3839 36.767 42.4286 38.7164C42.461 40.1284 43.3179 41.3278 44.5286 41.8649C44.0129 42.4946 43.7112 43.3046 43.7313 44.182C43.776 46.1317 45.3927 47.676 47.3424 47.6313C47.6204 47.6249 47.8902 47.5866 48.1484 47.5199C48.7825 48.0521 49.6054 48.3648 50.4982 48.3443C51.7412 48.3158 52.8195 47.6483 53.4262 46.6629C53.6108 46.6883 53.7999 46.6994 53.9922 46.695C55.9419 46.6503 57.4862 45.0336 57.4415 43.0839Z"/>
</mask>
<path d="M57.1078 41.6623L55.8829 40.7964L55.3784 41.5102L55.7506 42.3011L57.1078 41.6623ZM56.8222 37.2365L55.3544 36.9272L55.1951 37.6833L55.7183 38.252L56.8222 37.2365ZM52.3773 33.1149L51.1166 33.9276L51.7227 34.8677L52.7966 34.5551L52.3773 33.1149ZM45.877 35.1053L45.9118 36.6049L47.4105 36.5702L47.3767 35.0714L45.877 35.1053ZM44.5286 41.8649L45.6891 42.8154L46.9366 41.2922L45.1369 40.4938L44.5286 41.8649ZM48.1484 47.5199L49.1126 46.3709L48.5209 45.8743L47.773 46.0676L48.1484 47.5199ZM53.4262 46.6629L53.6304 45.1769L52.6616 45.0437L52.1489 45.8765L53.4262 46.6629ZM55.7506 42.3011C55.8667 42.5477 55.9351 42.823 55.9419 43.1183L58.9411 43.0495C58.9246 42.3279 58.7559 41.6414 58.465 41.0234L55.7506 42.3011ZM56.2531 39.5797C56.2636 40.0342 56.1255 40.4532 55.8829 40.7964L58.3327 42.5281C58.9342 41.6772 59.278 40.6306 59.2524 39.5109L56.2531 39.5797ZM55.7183 38.252C56.0414 38.6032 56.2414 39.0653 56.2531 39.5797L59.2524 39.5109C59.2232 38.2405 58.7237 37.0878 57.9261 36.2209L55.7183 38.252ZM55.3974 36.4589C55.4011 36.6213 55.3859 36.7779 55.3544 36.9272L58.29 37.5457C58.3687 37.1721 58.4056 36.785 58.3966 36.3901L55.3974 36.4589ZM53.3203 34.4748C54.4417 34.4491 55.3717 35.3374 55.3974 36.4589L58.3966 36.3901C58.3329 33.6123 56.0294 31.412 53.2516 31.4756L53.3203 34.4748ZM52.7966 34.5551C52.9615 34.507 53.1367 34.479 53.3203 34.4748L53.2516 31.4756C52.8049 31.4858 52.371 31.5544 51.958 31.6747L52.7966 34.5551ZM49.3607 32.995C50.0922 32.9782 50.7438 33.3494 51.1166 33.9276L53.638 32.3021C52.7233 30.8832 51.11 29.9541 49.292 29.9958L49.3607 32.995ZM47.3767 35.0714C47.3513 33.9503 48.2395 33.0207 49.3607 32.995L49.292 29.9958C46.5146 30.0594 44.3147 32.3621 44.3774 35.1392L47.3767 35.0714ZM43.9282 38.682C43.9025 37.5607 44.7905 36.6309 45.9118 36.6049L45.8423 33.6057C43.065 33.67 40.8653 35.9733 40.929 38.7507L43.9282 38.682ZM45.1369 40.4938C44.437 40.1833 43.9468 39.4919 43.9282 38.682L40.929 38.7507C40.9751 40.7648 42.1987 42.4723 43.9203 43.236L45.1369 40.4938ZM45.2309 44.1477C45.2193 43.6418 45.3919 43.1783 45.6891 42.8154L43.3682 40.9145C42.634 41.8108 42.2031 42.9674 42.2317 44.2164L45.2309 44.1477ZM47.308 46.1317C46.1866 46.1574 45.2566 45.2691 45.2309 44.1477L42.2317 44.2164C42.2954 46.9943 44.5989 49.1946 47.3767 49.1309L47.308 46.1317ZM47.773 46.0676C47.6255 46.1057 47.4701 46.128 47.308 46.1317L47.3767 49.1309C47.7707 49.1219 48.155 49.0675 48.5238 48.9721L47.773 46.0676ZM50.4638 46.8447C49.9493 46.8565 49.4783 46.6777 49.1126 46.3709L47.1841 48.6689C48.0868 49.4264 49.2616 49.873 50.5325 49.8439L50.4638 46.8447ZM52.1489 45.8765C51.7975 46.4472 51.1773 46.8283 50.4638 46.8447L50.5325 49.8439C52.3051 49.8033 53.8414 48.8495 54.7035 47.4494L52.1489 45.8765ZM53.9579 45.1954C53.8456 45.1979 53.7363 45.1915 53.6304 45.1769L53.2219 48.149C53.4853 48.1852 53.7542 48.2008 54.0266 48.1946L53.9579 45.1954ZM55.9419 43.1183C55.9676 44.2397 55.0793 45.1697 53.9579 45.1954L54.0266 48.1946C56.8045 48.1309 59.0048 45.8274 58.9411 43.0495L55.9419 43.1183Z" fill="#1EA0D9" mask="url(#path-3-inside-2)"/>
<mask id="path-5-inside-3" fill="white">
<path fill-rule="evenodd" clip-rule="evenodd" d="M46.6861 27.9073C47.0813 27.7767 47.4294 27.5691 47.7193 27.3066C48.2883 27.4949 48.9205 27.5086 49.5333 27.3062C50.2278 27.0767 50.7769 26.6093 51.12 26.0244C51.3373 26.005 51.5557 25.9605 51.7718 25.8891C53.2884 25.388 54.1117 23.7523 53.6106 22.2357C53.5297 21.9909 53.4193 21.7642 53.2846 21.5582C53.9128 20.8152 54.1513 19.7727 53.8237 18.7811C53.3226 17.2645 51.687 16.4413 50.1704 16.9423L50.1701 16.9412C49.669 15.4245 48.0333 14.6013 46.5167 15.1024C45.4182 15.4653 44.6834 16.4235 44.5522 17.5006C43.9358 17.2473 43.2294 17.2047 42.547 17.4301C41.0304 17.9312 40.2072 19.5669 40.7082 21.0835C40.7798 21.3001 40.8745 21.5025 40.9887 21.689C40.7237 22.3128 40.6756 23.0318 40.9049 23.7259C41.2245 24.693 42.0053 25.3782 42.9225 25.6178C42.9468 25.7684 42.9833 25.919 43.0327 26.0685C43.5338 27.5851 45.1694 28.4084 46.6861 27.9073Z"/>
</mask>
<path d="M47.7193 27.3066L48.1906 25.8826L47.3606 25.6078L46.7125 26.1947L47.7193 27.3066ZM51.12 26.0244L50.9862 24.5304L50.2169 24.5993L49.8262 25.2655L51.12 26.0244ZM53.2846 21.5582L52.1392 20.5897L51.4172 21.4434L52.0292 22.3792L53.2846 21.5582ZM50.1704 16.9423L48.7461 17.4126L49.2164 18.8372L50.641 18.3666L50.1704 16.9423ZM50.1701 16.9412L51.5944 16.4709L51.5943 16.4706L50.1701 16.9412ZM44.5522 17.5006L43.9822 18.888L45.8031 19.6362L46.0412 17.682L44.5522 17.5006ZM40.9887 21.689L42.3693 22.2754L42.6713 21.5644L42.2679 20.9056L40.9887 21.689ZM42.9225 25.6178L44.4034 25.3792L44.2479 24.4137L43.3017 24.1665L42.9225 25.6178ZM46.7125 26.1947C46.5746 26.3195 46.4083 26.4193 46.2155 26.483L47.1566 29.3316C47.7542 29.1341 48.2842 28.8186 48.7261 28.4185L46.7125 26.1947ZM49.0627 25.8819C48.7661 25.9799 48.4643 25.9731 48.1906 25.8826L47.248 28.7306C48.1123 29.0167 49.0749 29.0374 50.0039 28.7305L49.0627 25.8819ZM49.8262 25.2655C49.6604 25.548 49.398 25.7711 49.0627 25.8819L50.0039 28.7305C51.0576 28.3823 51.8933 27.6707 52.4138 26.7834L49.8262 25.2655ZM51.3012 24.4648C51.1952 24.4998 51.0897 24.5211 50.9862 24.5304L51.2538 27.5184C51.5848 27.4888 51.9163 27.4211 52.2424 27.3133L51.3012 24.4648ZM52.1863 22.7063C52.4275 23.4363 52.0312 24.2236 51.3012 24.4648L52.2424 27.3133C54.5456 26.5524 55.7958 24.0683 55.0348 21.7651L52.1863 22.7063ZM52.0292 22.3792C52.0932 22.4772 52.1466 22.5862 52.1863 22.7063L55.0348 21.7651C54.9128 21.3956 54.7453 21.0512 54.54 20.7372L52.0292 22.3792ZM52.3994 19.2517C52.5566 19.7274 52.4445 20.2285 52.1392 20.5897L54.43 22.5267C55.3811 21.4019 55.7461 19.8181 55.248 18.3105L52.3994 19.2517ZM50.641 18.3666C51.371 18.1254 52.1583 18.5217 52.3994 19.2517L55.248 18.3105C54.487 16.0074 52.0031 14.7571 49.6999 15.518L50.641 18.3666ZM48.7457 17.4115L48.7461 17.4126L51.5948 16.472L51.5944 16.4709L48.7457 17.4115ZM46.9873 16.5267C47.7173 16.2855 48.5046 16.6817 48.7458 17.4117L51.5943 16.4706C50.8333 14.1674 48.3493 12.9171 46.0461 13.6781L46.9873 16.5267ZM46.0412 17.682C46.1048 17.1598 46.4606 16.7007 46.9873 16.5267L46.0461 13.6781C44.3757 14.23 43.262 15.6873 43.0632 17.3192L46.0412 17.682ZM43.0176 18.8544C43.3471 18.7455 43.6846 18.7658 43.9822 18.888L45.1223 16.1131C44.1871 15.7289 43.1116 15.6638 42.0764 16.0059L43.0176 18.8544ZM42.1325 20.6129C41.8913 19.8829 42.2876 19.0956 43.0176 18.8544L42.0764 16.0059C39.7732 16.7669 38.523 19.2509 39.284 21.5541L42.1325 20.6129ZM42.2679 20.9056C42.2135 20.8168 42.1676 20.7192 42.1325 20.6129L39.284 21.5541C39.392 21.8809 39.5355 22.1882 39.7094 22.4723L42.2679 20.9056ZM42.3292 23.2554C42.2185 22.9203 42.2413 22.5768 42.3693 22.2754L39.6081 21.1025C39.2061 22.0488 39.1327 23.1434 39.4807 24.1965L42.3292 23.2554ZM43.3017 24.1665C42.8558 24.05 42.4825 23.7194 42.3292 23.2554L39.4807 24.1965C39.9664 25.6667 41.1549 26.7063 42.5433 27.0691L43.3017 24.1665ZM44.4569 25.598C44.4327 25.5245 44.415 25.4514 44.4034 25.3792L41.4416 25.8564C41.4785 26.0854 41.5339 26.3136 41.6084 26.5391L44.4569 25.598ZM46.2155 26.483C45.4855 26.7242 44.6981 26.328 44.4569 25.598L41.6084 26.5391C42.3694 28.8423 44.8534 30.0926 47.1566 29.3316L46.2155 26.483Z" fill="#5FCCDC" mask="url(#path-5-inside-3)"/>
<circle cx="20.0411" cy="42.1959" r="1.89645" transform="rotate(-70.3432 20.0411 42.1959)" fill="#5FCCDC"/>
<circle cx="17.4903" cy="30.5446" r="1.89645" transform="rotate(-70.3432 17.4903 30.5446)" fill="#5FCCDC"/>
<ellipse cx="25.4" cy="25.3147" rx="1.89645" ry="2.5286" transform="rotate(-70.3432 25.4 25.3147)" fill="#5FCCDC"/>
<circle cx="27.3981" cy="34.7548" r="1.2643" transform="rotate(-70.3432 27.3981 34.7548)" fill="#5FCCDC"/>
</svg>
