<svg width="38" height="38" viewBox="0 0 38 38" fill="none" xmlns="http://www.w3.org/2000/svg">
<g clip-path="url(#clip0)">
<path d="M17.2851 16.5979C17.4037 16.7168 17.5648 16.7836 17.7328 16.7834C17.9889 16.7833 18.2198 16.6291 18.3178 16.3925C18.4158 16.1559 18.3617 15.8835 18.1806 15.7024L18.18 15.7019C17.5809 15.1025 16.4662 13.9872 16.4662 11.0837C16.4257 9.56812 17.0524 8.11113 18.1806 7.09831C18.4241 6.85035 18.4222 6.45256 18.1766 6.20683C17.9308 5.96111 17.533 5.95932 17.2851 6.20283C15.9156 7.45076 15.1547 9.23141 15.1996 11.0837C15.1996 14.5125 16.6082 15.921 17.2851 16.5979Z" fill="#5FCCDC"/>
<path d="M17.2851 16.5979C17.4037 16.7168 17.5648 16.7836 17.7328 16.7834C17.9889 16.7833 18.2198 16.6291 18.3178 16.3925C18.4158 16.1559 18.3617 15.8835 18.1806 15.7024L18.18 15.7019C17.5809 15.1025 16.4662 13.9872 16.4662 11.0837C16.4257 9.56812 17.0524 8.11113 18.1806 7.09831C18.4241 6.85035 18.4222 6.45256 18.1766 6.20683C17.9308 5.96111 17.533 5.95932 17.2851 6.20283C15.9156 7.45076 15.1547 9.23141 15.1996 11.0837C15.1996 14.5125 16.6082 15.921 17.2851 16.5979Z" stroke="#5FCCDC"/>
<path d="M35.9692 17.021C36.4664 16.0187 36.7267 14.9157 36.7299 13.7969C37.594 12.1852 38.0306 10.3789 37.9984 8.55045C37.9984 6.02869 37.0193 3.48399 34.8318 3.48399C33.2962 3.48777 31.9091 4.40226 31.3004 5.8122C30.607 5.54807 29.8739 5.40327 29.1321 5.3839C26.9811 5.3839 25.9625 6.23278 25.5573 7.03646C24.4852 6.67577 23.3108 6.78212 22.321 7.32939C21.3706 4.28299 18.8844 2.85071 14.566 2.85071C8.71103 2.85071 0 7.40449 0 19.9499C0 31.9725 9.11365 35.1493 13.9327 35.1493C19.0406 35.1493 21.3709 32.9695 23.427 31.0464C25.0696 29.5098 26.4881 28.183 29.132 28.183C30.8451 28.183 31.847 30.0513 32.8155 31.8582C33.7234 33.5506 34.5806 35.1493 36.0983 35.1493C36.6698 35.1493 37.9982 34.8407 37.9982 31.9828V20.4954C38.0004 19.4798 37.5942 18.5059 36.8707 17.7931C36.5849 17.5191 36.2839 17.2613 35.9692 17.021ZM22.7844 10.341L22.7838 10.3137C22.7823 10.274 22.7788 10.2379 22.7769 10.1984C22.7688 10.0217 22.7591 9.84744 22.746 9.67897L22.7452 9.66554L22.7405 9.59259C22.7364 9.5442 22.7294 9.4993 22.725 9.45143C22.7104 9.29706 22.694 9.14514 22.675 8.99723C22.6651 8.92064 22.6549 8.84524 22.6439 8.77035C22.6361 8.71803 22.6304 8.66296 22.622 8.61138C23.5034 7.98218 24.6682 7.9171 25.6142 8.4441C25.8085 8.57368 26.0584 8.58578 26.2643 8.47557C26.4703 8.36536 26.5988 8.15073 26.5988 7.91717C26.5988 7.56495 27.054 6.65054 29.132 6.65054C29.9121 6.68965 30.6769 6.88224 31.3826 7.21732C31.554 7.30178 31.7543 7.3046 31.9281 7.22504C32.1019 7.14548 32.2306 6.99193 32.2787 6.80698C32.301 6.7229 32.8372 4.75062 34.8317 4.75062C36.3346 4.75062 36.7317 7.23625 36.7317 8.55045C36.7709 10.1974 36.3704 11.825 35.5714 13.2656C35.5021 13.3696 35.4651 13.4919 35.465 13.6168C35.5031 14.7558 35.2108 15.8814 34.6233 16.8579C33.0734 19.2721 29.7962 19.3163 29.7649 19.3166C29.5667 19.3171 29.3802 19.4102 29.2606 19.5683C29.1411 19.7264 29.1022 19.9313 29.1557 20.1221C29.199 20.2774 30.1678 23.9114 26.509 25.016C23.7565 24.9935 22.6192 23.9409 22.6133 23.9352C22.4582 23.7806 22.2343 23.717 22.021 23.7671C21.8078 23.8171 21.6355 23.9736 21.5654 24.181C21.5187 24.3186 20.3838 27.5494 17.0992 27.5494C16.1249 27.5665 15.2082 27.0891 14.6636 26.281C14.6088 26.2098 14.5391 26.1515 14.4595 26.1099C14.4386 26.099 14.4171 26.0893 14.395 26.0809C14.3321 26.0547 14.2652 26.0391 14.1972 26.0346C14.1823 26.0335 14.1692 26.0245 14.1543 26.0245C14.1472 26.0245 14.1405 26.0288 14.1334 26.0291C14.0506 26.0303 13.9689 26.0481 13.893 26.0812C13.7535 26.1443 13.608 26.1931 13.4587 26.227C13.4198 26.236 13.3802 26.2367 13.3412 26.2434C13.234 26.2636 13.1255 26.2755 13.0166 26.279C12.9568 26.2799 12.8967 26.2722 12.8367 26.268C12.7553 26.2643 12.6741 26.2561 12.5936 26.2435C12.518 26.2297 12.4419 26.2066 12.366 26.1847C12.2938 26.1661 12.2226 26.144 12.1526 26.1183C12.1298 26.1093 12.1077 26.099 12.0853 26.0891C11.84 25.9805 11.6163 25.8285 11.4251 25.6403L11.4087 25.6239C11.1112 25.3237 10.9059 24.9445 10.817 24.5313C10.8023 24.4458 10.7923 24.3597 10.787 24.2732C10.7811 24.2101 10.7684 24.149 10.7679 24.0845C10.7666 23.9375 10.7797 23.7907 10.8072 23.6462C10.814 23.6118 10.8277 23.5801 10.836 23.5463C10.8603 23.4404 10.8926 23.3365 10.9325 23.2355C10.9537 23.1839 10.9821 23.1361 11.0071 23.0864C11.0464 23.0057 11.0907 22.9274 11.1397 22.8521C11.1716 22.8043 11.2075 22.7595 11.243 22.7144C11.299 22.6431 11.3593 22.5753 11.4236 22.5114C11.4623 22.4732 11.5016 22.4359 11.543 22.4005C11.6165 22.3388 11.6939 22.2819 11.7746 22.2302C11.8152 22.2038 11.8545 22.1757 11.897 22.1519C11.9908 22.1008 12.0882 22.0565 12.1883 22.0194C12.2254 22.0053 12.2602 21.9868 12.2982 21.9745C12.4351 21.9299 12.576 21.8987 12.7189 21.8813C12.7251 21.8806 12.7308 21.8783 12.737 21.8775C12.7493 21.8761 12.7593 21.8685 12.7714 21.8663C13.0532 21.8162 13.2649 21.5807 13.2848 21.2951C13.2912 21.2692 13.2961 21.2429 13.2992 21.2164C13.2992 21.1716 13.2961 21.1217 13.2899 21.0456L13.2928 21.0241C13.3071 20.8977 13.3398 20.7742 13.3899 20.6573L13.3957 20.6436C13.4489 20.5261 13.5184 20.4166 13.6021 20.3185L13.6205 20.297C13.7074 20.1997 13.8047 20.1123 13.9106 20.0363C13.9297 20.0226 13.9473 20.0095 13.9723 19.9923C14.0891 19.9134 14.2122 19.8439 14.3402 19.7847C14.3644 19.7739 14.3935 19.7611 14.4243 19.7478C14.5719 19.684 14.7234 19.6293 14.8777 19.5841C14.9087 19.5752 14.9405 19.5668 14.9726 19.5585C15.1383 19.5134 15.3142 19.4738 15.5022 19.4412L15.5691 19.4287C15.768 19.3963 15.9816 19.3725 16.2039 19.3541C16.2573 19.3504 16.3082 19.3459 16.3644 19.3424C16.5989 19.327 16.841 19.3164 17.099 19.3164C21.3955 19.3164 22.7988 13.1937 22.7988 11.0835C22.799 10.8272 22.7934 10.5811 22.7844 10.341ZM36.7317 31.9828C36.7317 32.8978 36.5337 33.8827 36.0984 33.8827C35.3389 33.8827 34.6233 32.5493 33.9319 31.2595C32.8941 29.3246 31.6028 26.9163 29.132 26.9163C25.9881 26.9163 24.2462 28.5456 22.5618 30.1215C20.5848 31.9707 18.5406 33.8826 13.9327 33.8826C13.8059 33.8826 1.26656 33.7234 1.26656 19.9499C1.26656 8.33367 9.22 4.11734 14.566 4.11734C19.74 4.11734 20.8772 6.30833 21.3067 8.45234L21.3069 8.45464C21.3164 8.50191 21.3228 8.55335 21.3316 8.60144C21.4005 8.98023 21.4503 9.36222 21.4808 9.74606C21.4865 9.8159 21.4895 9.89026 21.4942 9.96173C21.503 10.0944 21.513 10.2265 21.5181 10.3616C21.5268 10.5984 21.5323 10.8384 21.5323 11.0836C21.5323 12.5587 20.4237 18.05 17.0992 18.05C16.8865 18.05 16.6833 18.0548 16.4897 18.0643L16.4364 18.0681C16.3702 18.0715 16.3085 18.0773 16.2443 18.0817C16.1352 18.0885 16.0257 18.0953 15.9213 18.1054L15.8079 18.1196C15.7562 18.1254 15.7065 18.132 15.6562 18.1386C15.569 18.1489 15.4818 18.1596 15.399 18.1728L15.2487 18.2003L15.2488 18.201C15.1998 18.2098 15.1509 18.2187 15.1034 18.2281C15.0405 18.2398 14.9777 18.2514 14.916 18.2652L14.7208 18.315L14.7099 18.318C14.6719 18.328 14.6345 18.3381 14.5976 18.3485C14.5575 18.3593 14.5159 18.3695 14.4782 18.3809L14.2948 18.4418C14.2807 18.4466 14.2672 18.4519 14.2531 18.4567C14.2199 18.4683 14.1868 18.48 14.1546 18.4919C14.1265 18.5021 14.0974 18.5115 14.07 18.5222L13.9187 18.5865C13.8977 18.5957 13.8775 18.6056 13.8566 18.6149C13.8245 18.6294 13.792 18.6437 13.7609 18.6585C13.7417 18.6676 13.7215 18.6758 13.7025 18.6852L13.5705 18.756C13.5511 18.7666 13.5328 18.7781 13.5135 18.7888C13.4786 18.8087 13.4435 18.8282 13.4101 18.8485C13.3963 18.8568 13.3815 18.8643 13.368 18.8729L13.2591 18.9455C13.2429 18.9564 13.2292 18.9676 13.2134 18.9785C13.1772 19.004 13.1412 19.0293 13.1073 19.0553C13.0963 19.0637 13.0832 19.0719 13.0727 19.0803L12.9793 19.1576C12.9676 19.1675 12.9578 19.1776 12.9463 19.1875C12.9137 19.216 12.8818 19.2444 12.8514 19.2733C12.8382 19.2858 12.8228 19.2983 12.8101 19.3107L12.7377 19.3855C12.7291 19.3947 12.7222 19.4039 12.7137 19.4131C12.6862 19.4431 12.6603 19.4731 12.6348 19.5034C12.6191 19.5219 12.601 19.5406 12.5865 19.5587L12.5321 19.6295C12.5274 19.6357 12.5239 19.6422 12.5192 19.6484C12.4972 19.6786 12.4778 19.7087 12.4576 19.7389C12.4372 19.7691 12.4145 19.7988 12.3958 19.8296L12.3602 19.8895C12.3255 19.9494 12.2919 20.016 12.2509 20.1036L12.2432 20.1199C12.2369 20.1335 12.2322 20.1423 12.2254 20.1573C12.2036 20.2079 12.1831 20.2628 12.1618 20.3236L12.1574 20.3365C12.1467 20.3674 12.1364 20.3962 12.1245 20.4335C12.1195 20.45 12.1163 20.4704 12.1116 20.4872C12.0937 20.5517 12.0788 20.6139 12.0668 20.6738C12.064 20.6876 12.0604 20.6974 12.0577 20.7118L12.0557 20.7225C11.8653 20.7752 11.6797 20.844 11.5009 20.9282C11.4921 20.9323 11.4844 20.9383 11.4756 20.9425C11.3104 21.0211 11.1518 21.1126 11.0009 21.2162C10.9612 21.2436 10.9266 21.2775 10.8881 21.3064C10.7732 21.3904 10.6635 21.4812 10.5597 21.5786C10.5088 21.6277 10.465 21.6835 10.4171 21.7358C10.3344 21.8229 10.2563 21.9143 10.183 22.0095C10.1709 22.0258 10.1554 22.039 10.1435 22.0556C10.0638 22.1679 9.99088 22.2849 9.92505 22.4059C9.91555 22.4232 9.90791 22.4412 9.8987 22.4586C9.82441 22.5997 9.76007 22.7456 9.70619 22.8956C9.69884 22.9159 9.6906 22.9356 9.6837 22.956C9.62782 23.1206 9.58462 23.2892 9.55449 23.4603C9.55041 23.4832 9.54796 23.5064 9.5444 23.5294C9.51776 23.6975 9.50358 23.8673 9.5018 24.0375C9.5018 24.0474 9.49942 24.0566 9.49942 24.0665L9.50009 24.0805C9.50039 24.1436 9.50603 24.2071 9.50974 24.2705C9.51315 24.3283 9.51456 24.3865 9.52072 24.4435C9.52874 24.5183 9.54247 24.5934 9.55516 24.6686C9.56176 24.7063 9.56622 24.7449 9.57409 24.7823C9.57824 24.803 9.57995 24.8237 9.58447 24.8445C9.5982 24.9075 9.62047 24.9675 9.63776 25.0293C9.64741 25.0627 9.65602 25.0965 9.66663 25.1294C9.69736 25.2272 9.73268 25.3225 9.77202 25.4166L9.77669 25.4273C9.95013 25.8369 10.2012 26.2089 10.516 26.523L10.5263 26.5334C10.6037 26.61 10.6834 26.6835 10.7677 26.7527L10.7713 26.7555C10.9184 26.8756 11.0753 26.9835 11.2402 27.0778C11.2722 27.0964 11.303 27.1168 11.3357 27.1344C11.3892 27.1629 11.4445 27.1877 11.4996 27.2134C11.5755 27.2493 11.6526 27.2828 11.7315 27.3133C11.7522 27.3211 11.7711 27.3319 11.7919 27.3393C11.8057 27.3442 11.8197 27.346 11.8335 27.3508C11.994 27.4078 12.1586 27.4528 12.3258 27.4855C12.3342 27.4872 12.3425 27.4878 12.3509 27.4894C12.5036 27.5169 12.658 27.5342 12.813 27.5411C12.8467 27.5428 12.8803 27.5456 12.9139 27.5463C12.937 27.5467 12.9595 27.5497 12.9827 27.5497C13.0785 27.5497 13.173 27.5372 13.2679 27.5292C13.3258 27.5243 13.384 27.5245 13.4416 27.5166C13.6134 27.4939 13.7833 27.4579 13.9497 27.4093C14.6317 28.2022 15.5953 28.6987 16.6368 28.7942C16.7878 28.809 16.9419 28.8164 17.0992 28.8164C19.3944 28.7648 21.4632 27.4204 22.4427 25.3441C23.7241 26.0098 25.1557 26.3333 26.5988 26.2832C26.6577 26.2831 26.7163 26.2749 26.7729 26.2588C30.2521 25.2649 30.7808 22.399 30.5285 20.5256C30.66 20.5089 30.8076 20.4859 30.9637 20.4582C30.9817 20.455 30.9978 20.4525 31.0162 20.4491C31.1679 20.4211 31.3303 20.386 31.4993 20.3451C31.5266 20.3385 31.5527 20.3324 31.5803 20.3255C31.7496 20.2828 31.9253 20.2324 32.1061 20.1744C32.1361 20.1648 32.1656 20.155 32.1957 20.145C32.3795 20.0837 32.5667 20.0143 32.7569 19.9346C32.7841 19.9232 32.8109 19.9109 32.838 19.8991C33.0345 19.8141 33.2323 19.7203 33.4298 19.6128C33.4453 19.6043 33.4606 19.5947 33.4761 19.5861C33.6833 19.4718 33.8843 19.3466 34.0782 19.211L34.0974 19.1983C34.2964 19.0562 34.487 18.9026 34.6681 18.7382C34.6907 18.7177 34.7138 18.6988 34.7362 18.678C34.9161 18.5097 35.0853 18.3304 35.243 18.1412C35.2586 18.1226 35.2763 18.1084 35.2917 18.0895C35.5342 18.2822 35.7661 18.4861 35.9875 18.7015C36.4666 19.1753 36.7347 19.8219 36.7315 20.4956V31.9828H36.7317Z" fill="#1EA0D9"/>
<path d="M16.5675 22.4915C16.2231 22.436 15.8987 22.6695 15.842 23.0137C15.7853 23.3579 16.0176 23.6832 16.3616 23.7411C16.6119 23.7813 16.8651 23.8009 17.1186 23.7999C19.2544 23.8455 21.1929 22.5568 21.9773 20.5696C24.2384 20.4348 27.8653 19.2669 27.8653 15.5168C27.8653 15.167 27.5818 14.8835 27.232 14.8835C26.8822 14.8835 26.5987 15.167 26.5987 15.5168C26.5987 19.2591 21.7382 19.316 21.5314 19.3167C21.2593 19.3175 21.0179 19.4916 20.9315 19.7496C20.3576 21.6189 18.5008 22.7856 16.5675 22.4915Z" fill="#5FCCDC"/>
<path d="M16.5675 22.4915C16.2231 22.436 15.8987 22.6695 15.842 23.0137C15.7853 23.3579 16.0176 23.6832 16.3616 23.7411C16.6119 23.7813 16.8651 23.8009 17.1186 23.7999C19.2544 23.8455 21.1929 22.5568 21.9773 20.5696C24.2384 20.4348 27.8653 19.2669 27.8653 15.5168C27.8653 15.167 27.5818 14.8835 27.232 14.8835C26.8822 14.8835 26.5987 15.167 26.5987 15.5168C26.5987 19.2591 21.7382 19.316 21.5314 19.3167C21.2593 19.3175 21.0179 19.4916 20.9315 19.7496C20.3576 21.6189 18.5008 22.7856 16.5675 22.4915Z" stroke="#5FCCDC"/>
<path d="M29.832 15.8001C29.9886 16.1129 30.3689 16.2397 30.6818 16.0834C30.795 16.0269 33.3455 14.7207 33.5521 12.0606C34.4091 11.3577 34.8836 10.291 34.8317 9.18382C34.8317 8.83404 34.5482 8.55054 34.1984 8.55054C33.8486 8.55054 33.5651 8.83404 33.5651 9.18382C33.6365 9.9567 33.2863 10.7081 32.6486 11.1505C32.434 11.2578 32.2985 11.4771 32.2985 11.717C32.2985 13.8093 30.1524 14.9315 30.1141 14.951C29.8021 15.108 29.676 15.4877 29.832 15.8001Z" fill="#5FCCDC"/>
<path d="M29.832 15.8001C29.9886 16.1129 30.3689 16.2397 30.6818 16.0834C30.795 16.0269 33.3455 14.7207 33.5521 12.0606C34.4091 11.3577 34.8836 10.291 34.8317 9.18382C34.8317 8.83404 34.5482 8.55054 34.1984 8.55054C33.8486 8.55054 33.5651 8.83404 33.5651 9.18382C33.6365 9.9567 33.2863 10.7081 32.6486 11.1505C32.434 11.2578 32.2985 11.4771 32.2985 11.717C32.2985 13.8093 30.1524 14.9315 30.1141 14.951C29.8021 15.108 29.676 15.4877 29.832 15.8001Z" stroke="#5FCCDC"/>
<path d="M24.6991 13.6169C26.0966 13.5331 27.3834 12.8287 28.207 11.6966C28.8771 11.6295 30.3451 11.3406 30.9654 10.1004C31.1208 9.78761 30.9938 9.40808 30.6815 9.25193C30.3691 9.09578 29.9893 9.22187 29.8324 9.53387C29.3914 10.4158 27.8786 10.4504 27.8657 10.4504C27.6539 10.4504 27.4561 10.5563 27.3387 10.7325C26.7627 11.6591 25.7826 12.259 24.6954 12.3503C24.3456 12.3514 24.0629 12.6357 24.064 12.9855C24.065 13.3353 24.3493 13.6179 24.6991 13.6169Z" fill="#5FCCDC"/>
<path d="M24.6991 13.6169C26.0966 13.5331 27.3834 12.8287 28.207 11.6966C28.8771 11.6295 30.3451 11.3406 30.9654 10.1004C31.1208 9.78761 30.9938 9.40808 30.6815 9.25193C30.3691 9.09578 29.9893 9.22187 29.8324 9.53387C29.3914 10.4158 27.8786 10.4504 27.8657 10.4504C27.6539 10.4504 27.4561 10.5563 27.3387 10.7325C26.7627 11.6591 25.7826 12.259 24.6954 12.3503C24.3456 12.3514 24.0629 12.6357 24.064 12.9855C24.065 13.3353 24.3493 13.6179 24.6991 13.6169Z" stroke="#5FCCDC"/>
</g>
<defs>
<clipPath id="clip0">
<rect width="38" height="38" fill="white"/>
</clipPath>
</defs>
</svg>
