<svg width="38" height="38" viewBox="0 0 38 38" fill="none" xmlns="http://www.w3.org/2000/svg">
<path d="M22.7396 8.80189C22.73 8.79232 22.7204 8.78275 22.7109 8.78275C19.9354 6.7729 19.3324 2.09283 19.3228 2.02584C19.275 1.60473 18.8922 1.30804 18.471 1.35589C18.0499 1.40374 17.7532 1.78657 17.8011 2.20768C17.8298 2.41824 18.4519 7.395 21.6007 9.86423C21.505 10.2088 21.1413 10.8787 21.0073 11.118C20.902 11.3094 20.8159 11.4625 20.7584 11.587C20.7489 11.6061 20.7393 11.6252 20.7393 11.6348C20.5862 12.0655 20.4426 12.4962 20.299 12.9173C19.7918 14.439 19.3133 15.8651 18.4423 17.138C17.313 18.7363 16.0018 20.1432 14.9395 20.8897C14.2312 21.3778 13.4464 21.7319 12.6234 22.0956C11.8673 22.4401 11.0729 22.7847 10.3264 23.2632C9.92442 23.5216 9.54159 23.8087 9.17791 24.115C8.45054 24.7084 7.76145 25.2635 6.90965 25.3496C6.76609 25.3592 6.6321 25.3783 6.49811 25.3879C5.62718 25.4645 4.71797 25.541 3.75133 26.1057C0.363302 28.106 0.439867 32.7095 0.47815 34.9203C0.487721 35.3414 0.822695 35.6764 1.24381 35.6764H1.25338C1.67449 35.6668 2.00946 35.3223 2.00946 34.9012V34.8916C1.94247 31.8003 2.21045 28.7663 4.50741 27.4169C5.16779 27.0341 5.80902 26.9766 6.61296 26.9096C6.75652 26.9001 6.90008 26.8809 7.04364 26.8714C8.34526 26.7469 9.28319 25.9813 10.1254 25.3113C10.4412 25.0433 10.7762 24.7945 11.1303 24.5648C11.7907 24.1437 12.4894 23.8279 13.2359 23.5025C14.0877 23.1196 14.9777 22.7272 15.8008 22.153C17.5427 20.928 19.0931 18.8607 19.6865 18.0185C20.6819 16.5637 21.2274 14.9558 21.7442 13.4054C21.8782 13.0034 22.0218 12.5919 22.1653 12.1803C22.2036 12.1133 22.2706 11.9794 22.3472 11.8549C22.8927 10.8692 23.6392 9.51969 22.7396 8.80189Z" fill="#1EA0D9"/>
<path d="M35.7961 11.2903C34.2169 8.3617 31.6902 6.59113 28.4936 6.17002C28.4841 6.17002 28.4745 6.17002 28.4553 6.17002C28.2639 6.15087 28.0821 6.15087 27.9098 6.15087C27.5557 6.1413 27.2303 6.1413 27.0389 6.02645C27.0293 6.02645 27.0293 6.01688 27.0197 6.01688C26.4072 5.67234 23.9954 2.90641 23.8614 0.944418C23.8327 0.523308 23.469 0.207475 23.0479 0.236187C22.6268 0.264899 22.311 0.628586 22.3397 1.0497C22.5024 3.5955 25.2013 6.74426 26.2637 7.35678C26.7996 7.67261 27.3739 7.68218 27.8907 7.69176C28.0438 7.69176 28.1874 7.69175 28.3214 7.7109C31.0394 8.06501 33.0971 9.52933 34.4466 12.0464C35.5664 14.152 36.131 16.8988 36.0258 19.7987C35.7291 27.1107 32.1113 32.4128 25.833 34.7385C24.0528 35.4085 17.8606 36.7579 12.8743 34.1739C12.8743 34.1739 12.8647 34.1739 12.8647 34.1643C11.9459 33.7049 11.1037 32.9392 10.1849 31.7429L10.1753 31.7238C9.45752 30.7571 8.48131 29.4268 6.5576 30.1829C4.42334 30.9868 4.42334 34.0781 4.42334 35.3893C4.42334 35.8104 4.76788 36.155 5.189 36.155C5.61011 36.155 5.95465 35.8104 5.95465 35.3893C5.95465 34.4705 5.95465 32.0492 7.10313 31.6089H7.1127C7.86879 31.3122 8.15591 31.5515 8.95028 32.6234L8.96942 32.6425L8.97899 32.6521C10.0318 34.0399 11.0558 34.9491 12.1852 35.5138C14.3481 36.6335 16.8748 37.1982 19.6886 37.1982C20.081 37.1982 20.4734 37.1886 20.8754 37.1695C23.4594 37.0259 25.5554 36.4613 26.3689 36.1454C29.8335 34.8629 32.5612 32.7574 34.4944 29.8766C36.3607 27.0915 37.3944 23.7035 37.5475 19.8274C37.6623 16.6595 37.0403 13.6352 35.7961 11.2903Z" fill="#1EA0D9"/>
<path d="M33.4932 18.5929C33.3688 18.3058 32.9381 17.4731 32.1055 17.3583C32.0959 17.3583 32.0864 17.3583 32.0768 17.3583C31.6652 17.32 30.8709 17.4253 30.1914 18.6216C28.5931 21.0813 26.1238 22.4116 24.3245 23.1007C21.4725 24.2109 18.5821 24.4023 15.5195 24.5937C14.7347 24.6416 13.8159 24.7373 12.9354 25.0914C11.5477 25.6178 10.5715 26.6706 10.2652 27.9818C9.95893 29.2929 10.3513 30.6711 11.3562 31.7717C12.0358 32.4991 13.0024 33.0829 14.304 33.5615C15.8832 34.1357 17.5581 34.4324 19.2425 34.4228C20.4675 34.4228 21.6926 34.2697 22.8889 33.9826C25.5879 33.3318 28.1815 31.8866 30.3828 29.8002C32.0481 28.1923 33.1391 26.5461 33.7229 24.7564C34.4695 22.6796 34.3833 20.44 33.4932 18.5929ZM32.2682 24.2492C32.2682 24.2588 32.2586 24.2683 32.2586 24.2683C31.7514 25.8188 30.7943 27.264 29.3109 28.69C27.3106 30.5946 24.9562 31.9057 22.5157 32.4991C19.8837 33.1308 17.2231 33.0064 14.8208 32.1259C13.7681 31.7335 12.9737 31.2645 12.476 30.7285C11.8252 30.0203 11.5572 29.1494 11.7486 28.3359C11.9401 27.5224 12.5717 26.862 13.4809 26.5174C13.4905 26.5174 13.4905 26.5174 13.5001 26.5079C14.1892 26.2303 14.9548 26.1538 15.6152 26.1155C18.6491 25.9241 21.7979 25.7231 24.8605 24.5267C28.5069 23.139 30.4689 20.9951 31.4738 19.4351C31.4834 19.4256 31.493 19.4064 31.5025 19.3873C31.5887 19.2054 31.7227 19.0427 31.8758 18.9087C31.9619 19.0044 32.0289 19.1097 32.0768 19.2246C32.0768 19.2341 32.0864 19.2437 32.0959 19.2533C32.8137 20.7367 32.8807 22.5552 32.2682 24.2492Z" fill="#5FCCDC"/>
</svg>
