<svg width="41" height="40" viewBox="0 0 41 40" fill="none" xmlns="http://www.w3.org/2000/svg">
<path d="M40.0688 10.8482C40.0688 6.65686 36.6591 3.24717 32.4678 3.24717C31.3986 3.24717 30.375 3.4752 29.4115 3.90086C28.4361 1.65539 26.1995 0.0800781 23.5999 0.0800781C21.5736 0.0800781 19.7152 1.03907 18.5313 2.62832C17.3747 1.08468 15.5372 0.0800781 13.4652 0.0800781C10.848 0.0800781 8.57018 1.64525 7.60865 3.9927C7.24507 3.92049 6.87389 3.88059 6.49764 3.88059C3.35398 3.88059 0.796875 6.4377 0.796875 9.58135C0.796875 11.2422 1.53037 12.7921 2.75224 13.8626C1.58738 14.5125 0.796875 15.7565 0.796875 17.1824C0.796875 19.4867 2.04281 21.5707 4.06658 22.6868C4.35099 23.6578 4.59738 24.6877 4.59738 25.7158V27.9505H8.39789V23.4247C11.3237 22.8318 13.4652 20.243 13.4652 17.1824C13.4652 16.5014 13.3544 15.8465 13.1542 15.2314C14.4255 14.5885 15.4263 13.5421 16.0217 12.2835C16.9136 12.9929 18.0068 13.3819 19.166 13.3819C20.6267 13.3819 21.941 12.7573 22.8664 11.7654C23.8527 13.0601 25.3539 13.869 26.9894 13.9874C26.0677 15.0002 25.5002 16.3412 25.5002 17.8158C25.5002 17.8494 25.5059 17.8823 25.5065 17.9159C25.0878 17.8506 24.6628 17.8158 24.2334 17.8158C19.897 17.8158 16.341 21.1875 16.0293 25.4459C14.5934 25.5916 13.4652 26.7932 13.4652 28.2672C13.4652 30.258 14.0486 32.1849 15.1527 33.8406L18.2628 38.5058C18.6162 39.0359 19.2072 39.352 19.8438 39.352H25.0435C25.9936 39.352 26.767 38.5786 26.767 37.6285C26.767 37.4442 26.7373 37.2617 26.6783 37.0837L26.2362 35.7567C25.4806 33.4904 25.0397 31.1442 24.9105 28.7657C25.7726 29.4428 26.8557 29.8507 28.0339 29.8507C29.6953 29.8507 31.1686 29.0431 32.0934 27.8035C35.989 27.0738 38.802 23.7009 38.802 19.716C38.802 18.4568 38.4979 17.2229 37.9481 16.1018C39.258 14.7355 40.0688 12.8865 40.0688 10.8482ZM32.8713 26.2928C33.0208 25.8159 33.1012 25.3091 33.1012 24.7834C33.1012 24.022 32.9359 23.2904 32.6109 22.6076L31.4676 23.1517C31.7109 23.6629 31.8344 24.212 31.8344 24.7834C31.8344 26.8794 30.1298 28.5839 28.0339 28.5839C25.9379 28.5839 24.2334 26.8794 24.2334 24.7834H22.9665C22.9665 25.7069 23.2186 26.5709 23.6525 27.3171H23.5999C23.5999 30.3283 24.0826 33.3022 25.0353 36.1577L25.4761 37.4828C25.492 37.5297 25.5002 37.5803 25.5002 37.6285C25.5002 37.8806 25.2956 38.0852 25.0435 38.0852H19.8438C19.6316 38.0852 19.4339 37.98 19.3168 37.8033L16.2067 33.1382C15.242 31.6908 14.7321 30.0066 14.7321 28.2672C14.7321 27.3937 15.4421 26.6836 16.3156 26.6836C17.1891 26.6836 17.8992 27.3937 17.8992 28.2672V29.2173H19.166V28.2672C19.166 27.0384 18.3806 25.9989 17.2886 25.5992C17.5229 21.9672 20.5437 19.0826 24.2334 19.0826C24.7236 19.0826 25.2069 19.1358 25.6788 19.2353C25.6794 19.2378 25.6794 19.2397 25.6801 19.2422L25.6953 19.2384C26.5441 19.4196 27.3536 19.7572 28.0852 20.243L28.7864 19.1878C28.1643 18.7742 27.4929 18.4555 26.7924 18.2262C26.7803 18.0901 26.767 17.9532 26.767 17.8158C26.767 15.3714 28.7566 13.3819 31.201 13.3819C31.7755 13.3819 32.3354 13.4902 32.8643 13.7043L33.3394 12.5299C32.7883 12.307 32.2113 12.1777 31.6196 12.1347C32.5368 11.1225 33.1012 9.78531 33.1012 8.31452H31.8344C31.8344 10.7589 29.8448 12.7484 27.4004 12.7484C25.8707 12.7484 24.4601 11.9522 23.6512 10.6651C24.0212 9.9614 24.2334 9.16266 24.2334 8.31452H22.9665C22.9665 10.4105 21.262 12.115 19.166 12.115C18.1443 12.115 17.1897 11.716 16.4708 10.992C16.5753 10.5353 16.6323 10.0634 16.6323 9.58135C16.6323 7.15916 15.2838 4.984 13.1137 3.90592L12.5493 5.04038C14.2868 5.90309 15.3655 7.64309 15.3655 9.58135C15.3655 11.4841 14.2938 13.2058 12.6412 14.0698C11.5523 12.1492 9.49181 10.8482 7.13106 10.8482V12.115C9.92507 12.115 12.1984 14.3884 12.1984 17.1824C12.1984 19.7895 10.262 21.9704 7.69543 22.2535L7.13106 22.3156V26.6836H5.86422V25.7158C5.86422 24.4331 5.54688 23.2036 5.20357 22.0667L5.12439 21.8044L4.87926 21.6828C3.14242 20.8195 2.06371 19.0947 2.06371 17.1824C2.06371 15.7851 3.20006 14.6487 4.59738 14.6487C5.99471 14.6487 7.13106 15.7851 7.13106 17.1824H8.39789C8.39789 15.0864 6.69337 13.3819 4.59738 13.3819C4.48084 13.3819 4.36682 13.3888 4.2528 13.3996C2.90236 12.6021 2.06371 11.1535 2.06371 9.58135C2.06371 7.13699 4.05328 5.14742 6.49764 5.14742C7.57825 5.14742 8.61959 5.54078 9.42973 6.25464L10.2671 5.30451C9.83195 4.92066 9.34295 4.61409 8.82228 4.38099C9.61342 2.55738 11.4073 1.34691 13.4652 1.34691C16.2592 1.34691 18.5326 3.62025 18.5326 6.41426H19.7994C19.7994 5.4977 19.5993 4.62802 19.2477 3.84068C20.1586 2.29958 21.7947 1.34691 23.5999 1.34691C26.3939 1.34691 28.6673 3.62025 28.6673 6.41426H29.9341C29.9341 5.9677 29.8866 5.53254 29.7979 5.11259C30.6359 4.72113 31.5316 4.51401 32.4678 4.51401C35.9605 4.51401 38.802 7.35552 38.802 10.8482C38.802 14.3409 35.9605 17.1824 32.4678 17.1824V18.4492C34.1508 18.4492 35.7027 17.8924 36.9638 16.9632C37.3356 17.8285 37.5351 18.7647 37.5351 19.716C37.5351 22.7324 35.6311 25.3351 32.8713 26.2928Z" fill="#1EA0D9"/>
<path d="M25.5012 20.9832H24.2344V22.25H25.5012V20.9832Z" fill="#1EA0D9"/>
<path d="M37.5354 10.2148H36.2686V11.4817H37.5354V10.2148Z" fill="#1EA0D9"/>
<path d="M19.8 9.5813H18.5332V10.8481H19.8V9.5813Z" fill="#1EA0D9"/>
<path d="M13.4646 6.41418H12.1978V7.68102H13.4646V6.41418Z" fill="#1EA0D9"/>
<path d="M5.86547 10.8484H4.59863V12.1152H5.86547V10.8484Z" fill="#1EA0D9"/>
<path d="M9.66674 19.0825H8.3999V20.3494H9.66674V19.0825Z" fill="#1EA0D9"/>
<path d="M19.1663 30.4844H17.8994V31.7512H19.1663V30.4844Z" fill="#1EA0D9"/>
</svg>
