<svg width="41" height="35" viewBox="0 0 41 35" fill="none" xmlns="http://www.w3.org/2000/svg">
<path d="M27.2944 5.48478C27.1725 5.37601 27.0159 5.31627 26.8538 5.31653H14.8541C14.4859 5.31661 14.1874 5.62054 14.1875 5.99539C14.1875 6.15991 14.2462 6.31882 14.3527 6.44261C17.3269 9.90402 19.3241 14.1214 20.132 18.6463L20.1986 19.0135C20.2642 19.3824 20.6111 19.6273 20.9734 19.5605C21.2469 19.5101 21.461 19.2921 21.5106 19.0135L21.5773 18.6456C22.3852 14.1209 24.3825 9.90377 27.3565 6.44261C27.5991 6.16067 27.5713 5.73185 27.2944 5.48478ZM20.8539 15.8274C19.9202 12.504 18.3638 9.39579 16.2707 6.67416H25.4372C23.3441 9.39579 21.7878 12.5039 20.8539 15.8274Z" fill="#5ECADC"/>
<path d="M34.4509 7.96376L35.3482 9.33421C35.6829 9.84346 36.3104 10.0624 36.8815 9.86908L38.1841 9.42584L39.0955 9.73468C39.7939 9.972 40.5492 9.58781 40.7822 8.87654C40.8276 8.73807 40.8507 8.59298 40.8508 8.44696V5.18885C40.8486 3.011 39.1151 1.24602 36.9762 1.24381C35.5019 1.24356 34.0356 1.46263 32.6236 1.89408L31.1843 2.33469C29.2837 2.91614 27.2403 2.77555 25.4337 1.93896C22.5243 0.592612 19.1854 0.592612 16.2759 1.93896C14.469 2.77521 12.4257 2.9158 10.5247 2.33469L9.07806 1.89416C7.66651 1.46272 6.20062 1.24364 4.72682 1.2439C2.58753 1.2461 0.853814 3.01134 0.851564 5.18953V8.44764C0.850647 9.19743 1.44688 9.80595 2.1832 9.80689C2.32695 9.80706 2.46978 9.78355 2.60619 9.73731L3.51818 9.42584L4.82415 9.86908C5.39522 10.0639 6.02363 9.84464 6.35745 9.33421L7.25143 7.96376C9.6468 7.55022 12.0009 8.89453 12.9033 11.1913L9.80605 13.7143C9.1074 12.749 7.4941 12.1043 5.51814 12.1043C2.85752 12.1043 0.851564 13.2718 0.851564 14.8194C0.851564 16.367 2.85752 17.5345 5.51814 17.5345C7.96742 17.5345 9.85805 16.5441 10.1434 15.1791L13.2626 12.6385L13.8866 16.4498C14.1068 17.8097 14.7411 19.0649 15.6999 20.0378L16.8512 21.2094V33.8251C16.8512 34.1999 17.1497 34.5038 17.5179 34.5038H24.1844C24.5526 34.5038 24.8511 34.1999 24.8511 33.8251V21.2094L26.0024 20.0378C26.9612 19.0649 27.5955 17.8097 27.8157 16.4498L28.4397 12.6385L31.5589 15.1791C31.8443 16.5441 33.7349 17.5345 36.1842 17.5345C38.8448 17.5345 40.8508 16.367 40.8508 14.8194C40.8508 13.2718 38.8448 12.1043 36.1842 12.1043C34.2082 12.1043 32.5949 12.7491 31.8949 13.7143L28.7977 11.1913C29.7001 8.89394 32.055 7.54945 34.4509 7.96376ZM5.51814 16.1769C3.48351 16.1769 2.18487 15.3726 2.18487 14.8194C2.18487 14.2662 3.48351 13.4618 5.51814 13.4618C7.55276 13.4618 8.8514 14.2662 8.8514 14.8194C8.8514 15.3726 7.55276 16.1769 5.51814 16.1769ZM36.1842 13.4618C38.2188 13.4618 39.5174 14.2662 39.5174 14.8194C39.5174 15.3726 38.2188 16.1769 36.1842 16.1769C34.1496 16.1769 32.8509 15.3726 32.8509 14.8194C32.8509 14.2662 34.1496 13.4618 36.1842 13.4618ZM27.2505 11.7098C27.2254 11.8248 27.2034 11.9405 27.1844 12.0567L26.5017 16.2264C26.327 17.307 25.823 18.3043 25.0611 19.0772L23.7144 20.4484C23.5889 20.5754 23.5182 20.7481 23.5178 20.9283V33.1462H18.1845V20.9283C18.1845 20.7482 18.1142 20.5756 17.9892 20.4484L16.6432 19.0772C15.8808 18.3045 15.3766 17.3072 15.2019 16.2264L14.518 12.0568C13.9289 8.45579 10.5844 6.02289 7.04769 6.62267C6.93302 6.6421 6.81886 6.66467 6.70545 6.69038C6.5377 6.72831 6.39087 6.83063 6.29545 6.97614L5.24614 8.58145L3.72884 8.06626C3.59209 8.01984 3.44426 8.01984 3.30751 8.06626L2.18487 8.44705V5.18893C2.1867 3.76045 3.32385 2.60297 4.72682 2.60144C6.07096 2.60136 7.40801 2.80117 8.69541 3.19469L10.1387 3.63522C12.3484 4.31068 14.7238 4.14693 16.8239 3.17433C19.3828 1.99021 22.3195 1.99021 24.8784 3.17433C26.9788 4.14667 29.3543 4.31043 31.5643 3.63522L33.0069 3.19469C34.2946 2.80117 35.6318 2.60127 36.9762 2.60144C38.3793 2.60289 39.5164 3.76088 39.5174 5.18953V8.44696L38.3948 8.06617C38.2581 8.01976 38.1102 8.01976 37.9735 8.06617L36.4562 8.58136L35.4055 6.97606C35.3101 6.83055 35.1633 6.72822 34.9955 6.6903C31.4954 5.89884 28.0279 8.1461 27.2505 11.7098Z" fill="#1EA0D9"/>
</svg>
