<svg width="42" height="43" viewBox="0 0 42 43" fill="none" xmlns="http://www.w3.org/2000/svg">
<path d="M20.2665 42.1671C19.1238 42.1671 18.1938 41.2372 18.1938 40.0945V31.6028C18.1938 31.3499 18.3313 31.1178 18.5531 30.9969C19.4492 30.5071 20.366 29.9647 21.2779 29.3865C21.4907 29.251 21.7602 29.2428 21.9813 29.3643C22.2023 29.4859 22.3391 29.7181 22.3391 29.9696V40.0945C22.3391 41.2372 21.4092 42.1671 20.2665 42.1671ZM19.5756 32.0104V40.0945C19.5756 40.4751 19.8851 40.7853 20.2665 40.7853C20.6479 40.7853 20.9574 40.4751 20.9574 40.0945V31.2083C20.4945 31.4867 20.033 31.7548 19.5756 32.0104Z" fill="#5FCCDC"/>
<path d="M32.7024 33.1855H31.3206C28.0783 33.1855 25.1911 31.1225 24.1375 28.0516C24.0394 27.7655 24.1389 27.4484 24.3828 27.2702C25.1704 26.6933 25.9704 26.077 26.7608 25.438C26.9584 25.2784 27.2292 25.2397 27.4634 25.3385C27.6983 25.4373 27.8593 25.657 27.8828 25.9112C28.0493 27.6958 29.5271 29.0409 31.3206 29.0409H32.7024C33.8451 29.0409 34.775 29.9708 34.775 31.1136C34.775 32.2563 33.8451 33.1855 32.7024 33.1855ZM25.625 28.0695C26.606 30.3218 28.8355 31.8038 31.3206 31.8038H32.7024C33.0838 31.8038 33.3933 31.4935 33.3933 31.1129C33.3933 30.7322 33.0838 30.422 32.7024 30.422H31.3206C29.2176 30.422 27.424 29.1003 26.7601 27.2032C26.3815 27.4989 26.0022 27.7883 25.625 28.0695Z" fill="#5FCCDC"/>
<path d="M3.74824 42.1673C3.72337 42.1673 3.69849 42.1673 3.67293 42.1666C2.63522 42.1493 1.78336 40.8318 1.64795 39.0341C1.56988 38.0075 1.36883 37.0126 1.15604 35.9583C0.96605 35.0173 0.769839 34.0439 0.670351 33.0497C0.234404 28.6847 0.00157624 23.5245 1.5837 18.3449C1.67282 18.0527 1.76817 17.7604 1.86903 17.4696C2.51847 15.5924 3.24044 14.1672 4.14204 12.9844C6.47792 9.91822 10.5168 8.57514 16.4895 8.89157C18.585 9.00142 21.9254 9.4574 23.9352 9.90924C25.7957 10.3265 27.7254 10.4751 29.6709 10.3493C32.5187 10.1649 35.7721 9.34755 37.5822 8.36166C38.6413 7.78546 39.9022 7.9423 40.7934 8.76376C41.6646 9.56656 41.9202 10.7811 41.4435 11.8582C40.8093 13.2918 39.4607 15.039 37.4337 17.0509C36.8692 17.6119 36.1313 18.3567 35.4322 19.1381C33.5668 21.2245 26.7975 28.38 18.0081 32.8542C16.2401 33.7537 14.4604 34.3734 12.7173 34.6947C10.921 35.0256 8.48425 36.044 7.07139 39.0106C7.02994 39.097 6.99815 39.2248 6.95463 39.3726C6.71006 40.2107 6.1387 42.1673 3.74824 42.1673ZM2.90536 18.7484C1.3944 23.6944 1.62308 28.684 2.0459 32.9122C2.13848 33.838 2.32778 34.7769 2.51087 35.6854C2.72228 36.7342 2.94129 37.8182 3.02557 38.9305C3.11401 40.0988 3.55894 40.7254 3.72958 40.7903C4.99528 40.7876 5.32691 40.0179 5.62882 38.9844C5.69238 38.7661 5.74765 38.5774 5.82434 38.4158C7.57504 34.7382 10.7379 33.6542 12.4672 33.335C14.079 33.0372 15.733 32.461 17.3821 31.6223C25.9581 27.2573 32.5781 20.258 34.4034 18.2171C35.1268 17.4088 35.8833 16.6454 36.4616 16.0712C38.3657 14.181 39.6168 12.5754 40.1813 11.3C40.4646 10.6602 40.1999 10.0958 39.8587 9.78074C39.5008 9.45118 38.8893 9.22457 38.2441 9.57623C35.9351 10.833 32.3197 11.5632 29.7607 11.729C27.6832 11.8617 25.6216 11.7042 23.6332 11.2578C21.6856 10.8205 18.4489 10.3783 16.4177 10.272C10.8574 9.97833 7.30767 11.1093 5.24193 13.8224C4.43221 14.885 3.77587 16.188 3.17619 17.9221C3.07946 18.1964 2.98965 18.472 2.90536 18.7484Z" fill="#1EA0D9"/>
<path d="M5.06552 35.2579C5.0068 35.2579 4.94807 35.2503 4.88935 35.2351C4.63372 35.1674 4.4382 34.9602 4.38777 34.7004C4.37602 34.6403 4.35322 34.5401 4.32283 34.4061C4.00709 32.996 3.04607 28.7056 3.69688 25.4508C3.7715 25.0771 4.13629 24.8339 4.51005 24.9092C4.88451 24.9838 5.12701 25.3479 5.05171 25.7224C4.69314 27.5138 4.83408 30.01 5.46831 33.1507C7.89677 30.8819 10.6658 30.1551 11.8389 29.9388C13.22 29.6839 14.6847 28.9958 15.8067 28.4258C16.1466 28.2524 16.5625 28.3878 16.7359 28.7284C16.9086 29.0683 16.7732 29.4842 16.4333 29.6576C15.2284 30.2711 13.6463 31.0111 12.0897 31.2985C10.9083 31.5161 7.90989 32.3155 5.58991 35.0189C5.45657 35.1723 5.26381 35.2579 5.06552 35.2579Z" fill="#5FCCDC"/>
<path d="M5.06715 20.7492C4.99253 20.7492 4.91584 20.7368 4.84123 20.7105C4.48059 20.5862 4.28921 20.1924 4.41426 19.8317C4.92759 18.3484 6.20503 15.9773 6.89039 15.0771C8.26939 13.2663 10.6902 12.4586 14.7395 12.4586C15.1209 12.4586 15.4304 12.7681 15.4304 13.1495C15.4304 13.5309 15.1209 13.8404 14.7395 13.8404C11.1642 13.8404 9.08256 14.4801 7.98958 15.9144C7.37746 16.7186 6.18569 18.937 5.72003 20.2843C5.62124 20.5703 5.35317 20.7492 5.06715 20.7492Z" fill="#5FCCDC"/>
<path d="M22.3396 8.31369C21.9582 8.31369 21.6487 8.00417 21.6487 7.62281C21.6487 5.71804 20.0991 4.16839 18.1943 4.16839C17.8129 4.16839 17.5034 3.85887 17.5034 3.4775C17.5034 3.09614 17.8129 2.78662 18.1943 2.78662C20.8611 2.78662 23.0305 4.956 23.0305 7.62281C23.0305 8.00417 22.721 8.31369 22.3396 8.31369Z" fill="#1EA0D9"/>
<path d="M25.1035 8.31369C24.7221 8.31369 24.4126 8.00417 24.4126 7.62281C24.4126 7.24144 24.7221 6.93192 25.1035 6.93192C27.0082 6.93192 28.5579 5.38227 28.5579 3.4775C28.5579 3.09614 28.8674 2.78662 29.2488 2.78662C29.6301 2.78662 29.9397 3.09614 29.9397 3.4775C29.9397 6.14432 27.7696 8.31369 25.1035 8.31369Z" fill="#1EA0D9"/>
<path d="M25.1004 28.3491C24.9373 28.3491 24.7729 28.2918 24.6416 28.175C24.3563 27.9215 24.3307 27.4849 24.5843 27.1995C29.6519 21.4983 26.0828 16.535 25.9287 16.3264C25.7021 16.0203 25.765 15.5878 26.0704 15.3605C26.3757 15.1325 26.8068 15.1947 27.0355 15.4994C27.0804 15.5588 31.4523 21.5543 25.6171 28.1184C25.4803 28.2711 25.291 28.3491 25.1004 28.3491Z" fill="#1EA0D9"/>
<path d="M25.1029 11.52C25.0669 11.52 25.0317 11.5172 24.9958 11.5117C24.5398 11.4398 24.0845 11.359 23.6327 11.2574C23.2147 11.1635 22.7297 11.0702 22.2184 10.9797C21.8889 10.9217 21.6484 10.6343 21.6484 10.2999V2.78652C21.6484 1.6438 22.5784 0.713867 23.7211 0.713867C24.8638 0.713867 25.7937 1.6438 25.7937 2.78652V10.8291C25.7937 11.0308 25.7053 11.2229 25.5519 11.3542C25.4255 11.4619 25.2659 11.52 25.1029 11.52ZM23.936 9.90953C24.0942 9.94476 24.2531 9.97793 24.412 10.009V2.78652C24.412 2.40584 24.1025 2.09563 23.7211 2.09563C23.3397 2.09563 23.0302 2.40584 23.0302 2.78652V9.72368C23.3528 9.78448 23.6582 9.84666 23.936 9.90953Z" fill="#1EA0D9"/>
<path d="M9.85168 10.8054C9.62852 10.8054 9.41435 10.697 9.28308 10.507C8.63365 9.566 7.57453 9.00431 6.44908 9.00431H5.7582C4.61548 9.00431 3.68555 8.07438 3.68555 6.93166C3.68555 5.78894 4.61548 4.85901 5.7582 4.85901H6.44908C9.4254 4.85901 12.1426 6.61662 13.371 9.33732C13.4636 9.54182 13.4505 9.7781 13.3372 9.97086C13.2239 10.1643 13.0235 10.2907 12.8004 10.3101C11.7993 10.3958 10.8687 10.5547 10.0341 10.7813C9.97328 10.7978 9.91248 10.8054 9.85168 10.8054ZM5.7582 6.24078C5.37683 6.24078 5.06731 6.55098 5.06731 6.93166C5.06731 7.31234 5.37683 7.62254 5.7582 7.62254H6.44908C7.86608 7.62254 9.2064 8.2547 10.1225 9.33317C10.6054 9.21848 11.1132 9.12383 11.6411 9.04991C10.5032 7.31786 8.55489 6.24078 6.44908 6.24078H5.7582Z" fill="#1EA0D9"/>
</svg>
