<svg width="44" height="44" viewBox="0 0 44 44" fill="none" xmlns="http://www.w3.org/2000/svg">
<path d="M44 12.7742C44 7.68725 39.8611 3.54839 34.7742 3.54839C33.6258 3.54839 32.5152 3.76774 31.4594 4.17559C29.0656 1.56697 25.6499 0 22 0C18.3501 0 14.9344 1.56697 12.5406 4.17559C11.4848 3.76774 10.3742 3.54839 9.22581 3.54839C4.13886 3.54839 0 7.68725 0 12.7742C0 16.2942 2.01468 19.5019 5.1566 21.0491C5.83994 23.2208 8.35569 24.8387 11.3548 24.8387C12.9814 24.8387 14.4638 24.3591 15.5925 23.5777C15.4972 25.5009 15.0522 27.368 14.266 29.1387L13.5185 30.819C13.0247 31.9313 12.7742 33.1116 12.7742 34.3286C12.7742 36.6364 13.6734 38.806 15.3048 40.4374L18.8674 44H25.1326L28.6952 40.4374C30.3266 38.806 31.2258 36.6364 31.2258 34.3286C31.2258 33.1123 30.9753 31.9313 30.4815 30.819L29.734 29.1387C28.9471 27.368 28.5028 25.5009 28.4075 23.5777C29.5362 24.3591 31.0186 24.8387 32.6452 24.8387C35.6443 24.8387 38.1601 23.2208 38.8434 21.0491C41.9853 19.5019 44 16.2942 44 12.7742ZM22 1.41935C25.6128 1.41935 28.9727 3.14018 31.1024 5.95048C30.5553 6.23948 30.0307 6.56105 29.5317 6.91312C27.3971 5.20338 24.7493 4.25806 22 4.25806C19.2507 4.25806 16.6029 5.20338 14.469 6.91312C13.97 6.56105 13.4454 6.23948 12.8982 5.95048C15.0273 3.14018 18.3872 1.41935 22 1.41935ZM25.8131 30.7701C26.5575 31.7161 26.9677 32.8863 26.9677 34.0645C26.9677 35.505 26.3412 36.8734 25.249 37.8167C23.8196 39.0513 22.9339 40.7576 22.7495 42.5806H21.2512C21.0668 40.7583 20.1804 39.0513 18.7517 37.8167C17.6588 36.8734 17.0323 35.505 17.0323 34.0645C17.0323 32.8863 17.4425 31.7161 18.1869 30.7701C20.188 28.2273 21.2903 25.1128 21.2903 22L20.3457 16.2737C19.7902 12.9409 18.0926 9.97083 15.6108 7.81442C17.4474 6.43388 19.6835 5.67742 22 5.67742C24.3158 5.67742 26.5526 6.43318 28.3892 7.81338C25.9074 9.97014 24.2098 12.9402 23.6543 16.273L22.7197 21.8829L22.7097 22C22.7097 25.1128 23.812 28.2273 25.8131 30.7701ZM1.41935 12.7742C1.41935 8.47004 4.92165 4.96774 9.22581 4.96774C10.0398 4.96774 10.8326 5.09422 11.5939 5.33679C11.3067 5.73563 11.0385 6.15008 10.7956 6.58427C10.2848 6.45536 9.75945 6.3871 9.22581 6.3871C5.70445 6.3871 2.83871 9.25284 2.83871 12.7742C2.83871 14.828 3.83427 16.7412 5.47297 17.9349C5.23248 18.375 5.07274 18.847 5.00551 19.3408C2.79609 17.9187 1.41935 15.4518 1.41935 12.7742ZM6.33685 16.8081C5.04502 15.8804 4.25806 14.3838 4.25806 12.7742C4.25806 10.0349 6.48655 7.80645 9.22581 7.80645C9.53733 7.80645 9.8447 7.84041 10.1469 7.89724L9.84885 8.55286L13.5535 15.0366C13.5923 15.1049 13.6259 15.1763 13.6634 15.2445C12.9468 15.0266 12.1695 14.9032 11.3548 14.9032C9.31867 14.9032 7.50706 15.6507 6.33685 16.8081ZM11.3548 23.4194C8.61558 23.4194 6.3871 21.8274 6.3871 19.871C6.3871 17.9145 8.61558 16.3226 11.3548 16.3226C14.0941 16.3226 16.3226 17.9145 16.3226 19.871C16.3226 21.8274 14.0941 23.4194 11.3548 23.4194ZM16.3084 39.4339C14.9445 38.07 14.1935 36.2566 14.1935 34.3286C14.1935 33.3115 14.4028 32.325 14.8152 31.3963L15.5627 29.7157C16.5378 27.5211 17.0323 25.1922 17.0323 22.7904C17.0323 22.5804 17.0236 22.3711 17.016 22.1625C17.4772 21.4764 17.7419 20.6978 17.7419 19.871C17.7419 18.4495 16.9654 17.1684 15.7307 16.2623C15.4559 15.6008 15.1396 14.9514 14.7854 14.3318L11.4415 8.4794L11.6088 8.10931C11.7599 7.77665 11.9318 7.45716 12.112 7.14425C15.7342 9.00784 18.2714 12.462 18.9454 16.5062L19.871 22.0582C19.8568 24.8352 18.8647 27.615 17.0721 29.8931C16.131 31.0875 15.6129 32.5693 15.6129 34.0645C15.6129 35.9181 16.4182 37.6774 17.8237 38.8909C18.9392 39.8549 19.6426 41.1713 19.8221 42.5806H19.4551L16.3084 39.4339ZM29.1841 31.3953C29.5972 32.3243 29.8064 33.3115 29.8064 34.3279C29.8064 36.2566 29.0555 38.0693 27.6916 39.4332L24.5449 42.5806H24.1779C24.3574 41.1713 25.0608 39.8542 26.1763 38.8909C27.5818 37.6774 28.3871 35.9181 28.3871 34.0645C28.3871 32.5693 27.869 31.0875 26.9279 29.8924C25.1353 27.615 24.1425 24.8346 24.129 22.0575L25.0546 16.5062C25.7286 12.462 28.2658 9.00784 31.888 7.14425C32.0682 7.45716 32.2401 7.77665 32.3912 8.10931L32.5585 8.47836L29.2146 14.3311C28.8611 14.95 28.5489 15.5987 28.2755 16.2574C27.0367 17.1643 26.2581 18.4468 26.2581 19.871C26.2581 20.6964 26.5221 21.4733 26.9819 22.1591C26.974 22.369 26.9677 22.5797 26.9677 22.7904C26.9677 25.1915 27.4622 27.5211 28.4373 29.715L29.1841 31.3953ZM34.1511 8.55286L33.8531 7.89724C34.1553 7.84041 34.4627 7.80645 34.7742 7.80645C37.5135 7.80645 39.7419 10.0349 39.7419 12.7742C39.7419 14.3838 38.955 15.8804 37.6631 16.8081C36.4929 15.6507 34.6813 14.9032 32.6452 14.9032C31.8305 14.9032 31.0539 15.0266 30.3373 15.2439C30.3747 15.1756 30.4084 15.1042 30.4465 15.0359L34.1511 8.55286ZM32.6452 23.4194C29.9059 23.4194 27.6774 21.8274 27.6774 19.871C27.6774 17.9145 29.9059 16.3226 32.6452 16.3226C35.3844 16.3226 37.6129 17.9145 37.6129 19.871C37.6129 21.8274 35.3844 23.4194 32.6452 23.4194ZM38.9945 19.3408C38.9273 18.8477 38.7675 18.375 38.527 17.9349C40.1657 16.7412 41.1613 14.828 41.1613 12.7742C41.1613 9.25284 38.2956 6.3871 34.7742 6.3871C34.2405 6.3871 33.7152 6.45536 33.2044 6.58427C32.9622 6.15008 32.694 5.73494 32.4061 5.33679C33.1674 5.09422 33.9595 4.96774 34.7742 4.96774C39.0783 4.96774 42.5806 8.47004 42.5806 12.7742C42.5806 15.4518 41.2039 17.9187 38.9945 19.3408Z" fill="#1EA0D9"/>
</svg>
