<svg width="317" height="455" viewBox="0 0 317 455" fill="none" xmlns="http://www.w3.org/2000/svg">
<path d="M237.065 184.001C231.107 175.101 219.02 172.708 210.12 178.666C201.22 184.623 198.827 196.71 204.784 205.61C209.48 212.624 217.981 215.593 225.73 213.622L239.554 234.274C246.836 245.151 243.911 259.925 233.033 267.206C222.156 274.488 207.382 271.562 200.101 260.685L179.33 229.657C189.921 218.948 191.901 201.883 183.205 188.892L166.402 163.791C164.413 160.82 160.392 160.023 157.42 162.012L146.66 169.215C143.689 171.204 142.893 175.226 144.882 178.197C146.871 181.168 150.892 181.964 153.863 179.975L159.243 176.374L172.445 196.095C178.403 204.995 176.009 217.082 167.109 223.04C158.21 228.997 146.122 226.604 140.165 217.704L126.963 197.983L132.343 194.381C135.314 192.392 136.111 188.371 134.122 185.4C132.133 182.429 128.111 181.632 125.14 183.621L114.38 190.824C111.409 192.813 110.613 196.835 112.601 199.806L129.405 224.907C138.101 237.898 154.633 242.57 168.57 236.86L189.341 267.888C200.594 284.698 223.426 289.22 240.236 277.966C257.047 266.713 261.568 243.882 250.315 227.071L236.49 206.419C241.265 200.006 241.76 191.015 237.065 184.001ZM224.526 200.186C221.559 202.172 217.53 201.374 215.544 198.407C213.559 195.441 214.356 191.411 217.323 189.426C220.29 187.44 224.319 188.238 226.305 191.204C228.29 194.171 227.493 198.2 224.526 200.186Z" fill="#B8ECD6"/>
<path d="M42.1378 10.6071L33.252 15.6711C31.0495 11.8062 26.0709 10.4807 22.1501 12.7152C18.2292 14.9496 16.8322 19.9086 19.0348 23.7734L10.149 28.8373C7.20556 30.5148 6.15901 34.2297 7.81248 37.131L29.7756 75.6699C31.4291 78.5713 35.1586 79.5643 38.102 77.8869L70.0908 59.6566C73.0342 57.9792 74.0808 54.2643 72.4273 51.3629L50.4642 12.824C48.8107 9.92267 45.0812 8.92967 42.1378 10.6071ZM24.6459 17.0946C26.1232 16.2527 27.9793 16.7469 28.8091 18.203C29.639 19.6592 29.1181 21.508 27.6409 22.3499C26.1636 23.1918 24.3075 22.6976 23.4776 21.2414C22.6478 19.7853 23.1686 17.9365 24.6459 17.0946ZM66.7215 53.7444C66.9274 54.1057 66.796 54.5722 66.4294 54.7811L35.7735 72.2518C35.4069 72.4606 34.9386 72.3359 34.7327 71.9746L13.5183 34.7496C13.3124 34.3883 13.4438 33.9217 13.8104 33.7129L18.4754 31.0543L20.7216 34.9958C21.1334 35.7184 22.0702 35.9678 22.8032 35.55L41.4634 24.9157C42.1965 24.4979 42.4593 23.5649 42.0475 22.8423L39.8013 18.9008L44.4663 16.2422C44.8329 16.0333 45.3012 16.158 45.5071 16.5193L66.7215 53.7444Z" fill="#B8ECD6"/>
<path d="M303.477 158.988L303.017 161.494C302.909 162.084 302.33 162.477 301.731 162.367L286.481 159.569C285.882 159.459 285.48 158.886 285.589 158.295L286.048 155.79C286.157 155.199 286.736 154.806 287.335 154.916L302.585 157.715C303.184 157.825 303.586 158.398 303.477 158.988ZM301.206 165.231L285.955 162.432C285.356 162.322 284.777 162.715 284.669 163.306L284.209 165.811C284.101 166.402 284.502 166.975 285.102 167.085L300.352 169.884C300.951 169.994 301.53 169.6 301.638 169.01L302.098 166.504C302.206 165.914 301.805 165.341 301.206 165.231ZM314.098 150.199L308.645 179.915C308.21 182.286 305.905 183.852 303.499 183.41L277.356 178.612C274.951 178.171 273.352 175.889 273.787 173.518L280.618 136.295C281.053 133.924 283.358 132.358 285.763 132.8L304.291 136.2C305.443 136.411 306.467 137.071 307.136 138.026L313.375 146.931C314.046 147.877 314.307 149.063 314.098 150.199ZM303.792 140.908L302.543 147.718L309.451 148.985L303.792 140.908ZM304.288 179.115L309.017 153.345L299.576 151.613C298.369 151.391 297.573 150.256 297.792 149.066L299.499 139.76L284.975 137.095L278.144 174.318L304.288 179.115Z" fill="#B8ECD6"/>
<path d="M194.947 61.4971C192.23 61.9091 190.367 64.4372 190.779 67.1546C191.191 69.872 193.719 71.7345 196.437 71.3226C199.154 70.9107 201.017 68.3825 200.605 65.6652C200.193 62.9478 197.665 61.0852 194.947 61.4971ZM212.142 58.8906C209.425 59.3025 207.562 61.8307 207.974 64.5481C208.386 67.2654 210.914 69.128 213.631 68.7161C216.349 68.3042 218.211 65.776 217.799 63.0586C217.388 60.3413 214.859 58.4787 212.142 58.8906ZM229.337 56.2841C226.619 56.696 224.757 59.2242 225.169 61.9415C225.581 64.6589 228.109 66.5215 230.826 66.1096C233.543 65.6976 235.406 63.1695 234.994 60.4521C234.582 57.7347 232.054 55.8721 229.337 56.2841ZM208.046 31.8705C186.338 35.1613 170.911 52.1213 173.585 69.7611C174.693 77.0688 178.762 83.2993 184.645 87.92C183.275 94.3156 179.293 100.165 179.226 100.238C178.375 101.466 178.336 103.074 179.124 104.336C179.913 105.599 181.381 106.272 182.855 106.048C192.296 104.617 199.144 99.5426 203.132 95.7028C207.781 96.4273 212.692 96.4995 217.727 95.7362C239.436 92.4454 254.863 75.4854 252.189 57.8456C249.515 40.2057 229.754 28.5798 208.046 31.8705ZM216.61 88.3671C212.511 88.9884 208.363 88.9734 204.293 88.334L200.64 87.7569L197.967 90.3294C196.007 92.2127 193.261 94.4037 189.815 96.1197C190.654 94.0922 191.427 91.839 191.934 89.4849L192.908 84.9243L189.238 82.0569C186.01 79.5151 181.936 75.1227 180.954 68.644C178.901 55.1033 191.554 41.909 209.163 39.2396C226.772 36.5703 242.767 45.4219 244.82 58.9626C246.872 72.5034 234.219 85.6977 216.61 88.3671Z" fill="#00A863"/>
<path d="M200.312 419.344C201.837 414.673 199.278 409.633 194.607 408.107C189.936 406.582 184.896 409.142 183.371 413.812C182.169 417.493 183.505 421.403 186.411 423.641L182.872 434.48C181.008 440.189 174.847 443.317 169.138 441.453C163.429 439.589 160.302 433.428 162.166 427.719L167.483 411.435C174.347 412.225 181.068 408.107 183.294 401.289L187.595 388.115C188.104 386.556 187.253 384.879 185.693 384.37L180.046 382.526C178.487 382.017 176.81 382.868 176.301 384.427C175.792 385.987 176.643 387.664 178.202 388.173L181.026 389.095L177.647 399.445C176.122 404.116 171.081 406.675 166.41 405.15C161.739 403.625 159.18 398.584 160.705 393.913L164.085 383.563L166.908 384.485C168.468 384.994 170.144 384.143 170.654 382.584C171.163 381.024 170.311 379.347 168.752 378.838L163.105 376.994C161.545 376.485 159.868 377.336 159.359 378.896L155.058 392.07C152.832 398.887 155.827 406.178 161.835 409.591L156.518 425.875C153.638 434.698 158.472 444.219 167.294 447.1C176.117 449.981 185.638 445.147 188.519 436.324L192.058 425.485C195.725 425.393 199.11 423.025 200.312 419.344ZM190.92 419.402C189.363 418.893 188.51 417.213 189.018 415.656C189.526 414.099 191.207 413.246 192.763 413.755C194.32 414.263 195.174 415.943 194.665 417.5C194.157 419.057 192.477 419.91 190.92 419.402Z" fill="#B8ECD6"/>
<path d="M274.844 339.583C276.911 338.747 277.906 336.401 277.07 334.333C276.233 332.265 273.887 331.27 271.819 332.107C269.752 332.943 268.757 335.289 269.593 337.357C270.43 339.425 272.776 340.42 274.844 339.583ZM261.76 344.876C263.827 344.039 264.822 341.693 263.986 339.625C263.149 337.557 260.803 336.563 258.735 337.399C256.668 338.235 255.673 340.582 256.509 342.649C257.346 344.717 259.692 345.712 261.76 344.876ZM248.675 350.168C250.743 349.332 251.738 346.985 250.902 344.917C250.065 342.85 247.719 341.855 245.651 342.691C243.584 343.528 242.589 345.874 243.425 347.942C244.261 350.009 246.608 351.004 248.675 350.168ZM270.076 365.436C286.595 358.755 295.583 342.463 290.154 329.041C287.905 323.48 283.52 319.327 278.006 316.786C277.885 311.479 279.928 306.112 279.968 306.042C280.408 304.912 280.136 303.635 279.276 302.787C278.417 301.938 277.131 301.684 276.01 302.137C268.825 305.043 264.373 310.337 261.947 314.119C258.141 314.422 254.251 315.288 250.419 316.838C233.9 323.52 224.912 339.811 230.341 353.234C235.77 366.657 253.557 372.118 270.076 365.436ZM252.687 322.446C255.806 321.184 259.084 320.416 262.418 320.155L265.41 319.923L267.036 317.39C268.229 315.534 269.985 313.288 272.383 311.285C272.102 313.043 271.915 314.967 271.957 316.921L272.047 320.705L275.484 322.278C278.51 323.678 282.552 326.379 284.546 331.309C288.714 341.612 281.207 354.409 267.808 359.829C254.408 365.249 240.116 361.27 235.948 350.966C231.781 340.662 239.288 327.866 252.687 322.446Z" fill="#B8ECD6"/>
</svg>
