<svg width="12" height="16" viewBox="0 0 12 16" fill="none" xmlns="http://www.w3.org/2000/svg">
<path d="M5.20063 15.2471C0.814203 8.88804 0 8.23541 0 5.89838C0 2.69714 2.59509 0.102051 5.79633 0.102051C8.99756 0.102051 11.5927 2.69714 11.5927 5.89838C11.5927 8.23541 10.7784 8.88804 6.39202 15.2471C6.10416 15.6629 5.48846 15.6629 5.20063 15.2471ZM5.79633 8.31351C7.13017 8.31351 8.21146 7.23223 8.21146 5.89838C8.21146 4.56453 7.13017 3.48324 5.79633 3.48324C4.46248 3.48324 3.38119 4.56453 3.38119 5.89838C3.38119 7.23223 4.46248 8.31351 5.79633 8.31351Z" fill="white"/>
</svg>
