<svg width="26" height="19" viewBox="0 0 26 19" fill="none" xmlns="http://www.w3.org/2000/svg">
<path d="M2.81626 18.3061H22.5305C23.0072 18.3066 23.4761 18.1854 23.8929 17.9541H1.45386C1.87066 18.1854 2.33957 18.3066 2.81626 18.3061Z" fill="#0D5EB0"/>
<path d="M5.98469 10.2092H0V11.9694H25.3469V10.2092H9.85714H5.98469ZM0 15.4898C0 15.6095 0.00985714 15.7264 0.0246429 15.8418H25.323C25.3371 15.7264 25.3469 15.6095 25.3469 15.4898V14.0816H0V15.4898ZM9.85714 6.33673H25.3469V8.09693H9.85714V6.33673ZM9.85714 2.46428V4.22448H25.3469V2.81632C25.3469 2.69663 25.3371 2.57975 25.3223 2.46428H9.85714Z" fill="#EEEEEE"/>
<path d="M9.85714 4.22449H25.3469V6.33674H9.85714V4.22449ZM0 11.9694H25.3469V14.0816H0V11.9694ZM1.45393 17.9541H23.893C24.2807 17.7393 24.6122 17.4361 24.8607 17.069C25.1092 16.702 25.2676 16.2816 25.323 15.8418H0.0246429C0.0797876 16.2816 0.23798 16.7021 0.486347 17.0691C0.734713 17.4362 1.06623 17.7394 1.45393 17.9541ZM0 6.33674H3.87245V10.2092H0V6.33674ZM9.85714 8.09694V6.33674H5.98469V10.2092H25.3469V8.09694H9.85714ZM23.893 0.352042C23.4762 0.120728 23.0073 -0.000439096 22.5306 1.19566e-06H2.81633C2.13076 0.000753348 1.46899 0.251419 0.954968 0.705045C0.440944 1.15867 0.109934 1.78414 0.0239388 2.46429C0.00985715 2.57976 0 2.69663 0 2.81633V4.22449H3.87245V0.352042H5.98469V4.22449H9.85714V2.46429H25.3223C25.2672 2.02455 25.109 1.60405 24.8606 1.23701C24.6122 0.869965 24.2807 0.56675 23.893 0.352042Z" fill="#0D5EB0"/>
<path d="M5.98469 4.22449V0H3.87245V4.22449H0V6.33673H3.87245V10.2092H5.98469V6.33673H9.85714V4.22449H5.98469Z" fill="#EEEEEE"/>
</svg>
