<svg width="509" height="467" viewBox="0 0 509 467" fill="none" xmlns="http://www.w3.org/2000/svg">
<g opacity="0.08" filter="url(#filter0_d)">
<path d="M267.479 377.918C111.473 411.881 21.3567 294.742 52.5402 214.71C83.7236 134.678 145.682 204.364 207.255 106.195C268.828 8.02625 383.338 43.2383 424.798 115.653C466.259 188.068 423.485 343.954 267.479 377.918Z" fill="url(#paint0_linear)"/>
</g>
<path fill-rule="evenodd" clip-rule="evenodd" d="M359.284 233.232H320.457V228.199H359.284V233.232Z" fill="#1EA0D9"/>
<path fill-rule="evenodd" clip-rule="evenodd" d="M244.957 337.13C244.957 336.137 245.967 335.332 247.214 335.332H359.18C360.427 335.332 361.437 336.137 361.437 337.13C361.437 338.123 360.427 338.928 359.18 338.928H247.214C245.967 338.928 244.957 338.123 244.957 337.13Z" fill="#5CC7DA"/>
<path fill-rule="evenodd" clip-rule="evenodd" d="M203.974 346.837C203.974 345.645 204.987 344.68 206.236 344.68H359.177C360.426 344.68 361.439 345.645 361.439 346.837C361.439 348.028 360.426 348.994 359.177 348.994H206.236C204.987 348.994 203.974 348.028 203.974 346.837Z" fill="#5CC7DA"/>
<path fill-rule="evenodd" clip-rule="evenodd" d="M306.748 68.5773L309.708 69.4443C315.955 71.2172 320.7 75.9813 322.465 82.254L323.329 85.2267L285.489 123.223L282.314 120.034L318.272 83.926L318.148 83.4979L318.145 83.4882C316.805 78.7174 313.23 75.1276 308.479 73.782L308.47 73.7793L308.043 73.6544L272.578 109.266L269.402 106.077L306.748 68.5773Z" fill="#5DC6D9"/>
<path fill-rule="evenodd" clip-rule="evenodd" d="M252.294 289.358C258.787 287.384 265.639 287.384 272.132 289.358L272.134 289.359L286.273 293.677C288.625 294.364 290.255 296.511 290.255 298.924V328.142H285.715V298.924C285.715 298.461 285.39 298.052 284.972 297.932L284.954 297.927L270.785 293.599C270.784 293.599 270.784 293.599 270.783 293.599C265.169 291.892 259.258 291.892 253.643 293.599C253.642 293.599 253.642 293.599 253.641 293.599L239.472 297.927L239.454 297.932C239.036 298.052 238.711 298.461 238.711 298.924V328.142H234.171V298.924C234.171 296.511 235.801 294.364 238.153 293.677L252.294 289.358Z" fill="#5CC7DA"/>
<path fill-rule="evenodd" clip-rule="evenodd" d="M234.345 159.892V166.635C234.345 167.836 235.093 168.964 236.197 169.427C236.198 169.428 236.199 169.428 236.2 169.428L255.597 177.463C258.696 178.704 262.135 178.704 265.234 177.463L284.63 169.428C284.631 169.428 284.632 169.428 284.634 169.427C285.737 168.964 286.485 167.836 286.485 166.635V159.892H290.973V166.635C290.973 169.656 289.134 172.427 286.356 173.589L286.353 173.59L266.923 181.638L266.911 181.643C262.736 183.32 258.094 183.32 253.919 181.643L253.908 181.638L234.478 173.59L234.474 173.589C231.696 172.427 229.857 169.656 229.857 166.635V159.892H234.345Z" fill="#5FCCDC"/>
<path fill-rule="evenodd" clip-rule="evenodd" d="M196.264 330.55V353.057H356.923V330.55H196.264ZM191.75 330.325C191.75 327.912 193.655 325.985 196.041 325.985H361.437V357.622H196.041C193.655 357.622 191.75 355.695 191.75 353.282V330.325Z" fill="#1EA0D9"/>
<path fill-rule="evenodd" clip-rule="evenodd" d="M196.973 245.826V258.027H318.115V245.826H196.973ZM192.475 245.744C192.351 243.025 194.488 241.141 196.75 241.141H322.612V262.712H196.75C194.374 262.712 192.475 260.734 192.475 258.259V245.744Z" fill="#1EA0D9"/>
<path fill-rule="evenodd" clip-rule="evenodd" d="M224.83 134.489C224.83 132.613 226.314 131.132 228.193 131.132H294.566V161.33H228.193C227.226 161.33 226.369 160.916 225.777 160.325C225.229 159.778 224.752 158.907 224.83 157.864V134.489ZM229.301 135.594V156.868H290.096V135.594H229.301Z" fill="#1EA0D9"/>
<path fill-rule="evenodd" clip-rule="evenodd" d="M290.975 131.132H293.22C298.246 131.132 315.201 133.787 330.958 144.901C346.864 156.121 361.438 175.893 361.438 209.787V330.299H318.497V192.393C318.497 180.591 313.152 172.951 307.274 168.203C304.313 165.811 301.213 164.155 298.597 163.1C295.908 162.017 293.933 161.65 293.22 161.65H290.975V159.395H293.22C290.975 159.395 290.975 159.395 290.975 159.395V131.132ZM295.466 157.414C296.842 157.698 298.5 158.203 300.269 158.915C303.238 160.111 306.736 161.98 310.089 164.689C316.838 170.141 322.988 179 322.988 192.393V325.79H356.947V209.787C356.947 177.439 343.149 159.012 328.376 148.591C315.418 139.451 301.625 136.42 295.466 135.78V157.414Z" fill="#1EA0D9"/>
<path fill-rule="evenodd" clip-rule="evenodd" d="M230.578 130.785C230.578 114.303 243.754 100.933 260.057 100.933C276.365 100.933 289.537 114.308 289.537 130.866C289.537 131.951 289.46 132.955 289.386 133.924C289.381 134 289.375 134.075 289.369 134.151L287.14 134.064V134.727H230.917L230.747 134.083C230.666 133.101 230.578 131.953 230.578 130.785ZM285.051 131.624H235.066C235.056 131.343 235.05 131.063 235.05 130.785C235.05 116.82 246.215 105.474 260.057 105.474C273.895 105.474 285.065 116.816 285.065 130.866C285.065 131.122 285.06 131.373 285.051 131.624Z" fill="#1EA0D9"/>
<path fill-rule="evenodd" clip-rule="evenodd" d="M349.826 264.15C349.826 264.151 349.825 264.151 348.082 262.627C346.339 261.103 346.338 261.104 346.338 261.104L346.338 261.104L346.353 261.087C346.368 261.071 346.393 261.043 346.428 261.004C346.497 260.927 346.603 260.806 346.741 260.644C347.017 260.319 347.421 259.827 347.909 259.183C348.888 257.894 350.201 256.005 351.515 253.631C354.152 248.867 356.74 242.252 356.74 234.67H361.437C361.437 243.24 358.521 250.603 355.655 255.78C354.218 258.376 352.779 260.448 351.694 261.877C351.151 262.593 350.694 263.15 350.369 263.533C350.206 263.725 350.076 263.873 349.983 263.977C349.937 264.029 349.9 264.069 349.874 264.099L349.842 264.134L349.831 264.145L349.828 264.149L349.826 264.15Z" fill="#1EA0D9"/>
<path fill-rule="evenodd" clip-rule="evenodd" d="M321.41 291.473C321.409 291.473 321.409 291.473 320.573 289.422C319.737 287.371 319.736 287.371 319.736 287.371L319.737 287.371L319.751 287.365C319.763 287.36 319.784 287.351 319.813 287.338C319.871 287.313 319.96 287.273 320.076 287.22C320.309 287.114 320.653 286.954 321.081 286.743C321.94 286.321 323.131 285.699 324.452 284.906C327.139 283.292 330.173 281.081 332.117 278.53L335.554 281.258C333.104 284.472 329.506 287.025 326.661 288.734C325.215 289.602 323.915 290.281 322.973 290.745C322.501 290.977 322.118 291.156 321.849 291.278C321.714 291.339 321.608 291.386 321.534 291.419C321.496 291.435 321.467 291.448 321.446 291.457L321.421 291.468L321.413 291.471L321.41 291.473Z" fill="#1EA0D9"/>
<path fill-rule="evenodd" clip-rule="evenodd" d="M333.397 300.101C334.588 300.101 335.554 301.113 335.554 302.362V328.038C335.554 329.287 334.588 330.299 333.397 330.299C332.206 330.299 331.24 329.287 331.24 328.038V302.362C331.24 301.113 332.206 300.101 333.397 300.101Z" fill="#1EA0D9"/>
<path fill-rule="evenodd" clip-rule="evenodd" d="M266.886 305.134C268.276 305.134 269.402 306.112 269.402 307.319V328.114C269.402 329.321 268.276 330.299 266.886 330.299C265.496 330.299 264.369 329.321 264.369 328.114V307.319C264.369 306.112 265.496 305.134 266.886 305.134Z" fill="#1EA0D9"/>
<path fill-rule="evenodd" clip-rule="evenodd" d="M256.821 301.539C258.211 301.539 259.337 302.549 259.337 303.796V328.042C259.337 329.289 258.211 330.299 256.821 330.299C255.431 330.299 254.304 329.289 254.304 328.042V303.796C254.304 302.549 255.431 301.539 256.821 301.539Z" fill="#1EA0D9"/>
<path fill-rule="evenodd" clip-rule="evenodd" d="M246.036 307.291C247.425 307.291 248.552 308.268 248.552 309.473V328.117C248.552 329.322 247.425 330.299 246.036 330.299C244.646 330.299 243.519 329.322 243.519 328.117V309.473C243.519 308.268 244.646 307.291 246.036 307.291Z" fill="#1EA0D9"/>
<path fill-rule="evenodd" clip-rule="evenodd" d="M344.539 290.034C345.532 290.034 346.337 291.046 346.337 292.293V328.04C346.337 329.288 345.532 330.299 344.539 330.299C343.547 330.299 342.742 329.288 342.742 328.04V292.293C342.742 291.046 343.547 290.034 344.539 290.034Z" fill="#1EA0D9"/>
<path fill-rule="evenodd" clip-rule="evenodd" d="M260.416 122.504C256.871 122.504 253.928 124.647 252.962 127.484C252.576 128.617 251.301 129.237 250.114 128.869C248.927 128.501 248.278 127.284 248.663 126.151C250.248 121.495 254.958 118.19 260.416 118.19C265.874 118.19 270.584 121.495 272.169 126.151C272.554 127.284 271.905 128.501 270.718 128.869C269.531 129.237 268.256 128.617 267.871 127.484C266.905 124.647 263.961 122.504 260.416 122.504Z" fill="#5DC8DB"/>
<path fill-rule="evenodd" clip-rule="evenodd" d="M260.056 114.129C252.2 114.129 245.664 119.749 244.428 127.073C244.219 128.317 243.047 129.153 241.812 128.942C240.577 128.731 239.746 127.552 239.956 126.308C241.572 116.729 250.048 109.561 260.056 109.561C270.072 109.561 278.539 116.81 280.155 126.305C280.367 127.548 279.537 128.729 278.303 128.942C277.068 129.155 275.895 128.32 275.684 127.076C274.448 119.815 267.903 114.129 260.056 114.129Z" fill="#5DC8DB"/>
<path fill-rule="evenodd" clip-rule="evenodd" d="M342.746 173.722C343.931 173.25 345.284 173.804 345.768 174.961C349.859 184.73 351.371 196.484 351.371 210.474V220.904C351.371 222.153 350.333 223.166 349.053 223.166C347.773 223.166 346.735 222.153 346.735 220.904V210.474C346.735 196.739 345.24 185.658 341.477 176.672C340.993 175.516 341.561 174.195 342.746 173.722Z" fill="#5ECADC"/>
<path fill-rule="evenodd" clip-rule="evenodd" d="M300.504 148.316C300.99 147.17 302.299 146.642 303.428 147.135C303.924 147.351 304.419 147.566 304.915 147.782C314.659 152.018 324.574 156.094 331.599 166.004C338.99 176.429 342.97 192.898 341.839 221C341.789 222.246 340.752 223.215 339.524 223.164C338.296 223.113 337.341 222.062 337.391 220.816C338.507 193.089 334.41 178.038 327.882 168.83C321.596 159.964 312.847 156.152 302.862 151.802C302.466 151.63 302.068 151.457 301.669 151.282C300.54 150.789 300.018 149.461 300.504 148.316Z" fill="#5ECADC"/>
<path fill-rule="evenodd" clip-rule="evenodd" d="M339.509 260.77C334.267 260.77 330.018 265.02 330.018 270.262C330.018 275.504 334.267 279.753 339.509 279.753C344.751 279.753 349 275.504 349 270.262C349 265.02 344.751 260.77 339.509 260.77ZM325.488 270.262C325.488 262.518 331.765 256.241 339.509 256.241C347.252 256.241 353.53 262.518 353.53 270.262C353.53 278.005 347.252 284.282 339.509 284.282C331.765 284.282 325.488 278.005 325.488 270.262Z" fill="#5DC6D9"/>
<path fill-rule="evenodd" clip-rule="evenodd" d="M339.507 270.078C339.406 270.078 339.324 270.16 339.324 270.261C339.324 270.362 339.406 270.444 339.507 270.444C339.608 270.444 339.69 270.362 339.69 270.261C339.69 270.16 339.608 270.078 339.507 270.078ZM334.834 270.261C334.834 267.68 336.926 265.588 339.507 265.588C342.089 265.588 344.181 267.68 344.181 270.261C344.181 272.843 342.089 274.935 339.507 274.935C336.926 274.935 334.834 272.843 334.834 270.261Z" fill="#5DC6D9"/>
<path fill-rule="evenodd" clip-rule="evenodd" d="M236.091 169.958L256.461 178.722L250.427 216.981C250.241 218.262 249.453 219.407 248.156 219.87C242.142 222.145 235.449 220.945 230.445 216.862L230.44 216.858L230.434 216.853C229.325 215.936 229.005 214.504 229.185 213.378C229.186 213.377 229.186 213.376 229.186 213.375L236.091 169.958ZM239.469 176.248L233.517 213.669C237.202 216.469 241.934 217.292 246.23 215.836L251.647 181.487L239.469 176.248Z" fill="#5FCCDC"/>
<path fill-rule="evenodd" clip-rule="evenodd" d="M284.165 169.958L292.329 204.505L292.338 204.551C292.544 205.606 292.287 206.436 292.059 207.02L291.984 207.211L291.878 207.386C291.162 208.56 289.388 211.064 286.277 212.781C283.101 214.534 278.739 215.346 273.148 213.447C271.901 213.112 270.933 212.008 270.68 210.728L262.934 178.973L284.165 169.958ZM268.235 181.709L274.94 209.198C279.185 210.543 282.146 209.828 284.146 208.724C286.07 207.663 287.284 206.138 287.877 205.24L281.033 176.275L268.235 181.709Z" fill="#5FCCDC"/>
<path fill-rule="evenodd" clip-rule="evenodd" d="M274.863 182.947C275.681 182.75 276.519 183.2 276.734 183.951L282.296 203.425C282.511 204.177 282.022 204.947 281.203 205.144C280.384 205.341 279.547 204.892 279.332 204.14L273.769 184.666C273.555 183.914 274.044 183.144 274.863 182.947Z" fill="#4173B8"/>
<path fill-rule="evenodd" clip-rule="evenodd" d="M245.279 182.918C245.998 183.036 246.491 183.746 246.379 184.505L242.543 210.485C242.431 211.244 241.758 211.763 241.039 211.645C240.319 211.527 239.827 210.816 239.939 210.057L243.775 184.077C243.886 183.319 244.56 182.799 245.279 182.918Z" fill="#4173B8"/>
<path fill-rule="evenodd" clip-rule="evenodd" d="M187.795 127.458C185.171 127.458 183.043 129.586 183.043 132.21C183.043 134.835 185.171 136.963 187.795 136.963C190.42 136.963 192.548 134.835 192.548 132.21C192.548 129.586 190.42 127.458 187.795 127.458ZM180.246 132.21C180.246 128.041 183.626 124.661 187.795 124.661C191.965 124.661 195.345 128.041 195.345 132.21C195.345 136.38 191.965 139.76 187.795 139.76C183.626 139.76 180.246 136.38 180.246 132.21Z" fill="#1EA0D9"/>
<path fill-rule="evenodd" clip-rule="evenodd" d="M198.22 190.191C196.687 190.191 195.444 191.434 195.444 192.967C195.444 194.5 196.687 195.743 198.22 195.743C199.754 195.743 200.997 194.5 200.997 192.967C200.997 191.434 199.754 190.191 198.22 190.191ZM193.187 192.967C193.187 190.187 195.44 187.934 198.22 187.934C201 187.934 203.253 190.187 203.253 192.967C203.253 195.747 201 198 198.22 198C195.44 198 193.187 195.747 193.187 192.967Z" fill="#1EA0D9"/>
<path fill-rule="evenodd" clip-rule="evenodd" d="M388.761 333.994C387.228 333.994 385.985 335.237 385.985 336.771C385.985 338.304 387.228 339.547 388.761 339.547C390.295 339.547 391.538 338.304 391.538 336.771C391.538 335.237 390.295 333.994 388.761 333.994ZM383.728 336.771C383.728 333.991 385.982 331.737 388.761 331.737C391.541 331.737 393.795 333.991 393.795 336.771C393.795 339.55 391.541 341.804 388.761 341.804C385.982 341.804 383.728 339.55 383.728 336.771Z" fill="#1EA0D9"/>
<path d="M379.054 290.034C381.238 290.034 383.009 288.425 383.009 286.439C383.009 284.454 381.238 282.844 379.054 282.844C376.87 282.844 375.099 284.454 375.099 286.439C375.099 288.425 376.87 290.034 379.054 290.034Z" fill="#1EA0D9"/>
<path fill-rule="evenodd" clip-rule="evenodd" d="M361.798 145.676C360.499 145.676 359.445 146.729 359.445 148.029C359.445 149.328 360.499 150.382 361.798 150.382C363.098 150.382 364.151 149.328 364.151 148.029C364.151 146.729 363.098 145.676 361.798 145.676ZM357.125 148.029C357.125 145.447 359.217 143.355 361.798 143.355C364.38 143.355 366.472 145.447 366.472 148.029C366.472 150.61 364.38 152.702 361.798 152.702C359.217 152.702 357.125 150.61 357.125 148.029Z" fill="#1EA0D9"/>
<path d="M333.393 128.975C334.982 128.975 336.269 127.687 336.269 126.098C336.269 124.51 334.982 123.222 333.393 123.222C331.805 123.222 330.517 124.51 330.517 126.098C330.517 127.687 331.805 128.975 333.393 128.975Z" fill="#1EA0D9"/>
<path d="M204.691 164.206C207.073 164.206 209.005 162.275 209.005 159.892C209.005 157.51 207.073 155.578 204.691 155.578C202.308 155.578 200.376 157.51 200.376 159.892C200.376 162.275 202.308 164.206 204.691 164.206Z" fill="#1EA0D9"/>
<path d="M174.495 211.662C176.878 211.662 178.809 209.73 178.809 207.348C178.809 204.965 176.878 203.034 174.495 203.034C172.113 203.034 170.181 204.965 170.181 207.348C170.181 209.73 172.113 211.662 174.495 211.662Z" fill="#1EA0D9"/>
<path d="M147.973 173.213L139.714 181.472L147.973 189.731L156.232 181.472L147.973 173.213Z" fill="#5FCCDC"/>
<path d="M375.723 311.588L369.58 317.73L375.723 323.873L381.865 317.73L375.723 311.588Z" fill="#1EA0D9"/>
<path d="M399.588 300.762L396.086 304.264L399.588 307.766L403.09 304.264L399.588 300.762Z" fill="#1EA0D9"/>
<path d="M358.449 114.752L353.511 119.689L358.449 124.626L363.386 119.689L358.449 114.752Z" fill="#1EA0D9"/>
<path d="M190.572 217.263L187.132 220.703L190.572 224.144L194.013 220.703L190.572 217.263Z" fill="#1EA0D9"/>
<path fill-rule="evenodd" clip-rule="evenodd" d="M324.483 173.811C325.534 173.232 326.829 173.663 327.377 174.772C331.954 184.047 331.985 194.297 331.954 206.622C331.952 207.637 331.949 208.667 331.949 209.712V220.9C331.949 222.151 330.989 223.166 329.804 223.166C328.62 223.166 327.66 222.151 327.66 220.9V209.712C327.66 208.769 327.661 207.846 327.663 206.942C327.683 194.235 327.697 185.222 323.573 176.867C323.026 175.757 323.433 174.389 324.483 173.811Z" fill="#5ECADC"/>
<defs>
<filter id="filter0_d" x="0" y="0" width="508.715" height="466.249" filterUnits="userSpaceOnUse" color-interpolation-filters="sRGB">
<feFlood flood-opacity="0" result="BackgroundImageFix"/>
<feColorMatrix in="SourceAlpha" type="matrix" values="0 0 0 0 0 0 0 0 0 0 0 0 0 0 0 0 0 0 127 0"/>
<feOffset dy="4"/>
<feGaussianBlur stdDeviation="2"/>
<feColorMatrix type="matrix" values="0 0 0 0 0 0 0 0 0 0 0 0 0 0 0 0 0 0 0.25 0"/>
<feBlend mode="normal" in2="BackgroundImageFix" result="effect1_dropShadow"/>
<feBlend mode="normal" in="SourceGraphic" in2="effect1_dropShadow" result="shape"/>
</filter>
<linearGradient id="paint0_linear" x1="74.1035" y1="166.16" x2="270.268" y2="203.92" gradientUnits="userSpaceOnUse">
<stop stop-color="#5DC6D9"/>
<stop offset="1" stop-color="#3A71FF"/>
</linearGradient>
</defs>
</svg>
