<svg width="120" height="27" viewBox="0 0 120 27" fill="none" xmlns="http://www.w3.org/2000/svg">
<path d="M0 0.0275879V5.54555H8.0494V26.6788H13.4536C13.4536 26.6788 13.4536 13.1114 13.4536 10.4662C13.4536 7.05304 14.2784 5.54555 16.6677 5.54555C18.5165 5.54555 22.0719 5.54555 22.0719 5.54555V0.0275879H0Z" fill="white"/>
<path d="M99.2949 0V5.51797H105.922V26.6512H111.326C111.326 26.6512 111.326 13.0838 111.326 10.4386C111.326 7.02545 112.151 5.51797 114.54 5.51797C116.389 5.51797 119.945 5.51797 119.945 5.51797V0H99.2949Z" fill="white"/>
<path d="M41.5273 26.7085V0.0288086C41.5273 0.0288086 48.9226 0.0288086 50.8282 0.0288086C54.6965 0.0288086 58.8776 1.50785 58.8776 6.31474C58.8776 11.1216 54.4405 15.2174 54.4405 15.2174L61.0678 26.7085H55.3507C55.3507 26.7085 50.6291 18.0902 48.6381 14.3073C50.8567 12.5722 52.6202 10.6097 53.3597 8.59019C53.8717 7.19648 52.8762 5.54677 51.2265 5.54677C47.1591 5.54677 46.96 5.54677 46.96 5.54677V26.68H41.5273V26.7085Z" fill="white"/>
<path d="M78.4177 0.0288086V5.54677C78.4177 5.54677 73.9521 5.54677 71.4776 5.54677C69.003 5.54677 65.4192 7.79378 65.4192 13.3686C65.4192 18.9435 67.6947 21.5887 69.6857 21.5887C71.1078 21.5887 73.8668 21.5887 73.8668 21.5887V17.3222C73.8668 17.3222 73.2411 17.3222 71.9611 17.3222C68.9746 17.3222 69.1737 12.8282 69.1737 12.8282H78.3893V26.7085C78.3893 26.7085 74.4926 26.7085 71.0794 26.7085C65.5899 26.7085 60.271 23.8926 60.271 13.7384C60.271 1.96294 68.5195 0.0288086 71.506 0.0288086C74.4926 0.0288086 78.4177 0.0288086 78.4177 0.0288086Z" fill="white"/>
<path d="M81.4331 5.54677C81.4331 2.04827 83.2819 0.0288086 86.2684 0.0288086C89.255 0.0288086 96.5933 0.0288086 96.5933 0.0288086V5.54677C96.5933 5.54677 91.3598 5.54677 89.5963 5.54677C87.8328 5.54677 86.8657 6.65606 86.8657 8.50486C86.8657 10.3537 86.8657 11.3492 86.8657 11.3492H96.6217V16.1276H86.8657C86.8657 16.1276 86.8657 17.8058 86.8657 19.0573C86.8657 20.3088 87.8328 21.6171 89.3119 21.6171C91.1607 21.6171 96.5933 21.6171 96.5933 21.6171V26.7369C96.5933 26.7369 89.0274 26.7369 86.2684 26.7369C83.5095 26.7369 81.4331 25.0019 81.4331 21.6171C81.4331 19.0573 81.4331 8.16354 81.4331 5.54677Z" fill="white"/>
<path fill-rule="evenodd" clip-rule="evenodd" d="M38.1989 0.0288086V26.7085H32.8231L32.7947 18.1186H26.2812L23.7498 26.7085H17.9189C17.9189 26.7085 23.4654 9.72791 24.6884 5.54677C25.9399 1.36564 28.2154 0.0288086 32.2258 0.0288086H38.1989ZM27.7321 13.1405H32.7665L32.795 5.57464H31.2875C31.2875 5.57464 30.036 5.34709 29.4387 7.42344C28.8129 9.49979 27.7321 13.1405 27.7321 13.1405Z" fill="white"/>
</svg>
