<svg width="64" height="53" viewBox="0 0 64 53" fill="none" xmlns="http://www.w3.org/2000/svg">
<path d="M51.5254 28.7849C51.5254 28.7849 55.2469 28.7849 56.5314 28.7849C57.7829 28.7849 58.7709 27.486 58.7709 25.5543C58.7709 23.6226 58.1122 21.2913 56.0374 21.2913C53.9625 21.2913 53.699 22.5569 53.699 23.6559C53.699 24.7217 54.3577 25.6542 55.6092 25.6542C56.8607 25.6542 61.8338 25.6542 61.8338 25.6542" stroke="#1EA0D9" stroke-width="2.5" stroke-miterlimit="10" stroke-linecap="round"/>
<path d="M23.4056 7.19355C21.9858 7.52488 20.5934 7.99426 19.3101 8.57408L11.5561 5.17798V14.3723C10.1363 16.0566 8.98959 17.9617 8.17049 20.0049H5.84973C3.72009 20.0049 2 21.7167 2 23.8703V30.1932C2 32.3468 3.72009 34.0863 5.84973 34.0863H8.14319C9.56295 37.6756 11.9929 40.768 15.1601 43.0873C15.1601 43.1149 15.1601 43.1425 15.1601 43.1425V49.1893C15.1601 50.4593 16.1976 51.5085 17.4535 51.5085H20.5388C21.7947 51.5085 22.8322 50.4593 22.8322 49.1893V46.7319C24.7435 47.2289 26.7366 47.505 28.8116 47.505C30.7774 47.505 32.6613 47.2565 34.4633 46.8147V49.1893C34.4633 50.4593 35.5009 51.5085 36.7568 51.5085H39.842C41.098 51.5085 42.1355 50.4593 42.1355 49.1893V43.3082C47.405 39.5808 50.8179 33.6721 50.8179 27.018C50.8179 18.0721 44.6474 10.4792 36.0469 7.69054" stroke="#5ECADC" stroke-width="2.5" stroke-miterlimit="10"/>
<path d="M16.2787 26.0062C17.4013 26.0062 18.3113 25.086 18.3113 23.9508C18.3113 22.8155 17.4013 21.8953 16.2787 21.8953C15.1561 21.8953 14.2461 22.8155 14.2461 23.9508C14.2461 25.086 15.1561 26.0062 16.2787 26.0062Z" fill="#1EA0D9"/>
<path d="M21.6309 14.372C23.8424 12.6049 26.6273 11.5281 29.6853 11.5281C32.7978 11.5281 35.6373 12.6325 37.8489 14.4824" stroke="#1EA0D9" stroke-width="2.5" stroke-miterlimit="10" stroke-linecap="round"/>
<path d="M33.7776 11.6884C34.6884 10.7041 35.245 9.38722 35.245 7.94038C35.245 4.89179 32.7736 2.42041 29.7251 2.42041C26.6765 2.42041 24.2051 4.89179 24.2051 7.94038C24.2051 9.38722 24.7617 10.7041 25.6725 11.6884" stroke="#1EA0D9" stroke-width="3"/>
</svg>
