<svg width="43" height="58" viewBox="0 0 43 58" fill="none" xmlns="http://www.w3.org/2000/svg">
<g clip-path="url(#clip0)">
<path fill-rule="evenodd" clip-rule="evenodd" d="M20.4901 57.2318C20.4908 57.2321 20.4913 57.2323 21.1215 55.8712L20.4913 57.2323L21.1215 57.5241L21.7518 57.2323L21.1215 55.8712C21.7518 57.2323 21.7523 57.2321 21.753 57.2318L21.7592 57.2289L21.7737 57.2221L21.8234 57.1985C21.8657 57.1784 21.926 57.1493 22.0031 57.1114C22.1572 57.0355 22.3787 56.9241 22.658 56.7774C23.2162 56.4842 24.0065 56.0492 24.9515 55.4742C26.8385 54.3261 29.3589 52.6102 31.8855 50.3383C36.9121 45.8184 42.1435 38.9274 42.1435 29.8015V8.01344C42.1435 6.5344 40.8565 5.3717 39.3634 5.3717H2.87974C1.66271 5.3717 0.0996094 6.28814 0.0996094 8.01344V29.8015C0.0996094 38.9274 5.33103 45.8184 10.3576 50.3383C12.8842 52.6102 15.4046 54.3261 17.2916 55.4742C18.2366 56.0492 19.0269 56.4842 19.5851 56.7774C19.8644 56.9241 20.0859 57.0355 20.24 57.1114C20.3171 57.1493 20.3774 57.1784 20.4197 57.1985L20.4694 57.2221L20.4839 57.2289L20.4901 57.2318Z" fill="#53B487"/>
<path d="M21.1219 53.9695C21.1219 53.9695 3.11523 45.6323 3.11523 29.9234V9.82643C3.11523 9.21211 3.70562 8.77332 4.296 8.77332H21.1219H37.9478C38.6366 8.77332 39.1286 9.29987 39.1286 9.82643V29.9234C39.1286 45.6323 21.1219 53.9695 21.1219 53.9695Z" fill="#53B487"/>
<path fill-rule="evenodd" clip-rule="evenodd" d="M21.1219 53.9695C21.1219 53.9695 3.11523 45.6323 3.11523 29.9234V9.82643C3.11523 9.21211 3.70562 8.77332 4.296 8.77332H37.9478C38.6366 8.77332 39.1286 9.29987 39.1286 9.82643V29.9234C39.1286 45.6323 21.1219 53.9695 21.1219 53.9695ZM19.8677 49.8584C20.3401 50.1459 20.7632 50.3895 21.1219 50.5887C21.4806 50.3895 21.9037 50.1459 22.3762 49.8584C23.9506 48.9005 26.0412 47.4752 28.1193 45.6065C32.3288 41.8214 36.1286 36.557 36.1286 29.9234V11.7733H6.11523V29.9234C6.11523 36.557 9.91502 41.8214 14.1245 45.6065C16.2026 47.4752 18.2932 48.9005 19.8677 49.8584Z" fill="white"/>
<path fill-rule="evenodd" clip-rule="evenodd" d="M9.63818 14.2971C10.4666 14.2971 11.1382 14.9687 11.1382 15.7971L11.1382 15.8493C11.1382 16.6778 10.4666 17.3493 9.63818 17.3493C8.80976 17.3493 8.13818 16.6778 8.13818 15.8493L8.13818 15.7971C8.13818 14.9687 8.80976 14.2971 9.63818 14.2971Z" fill="#53B487"/>
<path fill-rule="evenodd" clip-rule="evenodd" d="M9.54297 18.3473C10.3714 18.3473 11.043 19.0189 11.043 19.8473L11.043 23.4026C11.043 24.2311 10.3714 24.9026 9.54297 24.9026C8.71454 24.9026 8.04297 24.2311 8.04297 23.4026L8.04297 19.8473C8.04297 19.0189 8.71454 18.3473 9.54297 18.3473Z" fill="#53B487"/>
<path fill-rule="evenodd" clip-rule="evenodd" d="M20.7124 20.9072C21.5408 20.9072 22.2124 21.5788 22.2124 22.4072V33.7712C22.2124 34.5996 21.5408 35.2712 20.7124 35.2712C19.884 35.2712 19.2124 34.5996 19.2124 33.7712V22.4072C19.2124 21.5788 19.884 20.9072 20.7124 20.9072Z" fill="white"/>
<path fill-rule="evenodd" clip-rule="evenodd" d="M12.9141 28.0891C12.9141 27.2607 13.5856 26.5891 14.4141 26.5891H27.0831C27.9115 26.5891 28.5831 27.2607 28.5831 28.0891C28.5831 28.9175 27.9115 29.5891 27.0831 29.5891H14.4141C13.5856 29.5891 12.9141 28.9175 12.9141 28.0891Z" fill="white"/>
</g>
<path fill-rule="evenodd" clip-rule="evenodd" d="M9.32031 1.5C9.32031 0.671573 9.99189 0 10.8203 0H30.4415C31.27 0 31.9415 0.671573 31.9415 1.5C31.9415 2.32843 31.27 3 30.4415 3H10.8203C9.99189 3 9.32031 2.32843 9.32031 1.5Z" fill="#53B487"/>
<defs>
<clipPath id="clip0">
<rect y="5.44458" width="42.2442" height="52.0441" fill="white"/>
</clipPath>
</defs>
</svg>
