<svg width="40" height="40" viewBox="0 0 40 40" fill="none" xmlns="http://www.w3.org/2000/svg">
<rect width="40" height="40" rx="6" fill="#00A863"/>
<path fill-rule="evenodd" clip-rule="evenodd" d="M19.5 20.5V28H20.5V20.5H28V19.5H20.5V12H19.5V19.5H12V20.5H19.5Z" fill="white"/>
<path d="M19.5 28H19V28.5H19.5V28ZM19.5 20.5H20V20H19.5V20.5ZM20.5 28V28.5H21V28H20.5ZM20.5 20.5V20H20V20.5H20.5ZM28 20.5V21H28.5V20.5H28ZM28 19.5H28.5V19H28V19.5ZM20.5 19.5H20V20H20.5V19.5ZM20.5 12H21V11.5H20.5V12ZM19.5 12V11.5H19V12H19.5ZM19.5 19.5V20H20V19.5H19.5ZM12 19.5V19H11.5V19.5H12ZM12 20.5H11.5V21H12V20.5ZM20 28V20.5H19V28H20ZM20.5 27.5H19.5V28.5H20.5V27.5ZM20 20.5V28H21V20.5H20ZM28 20H20.5V21H28V20ZM27.5 19.5V20.5H28.5V19.5H27.5ZM20.5 20H28V19H20.5V20ZM20 12V19.5H21V12H20ZM19.5 12.5H20.5V11.5H19.5V12.5ZM20 19.5V12H19V19.5H20ZM12 20H19.5V19H12V20ZM12.5 20.5V19.5H11.5V20.5H12.5ZM19.5 20H12V21H19.5V20Z" fill="white"/>
</svg>
