<svg width="26" height="19" viewBox="0 0 26 19" fill="none" xmlns="http://www.w3.org/2000/svg">
<path d="M25.3469 15.4898C25.3469 16.2367 25.0502 16.9531 24.5221 17.4812C23.9939 18.0094 23.2775 18.3061 22.5306 18.3061H2.81633C2.06939 18.3061 1.35305 18.0094 0.824883 17.4812C0.296719 16.9531 0 16.2367 0 15.4898V12.6735H25.3469V15.4898Z" fill="#CE2028"/>
<path d="M0 5.63266H25.3469V12.6735H0V5.63266Z" fill="#22408C"/>
<path d="M22.5306 0H2.81633C2.06939 0 1.35305 0.296719 0.824883 0.824883C0.296719 1.35305 0 2.06939 0 2.81633L0 5.63265H25.3469V2.81633C25.3469 2.06939 25.0502 1.35305 24.5221 0.824883C23.9939 0.296719 23.2775 0 22.5306 0Z" fill="white"/>
</svg>
