<svg width="51" height="59" viewBox="0 0 51 59" fill="none" xmlns="http://www.w3.org/2000/svg">
<path d="M46.3298 51.221C46.3298 51.221 46.3298 45.174 46.3298 43.239C46.3298 41.373 42.2883 31.5596 33.1863 31.145C32.8128 31.1104 32.4392 31.2487 32.1675 31.5251L26.4957 36.8464C25.9523 37.3302 25.1372 37.3302 24.6278 36.8464L18.9221 31.5251C18.6504 31.2832 18.2768 31.145 17.9032 31.145C8.83526 31.5596 4.75977 41.373 4.75977 43.239C4.75977 45.1394 4.75977 51.221 4.75977 51.221" stroke="#5ECADC" stroke-width="2.5" stroke-miterlimit="10" stroke-linecap="round"/>
<path d="M25.918 25.7892C32.3891 25.7892 37.635 20.4519 37.635 13.868C37.635 7.28408 32.3891 1.94678 25.918 1.94678C19.4468 1.94678 14.2009 7.28408 14.2009 13.868C14.2009 20.4519 19.4468 25.7892 25.918 25.7892Z" stroke="#5ECADC" stroke-width="2.5" stroke-miterlimit="10" stroke-linecap="round"/>
<path d="M1.68945 49.6792C1.68945 49.6792 11.574 56.8278 25.5451 56.8278" stroke="#1EA0D9" stroke-width="2.5" stroke-miterlimit="10" stroke-linecap="round"/>
<path d="M49.4006 49.6792C49.4006 49.6792 39.516 56.8278 25.5449 56.8278" stroke="#1EA0D9" stroke-width="2.5" stroke-miterlimit="10" stroke-linecap="round"/>
<path d="M21.9451 18.0489C22.4545 19.7075 23.9828 20.9169 25.8168 20.9169C27.6508 20.9169 29.1451 19.7075 29.6885 18.0489" stroke="#1EA0D9" stroke-width="2.5" stroke-miterlimit="10" stroke-linecap="round"/>
<line x1="13.6333" y1="43.3685" x2="19.5198" y2="43.3685" stroke="#5ECADC" stroke-width="2.5" stroke-linecap="round"/>
</svg>
