<svg width="20" height="20" viewBox="0 0 20 20" fill="none" xmlns="http://www.w3.org/2000/svg">
<path d="M9.44852 0.802063C9.55207 0.592281 9.76571 0.459473 9.99967 0.459473C10.2336 0.459432 10.4473 0.59224 10.5509 0.802022L12.9483 5.65895C13.1737 6.11564 13.6094 6.43226 14.1135 6.50546L19.4737 7.28466C19.7052 7.31834 19.8975 7.48048 19.9699 7.70301C20.0421 7.92549 19.9819 8.16976 19.8144 8.33308L15.936 12.1141C15.5713 12.4696 15.4049 12.9819 15.4909 13.4838L16.406 18.8215C16.4455 19.0521 16.3508 19.2852 16.1615 19.4226C15.9722 19.5602 15.7213 19.5782 15.5142 19.4694L10.7198 16.9493C10.269 16.7123 9.73044 16.7123 9.27955 16.9494L4.4856 19.4693C4.2785 19.5782 4.02757 19.56 3.83832 19.4225C3.64903 19.285 3.55428 19.0519 3.5938 18.8214L4.50934 13.484C4.59548 12.9819 4.42904 12.4696 4.06425 12.114L0.185631 8.33312C0.0181296 8.1698 -0.0422082 7.92553 0.0300998 7.70305C0.102408 7.48056 0.294742 7.31842 0.526274 7.2847L5.88631 6.50554C6.39036 6.43226 6.82612 6.11568 7.05156 5.65891L9.44852 0.802063Z" fill="#FFD60A"/>
</svg>
