<svg width="65" height="57" viewBox="0 0 65 57" fill="none" xmlns="http://www.w3.org/2000/svg">
<path d="M30.0195 4.18111C30.7169 3.19593 32.1788 3.19593 32.8762 4.18111L35.7919 8.29997C36.3311 9.06173 37.1061 9.6248 37.9973 9.90226L42.8155 11.4025C43.968 11.7613 44.4198 13.1516 43.6983 14.1193L40.682 18.1652C40.1242 18.9134 39.8282 19.8245 39.8397 20.7577L39.9018 25.8038C39.9167 27.0107 38.734 27.87 37.5907 27.4829L32.8108 25.8645C31.9268 25.5652 30.9689 25.5652 30.0848 25.8645L25.305 27.4829C24.1617 27.87 22.979 27.0107 22.9939 25.8038L23.056 20.7577C23.0675 19.8245 22.7715 18.9134 22.2136 18.1652L19.1974 14.1193C18.4759 13.1516 18.9277 11.7613 20.0801 11.4025L24.8984 9.90226C25.7895 9.6248 26.5645 9.06173 27.1038 8.29997L30.0195 4.18111Z" stroke="#1EA0D9" stroke-width="2.5"/>
<path d="M47.745 30.0912C48.4424 29.106 49.9043 29.106 50.6017 30.0912L53.0784 33.5899C53.6176 34.3516 54.3926 34.9147 55.2837 35.1922L59.3765 36.4665C60.529 36.8253 60.9807 38.2156 60.2593 39.1833L57.6972 42.62C57.1393 43.3682 56.8433 44.2793 56.8548 45.2125L56.9076 49.4988C56.9224 50.7057 55.7398 51.565 54.5965 51.1779L50.5363 49.8032C49.6523 49.5039 48.6943 49.5039 47.8103 49.8032L43.7502 51.1779C42.6069 51.565 41.4242 50.7057 41.4391 49.4988L41.4919 45.2125C41.5034 44.2793 41.2073 43.3682 40.6495 42.62L38.0874 39.1833C37.3659 38.2156 37.8177 36.8253 38.9702 36.4665L43.0629 35.1922C43.954 34.9147 44.729 34.3516 45.2683 33.5899L47.745 30.0912Z" stroke="#5ECADC" stroke-width="2.5"/>
<path d="M14.6464 30.0912C15.3438 29.106 16.8056 29.106 17.503 30.0912L19.9797 33.5899C20.519 34.3516 21.294 34.9147 22.1851 35.1922L26.2779 36.4665C27.4303 36.8253 27.8821 38.2156 27.1606 39.1833L24.5985 42.62C24.0407 43.3682 23.7447 44.2793 23.7562 45.2125L23.8089 49.4988C23.8238 50.7057 22.6411 51.565 21.4978 51.1779L17.4377 49.8032C16.5537 49.5039 15.5957 49.5039 14.7117 49.8032L10.6515 51.1779C9.50826 51.565 8.32559 50.7057 8.34045 49.4988L8.39323 45.2125C8.40472 44.2793 8.10869 43.3682 7.55085 42.62L4.98876 39.1833C4.26731 38.2156 4.71905 36.8253 5.87152 36.4665L9.9643 35.1922C10.8554 34.9147 11.6304 34.3516 12.1697 33.5899L14.6464 30.0912Z" stroke="#5ECADC" stroke-width="2.5"/>
</svg>
